<mxfile host="app.diagrams.net" modified="2024-04-14T08:46:36.753Z" agent="Mozilla/5.0 (Windows NT 10.0; Win64; x64) AppleWebKit/537.36 (KHTML, like Gecko) Chrome/123.0.0.0 Safari/537.36" etag="Zy9qwCUWASXwKSfP388m" version="24.2.2" type="device">
  <diagram id="0d7cefc2-ccd6-e077-73ed-a8e48b0cddf6" name="Page-1">
    <mxGraphModel dx="1063" dy="793" grid="1" gridSize="10" guides="1" tooltips="1" connect="1" arrows="1" fold="1" page="1" pageScale="1" pageWidth="1169" pageHeight="827" background="none" math="0" shadow="0">
      <root>
        <mxCell id="0" />
        <mxCell id="1" parent="0" />
        <mxCell id="2" value="&#xa;Architecture Design" style="swimlane;shadow=0;strokeColor=#4277BB;fillColor=#ffffff;fontColor=#000000;align=center;startSize=0;collapsible=0;strokeWidth=3;fontSize=32;labelBorderColor=none;" parent="1" vertex="1">
          <mxGeometry x="178" y="74" width="813" height="680" as="geometry" />
        </mxCell>
        <mxCell id="Xwab9O8QQoSItuY3KJxg-110" style="edgeStyle=orthogonalEdgeStyle;rounded=0;orthogonalLoop=1;jettySize=auto;html=1;fillColor=#0050EF;strokeColor=#4277BB;strokeWidth=2;" edge="1" parent="2" source="28" target="YGl9vfwFOa02jHmO-yQS-108">
          <mxGeometry relative="1" as="geometry" />
        </mxCell>
        <mxCell id="28" value="Sensors&#xa;" style="swimlane;shadow=0;strokeColor=#4277BB;fillColor=#ffffff;fontColor=#000000;align=center;startSize=0;collapsible=0;strokeWidth=3;fontSize=18;" parent="2" vertex="1">
          <mxGeometry x="62" y="98" width="120" height="472" as="geometry" />
        </mxCell>
        <mxCell id="Xwab9O8QQoSItuY3KJxg-106" value="" style="shape=image;verticalLabelPosition=bottom;labelBackgroundColor=default;verticalAlign=top;aspect=fixed;imageAspect=0;image=data:image/png,iVBORw0KGgoAAAANSUhEUgAAAKgAAACtCAYAAAAkhjQHAAAAAXNSR0IArs4c6QAAAARnQU1BAACxjwv8YQUAAAAJcEhZcwAAFxEAABcRAcom8z8AAI+rSURBVHhe7Z0HXBVn1v/3Lf/33XdjL7EivffeEVBAsAsC0osUC8UuFhAQpUkVEFFAimDvvcYkJmp63yS7STabZNOTTTFRk9//d557b2J2s0l2N7smuxw+5zNz7507d5j5zu+c88wzz/yiz/qsz/rsn2pffvllHv19eqv2rT7rsztrhDGU/jT+xLQf91mf3RkTldSy+K2mXazP+uyfZ4RyOf19LYPfaVzuivZrfdZn/zgjaIH0J7Xc/VWmXUWf9dmPb4Rys5azv9m4jkzt6vqsz/5+I1BL6G9o+fq7jev6o3bVfdZnf5sRIgnhj2uZ+tFN+zN91md/nRHKvzuE/xDj7zRof7LP+uy7jbBk0X+0EP5DTfvzfdZnf27kw59QXtWgcmdMuyl91mdfG6Gs0/Jxx43b0tcm2mcKyrQ7EcJ/iGk3sc/+3YxA+tEvaDn4yRq3sa9N9N/JeMBr6Ne1x/8nb9zWj7Wb3mf/qsaD/JMN4T/EtP9Gn/0rGYH0pJ/THuOftfH/aNP+W332czcezDL6zyaE/1DT/nt99nM0AplCf0l7LP8lTfuv9tnPxQikO/1fIoT/EOP/+qT2X++zn7LxQG2g/8uF8B9i2l3QZz81I5Ax9H/pEP5DjPsgV7tL+uxOGw+GhPAj2mPTZzTuj+va3dNnd8p4ENbLgdAekz77E9Pupj77ZxqBjKD/24fwH2LcTx3a3dZn/0jjjnal79Xu9z77K0y7C/vsH2GEUkL4D7oF9x9t3I6v/Odk3N5Q7e7ssx/DuEPD6T/JEP4zBbSvTfTvNe5Ee+7L3Zpd2mc/tml3c5/9tUYwV9N/EiH8X9m4j/vaRH+ocX/N4A57VrPr+uyfYdzffW2i32XcQfb0Hu3+6rM7YNpD0We3G6H8p4Vw/o527l/Hfsz/ievqaxMV446YTP8qhP+tO/mHf08q6y+0/mMdUFnPjwfH32Lyv+j8xzLtIfr3sxdffNb23bdfawe+wPXrn+DDD9/D+x+8i3fffQsfffwh3nv/Xbz/4bv4+PpHeP/99/DxJx/js88+43If4vpn1/Hp9U+53Ef4/Mbn+PTTT7mO6/jii1vq/c8+/wy3OC/TL774Ajdv3uR3NVc3Zf7mFze/mtdBdeuW5j0x3QG+/UDLenT27QDIe3/+vb8Zlr/xaz+2cfv/vdpEX33tpbzfvPzc+y+9/DSuXD2PC/ecwqVLZ3HhwklcuHgC5y+ewqkzx3D67AmcPH2c8ydx/p5zOHXupJq/59JFnL1wBucunFXz586fx3333YvLD9Dvv4QHHryP67xAP4+HHr7G9+/H/Q/ejwevXcY9953HA5xee/Qa7r1yHx5+/GE8/vijuPrIVTz57ON44vHH8NSTT+GFF5/HM888jedfeA6/fflFPPf8M3iZ09++9CJeevk3eOPN1/DyK7/F7159Be++8xZef/33eI3+hzdfxxt/eB0ffPAe3nn3Tbz51uv46KP38e577/DEexsff/xHvMf5P/7xQ85/jHfeeUdNP/7kE37nA9zgCfUJT8RPP/0En3/+ueZkvP4ZbvBEkhP05s0b6n05GQV8mf/8xmcKpM/53Zu3bvF98MT8nCecJjrId8TkBJOTVuwmT8Yvv9TMy0mts9vndcbvPaM9dP+6xh01ga6Go373g9fw4ktP4Oln7sfDj17AA1fO4dJ9J3Hvfadx/sIxnD13FOcI6ZlzJ3D8xEGcPn0MR44fxKHj+3Hs5EEcOXYAh44cwIED+7Bndy/2H9iLPXt7sHtPNw4c3IXeXR30bvTy9c7eTi63F4cO78Xufd04eHgX9uzvwa79vdh3cDd27e3C3v27sJfv9+zpxK7dO7nOHrWOPXu7sWsP17W3k8v0orunXTN/oBe7uP7de7gsf3fvvh4cProfe/bt5PL8jSN7sY/rPMypbO9RbvvJU0dx4sQRbsc+NX/8+GEcOnSA/8sh7D8k23cAJ07y/zxyCGd4Ep47fwpHjh7EiVPHufxxfvcY9w1P0tOnuH/OcH/dg7PnT+PSvdx/D1zCfZcv4DJPuMtXL+O+Bx/AAw9d48l/BdeuPYgnnnwMjz76MB555GE88dQTuMr3Hnv8Ib7/EI/BYzzReOL9lifhc0/jVZ5wL730W/X65Zdewq+f/zU+YUTSHsZ/LSOQNvQmdRpq7caN63jznZfw4suP4bkXruH5Zx+gal3EI4/fi2ee5A69ehEPXbsXTz7+AB557H7u5It48MFz3OlnqYxncIXTyw+cx2WB+exRnD51GGdPHcDxY3tx4vg+HN7fhX0E68jhPdhLWPYTlKOHenH80C6cOrEHp4724tjR3TzgXJ7zJ47vxuHDPThweCeO8fMD+zsJXRv20g/sbceePa2Erh27d23H/r0d2L27Fd07t2JnTxt27mxF787t6O7ahs7OFvT2tKKHrzt2NGFHx1Z0dG5FZ1cLurr5eUcL59vo7Whrb0b7Dn7OZdraG9VyO+jd3dvVNndxfR1dmt9o3d6IHVy2u7sV7a1cX8d2/m4bv7eFy23n+rbxt/gbPHna5Xs725W3dbTyf+jlSbAbO3fxxNrdqb7Xs7uLJ8RunvD7eIJ18iSQk4P75fRRgn8Cp88wgp0/o0Rhz54envx7eJIc4Ym0P097WH/+RihlOOpvvQX3M+aLp5/5NTquPoKeBy6j49K9aL94Eb303ecvoevkeXSdvgfdZ+inL6Dj1AW0nzyNHqpG5+kzaDl0DK1HT2Hb0ZPYdugoWuntBw5g97Fj2H3yFHoOHUIPlaeTCrvz0H70Upm69+/BHs7vpmL2UAl7D3SjW5SQB2bf4V508eDtPShKzM8I9x5CumvPduw7sBOHDlJh9+3gZx04ekTmBdodPPgEeX8HVbKLatqmFPfQ3h3Y1bMde3YRDoK8U+Z3byfcWwlTM6cEpFtA3crltql5me7pbSbkTdjP9R6iou8RoPjdXbvbsZNwd+9sQXdnA7o7mtTyO7ls945GdLc3oItgy++f5Ml1D9OjUwSvs4Pw8oTZTcD37OY20XfKb3K79h/oIpA9TJ2O4BTBO3qYsB7dg+MSmQ7v5+v9PGkP8f/az2UILdOs01Tzs+dP/LzbRAmkhPDvGY6aORCr5pUHzsNtXQsCKzoRVN6ByZu6MKtqJyaVdiC4fCcmlHRh4sYevr8PIeV7MLV6F6ZV7UZY2W74FvbAY10Xxpd0Y/yGPZhUvhczNu1FeN1hxDYdQ2zzMcQ0H0HKtkNIpafT05r3IL5pN5Ia9yKtaQ+SmnYhZXMvUpr2IaVxH9Llvc17+d4+ZDbsQRp93pY9mN+8F5mbdyF7y24sbOpFdvNurNmxDyta92JxQy/yWncht7kby1t2YXVrL5Zt7UJB+26s3d6DvJZubNy5D4U7erG+rQeVHbtRwmnFjl2o6OhGaWsHarq7UdfVzc+6Ub+zFzUdO1He1oVyfrahpR0VnNZ1dKFyB5fd0YaGrh1o3tmF9p5ubOvqwFa+7trThbZdPGGOELSTB3CQ6U8PT7iunR3Y3kGYCXt3bwcVmWpP4Hv2dTAN6mF+f4RQ0k/s53Qfjp46xKgikYipBsE9zTTrDGsCAfT8haMqmmkP9c/HSJzFn4bw77Yv8dkXX6Jg/yX8v6gi/E9UCe6KL8NdCWXoN6cI/SPzMZCun1IC07lFGBK9GoPj1uGXUeu4TDn6z63DwIw69JtbgwHpdRg2vxGjcrZjTE4r9Ba1w2BFF0xWdcNsTQ9sC/fCLr8XNut6YbG2E0arO2CyphNmqzpgtKINhqt3Qp/LGuZ1Y9zyTugt3QH95d2cdsF4pbzXBb0V3TDivD6nBst2wHxVF2zyd8OhaC9MlnViNH9XP3cbxtH1F2+D6fJWGC9vp7fCcBk/WyHfaYdlXgfMV7bDbvUO2KzuguvaLnjkd8K9YCc8OfXiCeeyZgd8ijrgv74LngUd8F23AxOLOhHC15NLu9V06oadiKrowezSHsTyhI2v2YuY2r3qBMts2IWk6m41Td+8Gxn1e5HBkyutvgcLmnqQzRNqfv0uLGrchWXNnPKEXblV5nuxnCfgurZ9WL21F4Wtu7GhYz8Ktu1B0bZeFG+nt/agRk621l17tIf+p22EMucvhfDvs+uf30T1iav4j1n56J+4Cf8dXYb/nFkI64wNyK1laDt5HIfOncVpVuNnLl/Exh07Eb2uFqPj1+E/ojbgl2mb0X9eAyGtw6CMzRiavhmDOD+YwA7m6xFZzRiztA2jCaz+kg4C14HhhHhobisGZW3DQPqg7FbctbAFv1qwBf3F5zehH73/vC0YzPeH5WzDYK5nSPY2DJXXC7ZyuhVDFm7B0Gy+zt7O39rC32/itAnD5zVi2MJmDF3QghE5bRjM3+s/X9Yl32nBYL4/gOvrl7VVvTdM1sttGJ61HcM5vZvLj8rZypNsK4wJtsBsvLQV1it3wH5NN6zyOmGxrB1WKztgx9fOhNqtsBfuPAk9CvfAa/0+RpQ98CvZjfEb98OPkcW39BCc1+2Be/FeuJXshRc/9+HUf+NBngR7lHtxHd5FPfBe3wsXnjSeBV2MUL0Yzyjll8+Th7/lw5PHd10HvAo6GdEO/XRVlEDKcNTXtJz9XVZ14kEMSy3H/8wpxYCYEkxeVYEDZ4/jD394CZ99JheQpD3yBr744jpF92O8+dbvsOPkGdhlUW0Jdb+59RiY3kAo6QR20NxaDKYPI6wjCdpoOdiLCejiHWo6alEboSNUBEtBSmD6Ebp+C5px17wmDCRMA+gaqAimgJS9lfBo4BQfTh/IdQ8Sz2jAIP7WkMwmeiNGZm3BGAI4cn4zhisomzGQ6x1EhR/Kz4dmNGIgpwPke/zOiPktuJvgjsxqwRieOHqLqLiLCefiLTBetAUmS7bCcmkLbKjEdnntsKbiWxBYWwJrt4rQMho4F/TAtaAXTlRkl7XdcMnv4bJdVOl2uBR2w0Og4zIOa3q5fDcc1TI74SaA8zvOa3Zy2U7YrumCdR7Xv7IN5vwtG6q8o7y3ogMW/H2zpdtgtWw7f6cTDoxI+vMqZ2iRuPNGIM3oP8pw1Lo2Z5n2XnkGYzI24f9FlsJxYRkOMt+5ef0tfiIN4eJfLy1XemT67kfvovX0WfjmbWa4r2S4b8AwHmwBYHB6PYak13J+M0ZREcct4UFf0kYF3YGxhHQEIRDgBhK8/oRoAL0fYRQ4+y1opHJymklAOR1ANRQQhxDeYaJ2XG4Ylx9CdRXo+hM6gWwwoRtEH8z3hs1vIHQNGM3vCKQj5gvQ/L4Ay+8NTW/k9mmgHkEwR/EkGcVtGUNFNmJqYLGsjUBuh+WybZxugxlhNdcCKnDarGiFxZJtsF7eRgh3wIGwOBM2Ac6JMMnUkemKzQoqrXxnVRtsV7dRcenLO2DJtMOOUDpSJd0LdhG2nQSc4OYzZSHsAqi1pCBMf5wJshPhtVnZxXVxm7g9tkxVHJimeCyuRWJx1a+1eNxZ+1tD+F+yLwiZ+K0vv8R9v30Do+Zuwi8jS5BWtQXXHjmNd956CTdufKbQ1PkXXFZz9UamX+L1t99GC6t1gzSG+uQ6DNGCM3jeZgzIZIjndBiBG55NSBimx1A5JT8dTqUasEBgFACplloQxe8icKKcAq5GSQVYgZBQCYDiSq1lnlOBk58NnMvfpMt7QzPqeWIQ0IUNhK4Zo7iu0VTp0Qu3EVaGfn53WBqdy44ilHpU+DFUXb3sLTBd3AJLBd92AkagqFYWdBvCZUcoHAmjPVVTPpfPrAmgPUFyIkiidAKqQGXPNMCe+bQN0wBbAmq9kqkClzUn1Nb8zJbrcuDydlzGlkprvapTAyfXbcG0QhTajsu5UoldCLH1yk7+HkEnuOZMPVwXbEBxQyOefPren0aYJ6A/8l2PCk81d+aZl2GWxYMbU4wCVq5XHjqM3z57Ch+/+wK+uPWJuvqhgCabcmVD870v8MWNd/DMC/cjtJAqmlZPFdyKQVSqgYRyAAEZSB9ECAcRgoF0CdEC6DBZRkIz1VVCuArjdHk9gKAM4LKDCbEK7RKeueyATMKoU0mmEZpUgkqd1kDfjIGp9eifWotBadr0goXb3el0FnFDmRMPE4UX5UzdjLslrPPEGMkTQ4/bJz5mocYNc7ZQHbdSLbcTEOaZChaCKPknIRL4JFQLKAKnQCwqKnDqlFTBynl5z4kq6Ux3YEFoS7chzPK+rMNRwjoBtaIiWvN9a0kf+DuWBNGcebsorSV/w4wngilfmy0WZW+HZ241Gjrb8OYr1/Dpx3/Asy++uEaLyZ0zQrJU0fSjmSihBtCrL78B20U8+LFFWNvWiQev7ccrzxzEH1+/gM8+fBKfffIybt54C7duvIsbN9/DzS8+xM0vOb3+PF555SKr0xb8b3IVCxxCRsAERoFsIIGTYkYKkf6EQKbDFzL35FQH51DmikMJ4jAFJGHUfk8H7RAuq8I8fTBBHUpVHaKKIZ4A0opAMAfy5BBXhVlqDQYlV2NoahWh3KR8yNxqQkxQqbzD+d0xLIYkRx1LII1zWwjDdoyjyouKSoi3IhQCpx1hsWXuZykF0QqBh/nkWiokVU3CvSinzgVU8duVVCCUqat2KiFdQJVl5DsOzD/tV3V9paaODPvyng0VVQoxG0Juy+/Y8DMF8TJuC/dTwupS/PaZo3j/9afwxrvv4cVXX/tptIkqmn40Yz4pusic8uk3P4BpTp1qaore2ICjF/bgpWcO4ZM3zuCz9y/h+h8v47OPHsRnf7yG6x89hE+v/xqfE87PP7iGZ587g6CVFfhlCmGhcgpgUoUPIGRD6FLMSP6oih4J5wyxMu0vYZmuQjdfS24p+aN6TxUv8jkh5Hw/hux+nFegCpgZVEzCOEhclJRwDkqpwsD4MgyIXo+BkeswMCofQ3nCDYvbgOFJlQSV0KbXqxA/muCPJpxjua36DOv6WUwF5tczX22AQe4WWK7YTmg0gNoQTCmGBFAzhn4bhmgbpWwM+1ROAU0U1Fob7iVvlPdc1/Wyau9RMIrqCrSOhFNcclRRYwUl3YmvZRnnAoG4m7mm/GaHKrRc+J40h8m22HEbXBc1oGVnE958pguvPXMAf3jtKXzyyUc/mTD/jJauH8V0pc+jv38Tnvmt+MXMdTDKKENWwzbc+/BhfPiHs7jx3nlCeZGA3oOP3z6D62+dw/X3L+PmR1dw4/170Xaom98pJzSEh2BKk1N/HuhBhHUYFWlEDlWQoPZn0SP5Zn+G17sEOhYoA+gDGaIHUdkkf+zPkD2APii1DgOUMsp7dbiLIVuase5i+O6XVoP+9MH0QQllGDSnBIMiCzFw2jIMCFmI/gHpGBg4F8MnzcPwKbkYMm05Bs3Kw8DofAxL3Ii7kyowLLkcI5gjj6Gqj13YiHFMRcawoBvOwm7k/DoCu1kVRqbcdhOGfMn5TAiuMefNFrFoopuyWLEkNNaERperylQqegep6gmdEwEVCJ2puhL+RZUdCK8zVVLAlKrdni4QC7QCtT3nzQmoy1ppctoHj8LdSoHlezbLd2DC6hbsPrYT7z/bjXcebsF7z+7GJ6/fjw9eeejOt4kS0FAtUz+SaRB97s134Ju/Db+IKMKvYjdiRGIRMmob8czTp3Hz3XuAjy/h5ocXcfOd0/jolcP44Pen8MYrZ7mjOuG/aAP6U6EkPxzIg9yfOd9AHmgpkEZQpYYTgAGZzA+piBonjAKnhGcVmvkdht9fMX+8i9MBhLN/MiEUT6GnVmMg1XEQf2NAYjm9DP0TSjFwzjr0n7oI/QLS0M89Bv2cZ6C/01QMcZ2OYR6zMNh9NgZ4x2LQ+FRCm4qBQRkYPn0phs5YhoERqzAkrgQjqaqioGas1qVK12NRNS67EcaLmmFEGI24/frzN8Moq1F9brakhfnpdgLKnJBTyRFFYa2lSYjAWrC6t1ndrml2EkAJm0O+KGMvAe2CPaF0WE0Y12qU1Y7h25zFkzQl6SBVqsxlXQmoaz5VmO9JaiCKa7OMy/F3sjZuwu8f34H3H23GR0+24pOXduHLt4/9NFRUEfWjmaY+f/WPn8J79Vb8cs5G3BVfgf+KKsEwFkzRa2vQfagXTzx5Au+9cQ6vvngcTz2yHw89fBwVXQxXC8rw/1j590thcaLaQgW6GkJGoFikDKHiDUoRwGpVlT1Qp5qEcJAUNFTGAWnVVMVq/IrLi0oqKJM3oV9iBb2MvhEDEjZiYMx6DJhNpZy5Gv3DcghmIvq7z8JAx1AMsPbHYGs/9LcMwFD7SRjhMhnDXKZikMt0DHSLwAC32RjkGYXBfgkYGpKJYTOWYsDMlRgQWYC7k8tgSMW0pAKaLG5miG+EkbR95jZTMUVBt8KM8/K5gGjFEG+xpFXlhBLORS1tCZgFQTNbzvyVU0kPVLVPl5DtJAWRalYisHxPKnM3UVeCZ8EK34qVuxNBliYqWacLgXYXNZWwroCl+lKdbaUFYMkOTFy8CYeObcU7z3bg5m+78clvOoE/7MebT7aFazG5c0YV7dDA9ePZK+99iDnVe/Bf4UXol1Cp/K5YAhJThrFJJQhYUYvwglpkVG/DzOIWBOdvh0FaOf4vtgy/SiR8yVQ+QjhAqd0mDCBgX3lSFZ3vc5nBKYRYclWq4wAWVZplOeVy/TntJ9OkcvRLKiWYGzAgvgT9mUf2m1OgUb3JORhI0AbaTsBAExcMNrDHcCMHDDG0wSgLVww1dcdAMy8MsvTDYC4z2D4IgwjsQMfJ9Kno7zgdg3xjcffkeegXloW7Ji/GXdNXYFhsMfQyaljN18EwtwmmBFWF+EVUTRZRliycpChSlTtBEbWUNk0J0aogKuiGLSGT4kpcAFVw8jMXbR4qgEojvgOVUBVaoqZrBG7mrARcrkY5MT+Vtlf5niasE06VFhB2wiqA2q6gkuY0ImJtBTp7qvD+b3YDb+3H57/biXeeavtptIlqufrR7L1PriO34yR+MYthUxrdEyWcElDO/y8h/CX9f2M24j9nr8evqLD/Hb0R/xG1Ef/HZQYkV2JgYjXBqua8TAk431dT5nv9uK674gkelxlEMAcRxAFJGoXsz88H8vsSvgfKtX0q5QAq5sCkDRiUyNwyrhgDCc+w6LUYOzkThl5TMNzAGkNG6mMY/e4R4+h6uHskfRRf65lghJENhpq5YpCVNwbZ+mOQDWEmrAOsJ6KfLdXWdSb6e0fjLv9k9Aueh4FhuRg8YzmGxqxjyK+AAUO8OUO55JTSWC9qaS1FC0GxpZrZcCoN5hLOrejShORR2AtHwqQAIsSSi8pUwHRfJw3xDNGihnRpYFfNVFyPXB2S0O8kIZ7uwPRAlhGY5VKnE187UGEd5HeX8TOu10naYgmsG78fsKgSq6rKcfjENjz7KJX0bR7Dn4JRRX+kNlFNiJcLmdltxwhfKf4vTvI8gkewBFTxfgkCa7m6YnRXvLwmTJITfqWWXI6v+xM8zVQDqXyvv/qugMp1CojMI8X7s+JWuaTyjYSRajmnCAPixAvRL7YA/Qnm3XNWY1xIMgwd/DDWwJxAjsXdd4/FcAIqPmLUWIwcwylBHTVyLEaP1cdoQ3MMN3OikvpgsAXV1MIHA638McAmCAMdQjHIdQYGSI7qE4dBgakYFJyJAVOzMTx6DfQzq2BO9bQgpHLVRtpBpYpXzUICGlVOmpusCItAbLeqHe5UUBdpHiKg9gITVdSG33Pie+7rWOSsoRoSLHt+7ipVPOETuBX4zGEl7It6WvM9c1FKUVp+x7mAv6fUtYfr5XvScK/UVwotVvcrO+HAfDlgaRXC8yuxtq0Dea07fxJtormKr7/b1PUhfHrrCxTsvYj/iSzCL6l2OkCVayH75mvtvDaM90/mewJpYhVdA6mCmDD357pU7yi6fGdQfDmGSHNQLIsrquOAGALJEC7eP2ot+s0WX4NfhefhrhkMv8GpGGHugqGikvSRY4wwaqwxFdOAgBpw3gijxxhg5Gh9jCGoY/QMMG6cMUbpW2KokRMGM+wPMvXEAHNCKqHfOpBhPxiDHMIwgGF/sGckBvrEov/4JAwLW4hxSetZtTPn1IZrDaTblSJKuBVX1+QJlq1M5T2C5UJVsyNwdssY+qVwovqKoooaStXuRHBdqLIueW3wL2jDjJIOuC1tQkgxC82CdtYAbQgoYg66pAlOK1rgk9cC2wU1cGK64bZkC2zn18GHv+PJ13Y5m+G2nCqf1QB7/o66osUTykEu0WY3/yu1iWouW3524yZKD13G/7AIkSJJE+IJ121g9iNYAwRMAU/eU2Byma/Uk3AyzPfjtJ+8Jpj9VdjWqGW/WIbvGIbtaIbtqHWqG9/AyLXMLfMwIHwl7pq1HHfNXI5+05bSl9GXYNDkLAx1DMLQcWYYrmeKMUaWMDKzhR6VVCDVuAbQ0QIo58eMM+HnZhhnYIGR46wwxMARQ0zcMNTCm0rqhYHmnFqyqLIhqHaiqGGs/qejn1s4q/4YjJy5BMbzqlmpb9WEegJgJ+GauaL1sq1UvG2Er4VqSGVlvmjHqeNShmG6Ld1maSuBZZFEYB0EavkuIXZizupONXRd1oJVrUew7eB5tB+/hLp9Z1C39xQa9p3Exu6jaDhyEXX7z2Ltlh5U7diPDVt2Ia9+Jyp2HEJR0x5s3HoA9TsPIa+uC4Xb98N/UQPMF9TDUraVJ4jlqt6fTJj/ns7IP9Q0TU3F+++jujHfjCklkBrVFB/IsC2uXgu8Ai0BlDxSFUBUzQGJLHqS6JxKrqkAJpgDFJTScF6IARFr0X8mYSSAA6YsoudgQGgWBk5agCFTWLBw+n8h8/Arhtu7guZjQNA8DPGJZD7phJGGFtAzt4ORpSOMLeiEVN/IgjCafg0pp2P5WsCUVMCI39GnjzS0w1BjZww2c8FAYxcMMmZ+KqpKRR1sHcD8NBj97UPRz1FAnYYh/gkYGbEcesklLAQrYLygFjZLmuHACt166RaqYwuh3Aqr3AaYZddRsRpgk01VYzFlk0uAmZ9aLt4C8xyq3mK+R3Ds+Z4jobbivMfSzWjcfwYVO09i0uJazC+sx4rCSqxcV4by5i7kbN6DlMqdyFy/HYkrG5C+pgFLihuxYA1D+MZm5JU0I2NNPcqberD3xHks2nIAZunVsF7YCIssFndUUYvl7ce0mNw5I6DBiqwfwT5jiK8+8TDuii7BXXEa1VSKyakO0K+UlDmqFD8CqQrpCSyOCOXAJKnmWcnLJU/msoOiCzEofA0GTl+OgZNz0Z/w9Q+Yi/5+yRjom8iwGof+XjG4yysKd3nOxq9Ynf/KKxJ3ec9Gf6nUPaIwxD4EI43sYGjpBAt7N7oHrBw8YWHlrCAdRwDH6psRVHFTNS/qKu+PM6SKMhcdY2SLYSaOGGzijIFGBJWQDqaiDjF2V/npQBZPA0VJ7SZhANV0oPN0DPaLw/CwBRgRsQKjY/IxJm4dDFJKYD5vE8zmV8FyfjVM0sthmlEJq4W1sM7aTEDqCSqnWTXwXb4Zk1c3InhlI2YWbcOMddvgml0PV4bv4DVbULv3DOaWd8A7YRUSs1Zi9dpCNDQ2Yfu+w5hf3wvbuaUwCy+AF/PzwMR1SFlSjA2b6rC+vAYbarcjaWUNnKNWoXnXUUSvbYZ5WiWcmJaYsSawZNi3XL7jX6tN9AYBbbrwJH4ZvZ5gSlGjgfH2EK+bl9xSV/BIvtlPKaYoKAFNIawJLHYiVlMhF6PfxAz0903AAM8IDHSZqgqUgTbBrKhDMMA2BP1tg9DPxh/9rMajH9XsLrq8HsA8sb81Q7ulN8ZRQc3tPGDv5gtbFx84eQTA1SsAFtZOMDK10aqppRbUryGVMD+WkI42smIuak8gmY8qQF1VyB9i6oHB5n4YREAH2YWw4qdTSZU7TsNg90gMDkxW7aZDBdZpuTCIWQOD+AIYxhXAJKEIFmmlsF5QpaC0WlgFm4XVCFnVgMrOg7h49THcf/UhHD13HsfOX0b30QtoYjiPL96K9hMPYPYqwpu6CMXri7Cpqgp79+/Fs88+ht4T5zBpQSXsmQr5UcUzVpSgraMDXb3d2LNvD17+zXPYdeoSApPXYM/JexE6vxzOSeswib8bV7Qdyxp3YU3XCSzbsitKi8mdM6pom5axv90Y4SXIN5x7GKMyqvDfc6SpR6uWWhVV4V0LqG5emogk95Qwr5Q0uY7Ll6Lf9CVUyUT0c56JfnahBG0CCxRvDDB1Uwo2QN+R7oz+ho50O/Q3sMUA+kADO07t0U/fHv31HTh1wlC+1rdwhg3BdPGeAGevCXDyDIC1owdMLexhwrBvaeOspoYm1jAwtvoKVgUsFXQUAR1h7IhhDPMDud5BRi6E041wemraS20mYAjDvFJRaV91IKiipA5TNGrqEYHBXtEYxiJq1NQsjItcAYPIPBjNyYMJ1c0sbSMs08tgP68C7jn1cMnYhIVVHajZdRqV3QeZW57AmubdaDlwBgcvXcXSzbtQu+ccMsq7EJKah9xla5CRswzLC0rQuqMNh86cx/zSDgSxQPJLXY+UFVTPmnqsKi5BYWkpzp6/gMq2/YhdVonazsOIzatH1PIKFLbvxqrGdly+ehUXrl3jCXHsVS0md9Y0lP0dpgX09DOvQI+A/meU5KBfq6YOzG+4tjrXtGWKilZhMPPXIZOomI482GaeGGjooKAbrM9CRc8Cg8aYY/BoMwweZYZBo8wxaLQxBmp9wChxEwykDxphhEF3G2HwSCOM0DODqZUTHNz8CGcg/IKnwsMvBLbOXjCzclQqas6pqKioqUAqgEqIFxUdS0BHG1tilIk97maYH0j4RUUH8eQYxOlAKulgC18MsfLHELtADLSfiMFS4TO1GEiX+cF2fE0f4jQZoyfEY9zMLBiEL4H5nJWwSCyAacI6WCSvhxXdkSmA5dwKWKSLU13nlTItKFfK6phbB4fcakxgXtl26CLC17fCm+lBwpJSLM/fgJJNTcjb2IC86k4k5LdQYVswcUE1IpZUIatgE1YXMUetbcKK0kZM5noDEgvRefgCAnlyTM6uQmxpK6asqMWc9c2YW9uDORU9P5li6WMNaX+jCaBffomn3ngPpsyj/jeGFTfDvKrY/xRMnfMzFeqlEBKA+XrE7DwMs/LEMMJ29wgDDL1bnz4Ow0aMwfC7x2DY3WMxdLgeXaZjMYSvB/P1YM7LdJCapw8ZjcGDR2DI0JEYRxU0t3VhWPeH38TJmBg2Az7+k+Do4g07qqitgzus7VwVqKKiAqpORRWkkqOymBppaIkhY4wxTM8cQ1nZDx5rjiFj+Z4e5/VtGPKdmU54Yri1L4Zb+bKA8qJ7qFRA5a4GTrjbwgN67mEwmBiHcSEpMJ25AJbRS2FKRTWNyYMpQ79xYjHzwI2EsxwWzFWtqaiWi+phllUPKxZTprnN8Fhcjc4TlzClsAVeeS2IKmpm7nkCh8/eh4S8GrgnlcB/XhUCKBbBPB7jOT97WRV69h3HQ08+i5gVDXCI34CweWXYTlUOnscCKXoDzOdWwoJunFYDw6wmmCxtxbichhItJnfOCFemFrW/yUQ9xZ5+7U0EMJn/RXihUsfvBFRcINVW+4NSajAsjLmaviWGEzjlQ8fg7mGjOT+SgI4iqKM4PxrDlPO1TPn50GEjCaxM6YRy8JC7MWjw3WoqRY6lgyu8AkMwPSoe0yNiEEhQnVx9FKAOVFJxK0JsQSU1Y9gXOFWhJKGe09HMS+VkGDRkJKEfjUFDR2HwsDH8TfrdfC0nCk+owaNNVVPWCD0TDB1jiqGjjLjNPNFGGvD7ehhORR9jao9RFm7Qs/eHge9MGIWlwXBaFozCF8OYId84fh1MqaQCqDXVz5GA2uXWw0JAzW2EOYuoKfnNqOo5jvCNHfysESGrm5FT1Y61Dd0IWlQD1wV18GI+G7piCwJz6uCTzWIrpwalW+Wuzj2YsbIJzmlVSGS+2bT3FEJ5ApjHboTTfBZpc6nghFoulxrnblEdXLSY3FnTMvY3mQ7Q19//EFM3tKkeTXI9XIXx74JUfa65ujSQeejIyZkYSUBHSgP6iHEYIS5XekbKvB5Gio/U42s9dTVoOH0YAREXhdXAS3CHjSKso5SCCmjWzp6YNGM2YpIzMDs2GeMDQxWUziya3Dz94eLuBxsqqZm1IwzNbBSYAqkuFx1D6NT6CP0QQiongfIhI3gSDceQYSPUySHwyskynJ8NHyqf3c1tGcHtG4W7uY2jx4zDOANT3C2XWEcZwsBpAgwC4qAfmg6jWbkEdCWM4vNhmkQVZRVukUFIGfItROEW1sBEKn5C65VbhW2H74HP4s1wTi7E1LnLkLhwJbLWbkTkigp4pBbDLbUM7nOr4JJcCk8uMz1zLT8vRcbq9ZiSXQTPlBJOK9B7+gF4prOgYt7rwHTBMpm/mbVZ3RFgsmgrrFZ3/2TC/BUtZ3+zXb91CyHrWvC/czZoQrdcjvw2MHUuCioVv3q9CQZhc5nzWWI0gRjNcDpaz1hd9bmbSjSKB3TUKH3lo8eIG2DUaL6mK2AlBdCqq4KVLlBJXuk5PhhTIuYgZV4O5iSlw3fCJCqotwLTl595+0yEg4sXUwFnGJjbwlBb2WuqewuMGWus1jVYqbPAyBNAqbecDCO/UnM5QeQzeX84wRxBML86mfjZiJFjMHo0t5uvR3C79RzGwyAwjiqaAZOZOTCOXA5DVvlmVFDzlA0wTd3AkFuKicvqMJ955dKaTiSVbUP4mlpU7zmNiUuqERCbjfUlG7G5ehO2b2d137sHc9dUw4PV+/h5VNKEDZiTW4itbTuwdetmXLh0Dl37DmPawhIkrKxDy94LCMqmQqdUwDarDhZplTBlcWW6pBkmVGubXKYDi+tPaTG5c0ZAA7Wc/Q2m0dD3rl/H3C37GOILCKiE+G8pjv7M5TKmtJNWwSg0BcbMA8cQTF27pDSiC6SjGTZHcTp2rLihuuozSiAdw/mxBlRdUVke+JGa6+wCilzWtKYyegWEYAbDe3JmNmZGJ8BnQihcPcbD23ciAieEwZ85qby2cnCDEcO8AQGVPFTTHspqXs+I6qhRZJVOCIBaxVagal1OkuH8bd0JIvPqur8Aytcy1WznGJ5YhtB3DsTYifHQn5wOs4hcmEStgFH0KpglFTHMl8CEgJoyH00vbcbeY2dw3wMP48Q9D6B4225s7DyKactZMEXPx7rC9dhUU4uuri4cPn4cS8qb4M/Cx5e5pHdcIZJzV6OjowMH9vbg4Ycu45GnnsDiiq2IW1mNtiMX4M90wJwqarmgClapFVTQRtWPwGVFPdZ17EfF7p99P1HN5c4/EtDs1sOqV73klQrSb4VS4xp1lUKpEsOSK+A2Jxs21vZUPStVoIiSCqBydUdgUW2UchlS34RQyvV0I4wcLa5RUzn4AqWkBJImjB5nDGcBMSAU4bFJSj2j4lMxIWQavKmcEyZOwaSQ6ZjAkO/pFaDCvKmlA4y0lbymUGIlT0AlpAuESj1FJbXzakoF1UGrA1IHpSioRkV1rklL5JKqsWsQRvtHqo4spjMXwiQ8B5YxK2ARuwbGMWthzlBvyqLJa2EZkkq2Yn55BxZt2ok5axrQc/IyAhZuwviYZUjKXoFlawrQ2LwdG+u3Y3ZOBXwJmudcAsqCaXLqCizJK0BFeSl6uruxc/9RRLNompVVjlOXH2OasB5maWWwyKqGGVMDy5zNMF68FS7MVVdu34Ojl6+i5+K9MVpM7pxRRbdogPsbTO7apOe2HsNd2u516lLln0B5u6sCid6PuejwxDK4zUxgkWINQxMWKdL+KCBSOcUFToFWQq4AK6+Vqo41wQjCKHAO14IwQjqAMCUYTbBsqIrjWRRNDo/G1IhYTJ4ZjQnBU+EjgAZNxaRJ06miBNR3AuydvGBGQI2ZhxoaE1L+ngEhlRNgiMCohVPnAqBOPcU1qqmB8nZQxXWQisrLa/k/TN0mwCQwCmbBCbCYkgYb5qG2s5fBNjoPNiyY7ONWwz6xAA7JRbBKLoZdQgnsEjciaGE5tu2/gNl5TfAhxPPya9Gzaw/OXrwH2WVb4ZlWCn+G54m52+CVyTA/dwOyCyuwvaMVXVwurbCRJ8QKpK1rRvOekwjMYvRKZhXPfNcktRSmzHeNFjXCJKcRzsua4bm8GROK23/mbaKM8jeYg5YduAf/wype+m9qbq/4djiVU2EF0F/FV2FsSjmcp8bCzMxKqeQYFidSPX/VYP4VoJoKWxN+RWUJKMPlSIb7uyV8KiUlsIR0JMO/jb0bJk6ahsi4VFXFh0yNUFW85J6TwqZj8uQZmBgURmAnqsre3MpJ5Z6GJrYsaPg7VHFZ32CGeB2IEuplqk4KLaQ6OMVvh1JclvvK+XoUFV7gt/QKhnlgLCzDUmE9fR5sZmbBLnIxnOJWwjVhNbznFmB85nr4zS9jGK6GH4sYl8xSRK9twLZ9ZzF7TRMmLK5BakkL9p+7jHsffw6x61sRsoa+eiv8crbAJ4eALWgkuF2496GnsOvUZYTnbYVZZBFDfAM6j1yEe+pGWM+vhjlDvDGLKnMqqJmMiMLvmlJJ5fYVvWU/kUufVNG/uU3085s30XLuKv5fhCYHVZczlX8LnOJUWAnzv0qoxlgqQ2BUKiwt7KCnzT8FUj19DYwCqb6xJUOwvWpMFzjFdQCP1Zd0QBP2R42RFEByVmOlioFBkzGXBVLC3HmYE5dCIKfA1y8IwZOmIDR0OiaFToV/YIgqmsytnGFixjBvaqc6jejpmVH19L8K5zogxQVC3WsdlH8KqAApYI6RvJknkW5qyJPAyisUZgE8KUOTYT0tEw4ROXCMWgSX2JXMH4swcUEZAhne/eaXw2/BJrikb4QzQ/Gk+SXYSyD952/AxHnFiFm2HnNXlSA5rxSTuLwXq33fnHq4sRp3Zj7pnlmLpPytKKjrQB4LrUnZdXCIK0NU7ia0HzwP16RS2LAwss6qVSHegkWTce5WGCzcom5hMaOaykgphllby7SY3Dn7e9tEO+55FGPU5c4NhPB7qnj5nJD+kiHeZO5GTJ5DQK0cFHg6hZRiRQfiOAIqVbYBD67uGrp8pmAm1DpYxxlaqvdk3s7JExMIYtq8hVi7bj0W5i5DEF97ePrAwdGZU28CG8KwHwpf/2BY27nD3FJU1F6dHOMIvoCmA1TA0wF6O5wCoWY5qqgsw3lRc8mNVVc+njjSW2q0AMp5I3NHWHmEwcgnEvoBMbCUED9zARyilsA9YQ28kvMxYT5P2nkbGNI3YPKSSgRmb4RbfD4mpRaiqu0wUou3I2VFOfKLS7CpdhNaO9uxuX0XopdXwoknvFV8KRznbkLMuiasrWzA5pZmbO/Zg5VVHXCLLUIqlbiifT98qZzmPGbWC2phmcpiKbsR+tlUTiqvaU4DjLKbYCn3WmVt+XkWS1LDK2cOev7p32JsZgX+K2YjBkp++a1g3u4M8XHlsEnngQiPg6WlLZWSUDKUG8i1cbrAKLmgngBqQUCpska3XTvXhXyd0spU9ek0MoOjuxfiU9KxfYcMH34AS5flITklDRGzoxAeEUn1nIyQSWEK0oAJIXD39IWlrRMrea1KawGVpqTb1VGnkArO0QzdAiNTgbuptsOl3VZeE0ZNSwNd4FT5tExNYWTmBEu3UIx1nwE9nyiMC4iHcVAKzKfMh/nUBbAJXwIXVvQezEVzSprRc/AMalp7UNqyE/GrNqFq+35EZRGyhcuwfn0Rq/TtuP++83j6qceQX9+C8RkVsIkuwpSsjVhfvwWd3Z04ffIQfv3MI7j/oUcwr3Q7ZuWWofXgOVjEFME8sxJWWTUszKigDOl2uQ3IqOnBkqZeLGrciekbd8By+bafZ5uo1PDKCei9v/kdhrJyVLd9qCr+ewolVvDSR9Q+oxzTZsfD1sZZASmdiqXR3JCg6Dp1GJhYQZ/vCaASIgVQTVul5rKkbiouQJtZ27NACqF6ZqGomIVCziKkpWcgLS0dKakaSKdOm4HZnM6cEY4Z02ciOHgSAujGlnYYa0DYCZQORJ1/lU+KKzgJpDbvHTWS+bC0KlAlNcouUHJenycMCz85eUZT7U2t3GDhMQWGVFDjCckwD5tHOBcSzmyYTcmG5YxcWM9czJx0GWZll2IDIals3IHK7bsxNacUbUfuQWh6AYIjE5CckYmiDcXo3NmNzt17kZ5fBR8WO05xpQhMWofF+RtQ39CIHZ0dasz8ExcuImZ1I+avb8GmrmOwTy6DSVoFLFkkmXNquHAz/Fa1oPnQWew7cxZ7T59G2Z4TsF3ShIj8zXe+TZSs+Qt4f42Jeoodf+w5VoG1+I+I9VoIv78t9P9iyjCRyf6kaZGwsnZkiHVQ18ZNGe6lI4e4DlIjhvhxZlROgipw6j5TUNMFWuWswm3sXZh/hiEmNhGxsQmYMnkKZs6chRkzZiGIEE6YKJW8KOdEhISEYkLgRAVsRPQceI9nhW3Kgo2gqbZVcS2cuiYtXfiWiwcC5QjV5CV5sLQ6CJia1gbJj6Vq1zijgOTS1gTUcxqMAxOYg2bAgqppQSgtpi+CFcG0iVhGOJerat4lbi28EtYiMHUdPBPzMZV5ZkXbEcxathkeMUsQlb4IFZuqsLW1C2mrKhGcVYHxC+rhPa8ergzZAcmrkL1mPSpralHTvA0ratrhOGcdllR3Y2PXCdjPrVBgWjDPNUuvgOmiJphRQScVtWDm+q2ILt2GSet3wCCzCqt5gmgxubOmaPtrTAvo4797HdY5tfjvaMlB/zKcmh7zmrbS/vHl8J1XgrAZkbCxc4C9owesbV2pgE4KVLlOLl3iLFhhmxBGYwJsyvelSUigFf9q3swOxiaEl6Hf3sEVU6eHIzYumWDOVqF8MiGdMCEIvj5+cHFxgzPdxcUdHu7ecHFyg5+fP0InT0ZQaBg/81SACoQCpCipDkwpdqR9VG+csVpGFT/a8D1WFXZS6JkoOOW15MWi7HLyGPHksrD3hLnvLJgEzYVF2HxYTGZon071nJ5DUBfBevZy2MesgnPCOk7Xwjp6JewJqnXUWvgnrkPHoXsQML8K/otqEbOmGmfuvYzD9zyEmWuaEbhyG4Lz2hC4vAU+S1swYVkDVtW14/6r19Bx+Cxm5m+DZ1YDFla0o/nwRZjFFMMyeSPsFtaoXlQ2S5thLvf15zRi3Pw6WDPkm+S0qCtMhTsO4Noj134SbaINiri/0n734YcEtBq/jC39zuvwkpuq6/ByrxHTAL8F6xE2ZSbBZPFgowFT1FGm0qlDehxZWjt/9Z4CllOBUpeL6gonI1NbWLDanzBhEmbNisL0aRFUzDAETgiG33h/GBmZYNCgIRgyZBiGDh1OuMap1gM7W2c4O7vDx3c8fPwD4eHlp26eU0UOXVeBiwuY+gZURrrMj5Oc10CAlCJN0gyBUprGBFYp9jQN/7KtpvwtW7fxsPCbBbMQAipwhmWq3NN0ehZMZxJUCfFUUIfY1bCKzoNdbD4c44qYV+YztBei4/g9jDq18F6yGbMLGrCpcx8WVbUjeEUT3BdvgQfDsWcuFZQVvBeLn7TiJtT3HCKUXfBcWA/rlAqspwqvadkL25hCWCWXwnZeFayokjaLm2DFdVjQLZdshxXdnEWSOav7vIZOvPH7372uxeTOmpa5v8peePNtBBW14hfhxd8JqKa6l8ucmiIpLJcVa9Bkqp47FZMwUjVt7d1gx9eOjp6suD1Vm6bqGkclFcUUSMUlxAu44rpwb8zcVdo4I8Kj4enuBzc3H7ixYLK0tCKcgzFgwCD07z9Quczr6RnCmCHYjieIq6sXnJw9lIIaGpkr5dQppvg45pMCpoGhmXJ9qqUBl1NuLGFcuutZKSiNTMWteOJY82TStD7Idtp7BMBm/GxYhbB6n7KAVTxVdOp85p+cn5ZDz2VFvxKusatgG7kCVlRU26g8QpqP5IJGbNl/BjNXbYZXympEzF+JvA2V2MQiKiG/Ds7JJXAjTD7LtsA7ZzPCFlZiSUkDGrt2YXHpVgTPr+A687GmaR8K2o/AJGIt7JL53kKqZRoBperKABTjsupgIuOdZjXBlO8ZEuCCpi58/tn1n0yx9Ectdz/ANCH+jfc+ROj6dgJa8mdQ/rlLI30FhidXY8LcVfD3D2KId1WKaecgfTXd+NoN9nbuBIdTvmfn6A57J08Fqq4fp+SsVlQ/jdK6EVpRWAcEh4QhNiYR7oTThcC5uHgQJiNCOUBBOXCgBlTx0aP1YGZmAWsbO+bB9rBmLmzNdRsaMVQTToFS57fDKVDqy5RgyrwhldyEKm5GBTcxt1FuZmHLqODIE8wZZoTUysYedu7+MPOZBWsqqA0V1IpwWk1bSDVlLhqWxflFcIlaAZ/4VZietQGLK9qQWVSP1Y27MWd1LTqP3QP3pDwER2cgOjoGmzZV4Imnn8DFqw8jKb8ZrswrXbM2I3RFHeatXY9N1eU4c+YYnn72aWzbfRJBaeuxorod63tOwWrOetikSKfoOthkVMOaaum0tAFTC7dhyrqtiCzvhEd+Gwzmb0J+czc++ehDqTmqtZjcOeNGpCnqfrB9iU+/uIWQ4jZtj6bvbqjXXEUqx2AqaER2MQL8J8LVTXJDHzi7+ioQpUOxI6cuLt5UNh+4Mld0cvWEvbPGBUx7gZYwW3PeioBaEVwBw298IPxZ7Dgzt3RwcKISu8Dc3JI5ox4GDx6qwrxMR4wYBQOCa2JqRoAsCKolLAiSBdMHfeaQEsIFRimajAiiqKpcjjUUKL8C04K5L9WSbmphwxNEFN2eoNrxJHLgtjnBwYknEE8cV1d3OHgHwtBzCvT9omEamga78Gw4zF4Eh8ilcGJYd4xbA+/UQgRmFCKvqhN7z1zG7sMncPTiVSyrakFN5xH4JOYhYGYSZkVGY1X+Whw8chAHT57DgtI2uDGXtEssxfi5RchamY/8wlU4fHg/nnvuWearV5kmFKN53ylk1e9mblsCm/RKWDGnla59Zjn1mFq0DWevPIbHnngaR+9/ENH1PRidUYqy9h68/97b6mhrMbmzprbkB5hGP4E3P/oI8fX78IuZBYTw2y93SnjXhXhR0LFzqzFneRFCQqdQ6byoeOMJoh8cOe/m4Qdv3wDVPunm7gNPT7o3QzbnnRiCJQx7+wTAw9OP814KVAcnd9gSCFFOH29/zosiEhpL5n8m5kopjQyNWUgxh9Q3hIkJweR7Bpwfp2+gclQjAmkmoVnaXjlvbGJBuKmGoop838TMCqZMI0wYuk2pkBYE0ZxTcVOtaloQUHOqsZUdUxGmDracirvwBHP1DYaBRxhG+86G6WSG+YgsFkQr4DE3n5V3ETzmlyNwaR3c529AfHErFtX2YH55O2YuqUFGUaO6l8iP8PnHrcD02HmYl7MYRZvqkLJ6E7ypjg7MKe24713jN2BS0lKk8fOWtm3YdeiIuiVkIr9b1n4Ia9tPwGDGGipoGaykN1PmJlgsa4HL4jqs6z6BzQfPo+HQOQQU7YDFwnI09ezHh++9o461FpE7a1TRC2prvsNUI71mFn/89DNkbT/MEF/EHFTuNSKISkm/Cam6DMoc9f9iymGYXoPUNZVITkpmURONGTMjMHnKDMyJSVAN6eERszFjFqvwkMkseGYhlO/5+vqzmPFXoI5nauBHpXR184S7hxcrcgLAyny83wT4egco5bS2JjimzBH1jVSYH0cYBVBDgirqOVaPlfnosdAbM475qD7BNVYqak4XSC2pppaE0JpqaGFpq+atmO9aEUJrqqUV31cur3ly2EgOLWmHgyvTFE5F6R1cYGfnwu1kPuwbCiM3Kuj4aJiFzoVdRDacY1fAOWktw3Mx3DI2wiurkjlkFVyZMzqlbYAnQ6z93DKEZW9E79kH4J1ZDt8F1QjPLkT7zl2oat+N8ZmlMI8pgn3iRjglbeL6NiEoYwNKarbg5JlTKGnshHfKBthFF6C+9xgWNuyBWWQhQ/smmEvjPit1KY7UPflLmmFMVbVd1ACj3GbYE9qmXQfw8fvvqmNNNu7VYnJnTW3N95oOUSB7+wHcFbsBv4wr0zYnfRNO8f7qMmel6k0/LKEM0+cuw4J52chZtAzZuYuwdNkKLF+Rh6ycHCzIWoiMzPnIzV2sfOHCbGTR4+OSkJychsSEuQR3JsLDZ2Pq1OmqsV3aO/2ovNJ9Twei/jgDjCN8AuAYgjhmjB5GjRrztUuH4pFj1XQk3dTEChZmVEyGbzOqpRnV0tyC79GtCakVc18b5qp2BNDR0Q22zFnt7QkkQRRldxGFd3aHK/NfV1cPODm5wJ0pyviAEHiMnwxTz6kwYIg3DkmC7cyFKrw7sChySlhLwPLhQdg8F5SrDiI2KcwTEwphNHMlMtY1oXLHISplGWziSxGdV4vD9zyIje3HqMJlcGBod6UiOiWWwSV5E5W2ApupuFcefxbZrOKdkqtgH1mEHUcvIrG0HSaR62CZLj33K2E5rwaWi1vUQLvGuU2q04j54m0Yl7MV1tmV6Dx0DNc//UR7pH9WYV7TJ/TTW7dQevgS/nv2OvyfKOd3VPIS/n/JHPRu7sBJqUuQnr4AyanpmBMbrzw5ZS4io+Ygek4s1TQOERGRiGS+NWN6OIKDwjB9agRCJ01DIA/4hMBgeHl6EwCqJ3M8S0sbQmn0DQgl1xwxYiTuvnukmpfp8OEjMGzY3Wp6t/YznY8eNQ5jxxgwZ9VArS/qS+U1ZUogaYEJw76VlSirLWxZmDkzX3Zmnuni5g0vnhze3r4ICQ5FGBV/4oQgdeKEhk1lRIhGYFgUjBjijSfEsoJPhwNDvFtCHuFZDZe0IngtqCCcFXBM30jVLIEDFdQudQOsYtchZU0jmnpPwC5qLbxiCzFnQTGWlW3GguJGTMysxHhW4t5plXDhfnVJ4b7lehYXN2B9XSvi8mrgQnX1TS1HTe9xZG/eA/1pq2Et9yLNr4E1lVSePmKU0wh9uumSLbCiko4jrG6LSrH72Al8yiJJZ1TRFC0md864ERXa7fkO0wT6z2/eQu2pB/FfkcXaIunbwNS5polpRHIFQuevQSQP3OzZ0ZgzJ44eSxg118unz5iF6dNnUhXDmQIQSuaqAQzrnh7j4cbCyYlFkhVDroBjZMxKW8+A4VrAHI1RDNtjZLQ6vh45crRygVPdiEcohw+X+4Y0LvO3A6rzESNHffVdAX001zmW69OTQcaYsxrwRDBitW9iZAFL5p5ysUE6osiFADcqp5w4fn4BTEkC4B8wkSo/A54TphPQyapIkr6g9uELGOKXwTm1AC4ZJXDOLIOjNAellcA9rRgz8+owgxX5xEVVSM5vRMeJ++HLNGBq4mKkpGYif10eevfvw6aOvZi9rAHe3KfOVFL3pCLMyV6Lus2bsZ9F1JbuXsQtLYdzTAF6Tt6PGau2wCw8H1bzamEmhZIUSYRybFYtDBdWM++sUYOR6WfXw3NpDfYcO44b179WUNoHWkzurGk35jtNF+Rbzl3D8JRK/D956ty3gikud3NqQvxghpzg9NWImBWFpMQk1WwiIAqQGlCjMWlSGIKCQjB58lR1WVKqcy8WRgKnXL+XcKw/zpAVtz4VT6AhrKyuJS+UvE+adqQ6NyZI4/RYDI2TvFOgFVXVqKm6h2iEhHjmoioVGPcVmBLyRxLMkYR+pEBKl5NAs5yoq6EqrkxYhFnZ2MLOXooiOn/XwcGZhd14+PoFwsPDV3Xtc50wBUas4g39Y2A2eS6sWcU7J66FY3IR1XIjbFM3UjE3wjqpEKU7DuPClcdx9OwllLcfQOn2fSjZcQzhy6oQmZrDqDMXG0s34tTJ49jPKj5+7RZW75VwT2GhlZaPxAW5qKmtwoNX78PjTz+mBg6btbQKLfvPI2LZZhhMXw2LTKngqxjiq2Aqd48S0PSqTmwg8Bt2HYf1ks1wW1yNkxcu4Mbnn4l0ao/2T6dYelO7Pd9p8tyPww8/jcFxJfi/2O9T0HL8SgAlzN6JyxAfn4jMjEzVeWPatBkK0ijCKVOBcsqUaSrH9PUZz1DuATc3D+aADjA0kOLHVOWKUrzYsEiRMOs3fiKhmMiQ783cUAoVJ5ib2VLpLAm0pYJKwrcArSeXK0dTeccYcl0mzDOtVZogYVzfwFipsAAqiqyUVPJVgZQpxNix4wi8vlZJTVSLgCqoWDDZE1JnZzd4evrCy9ufFbyXykHdJkyFvigoAR0XNhfmzD8tEgpgQTjNmQta0+3kzs7YtUgrbUNV9xE07DqGQsKZV9+F+j2nYR2xHNNTl2F6TCKyFy3F5i3bsax8O8N3GbyYU8q1+ABW61EZS5C3di32HdyHex64ijUNPZi2ZBNqeo5j+pIGGIQXKPW0SJcheGoZ3uuRUrsLbcfOoYshff/9V+GTvx3+y6tx+t5L+OLmN4eWJRt1WkzunHE7kjSb890mPZrueeElDInbwPAtlzu/HVLN+5pmpkGceqauRVxcAhLikxSE0qFDih6ZymtRTvHAwIkqt3NxYTFCpTI2MqUiGqliRRr6J0+ZiaDgKQieNJVT6Uo3Fb4E1d6eFTTzRCtpQKfaGkv7pXTiGGeiXOYNDTSqa8EwbSfLS8HD6luqdFMzK4ZzQiwF1liNcspUB6gGUiq3gRHXzXAvHUJMraigouDS9umhbQrzhP+ESXAPnApDz8nQ858DvaAkmEzLgsWcVTBLLCSkZbCVW4wTimGXWMxcciPMYtbBgTmoe3a1uge+iqrmTIBDWeVnrpIhb9pRXLsNExdWwD6pjJ+x4k+qZF5biukZRSirY4g/eAA1VOCwrBq4zinArjMPIDBzE4xZL5hSQc1SpctdA8YtrIfLii2YsqFd3aU7sXCH6rQcwGLs0uV7eZBvaI/216bF5M6adlu+3UTxpU6inXn8BVjyLPyPKOnRpOt29004lUuY52u5q9MzZTVmMd8U9ZwdEaXAlMp8BqvxmbPClXoGU0WleUmajUQtDQ1ENS3hSJAmh81Aakom4hNSVU4WnziX34tS1+A9ffxh7+gKW1tHpbjSZikQmsqlSEOqrwLTgu/ZqWYiAdPJxQOOTu7MJeUKloDqCAsWREYM4foGTCUY/vUIpZ4qoKjAfC2QylSaskzkipK0AlCFpR3WkTmpXD6Vq1nSMdozcAaM3adBzzcaJkEpcAjPhXPcargyxHtkVsB9HhUwqw4eC+rgwMJFrvQ4Z9bBOG49Vm/dg8KOg3BZUIvxi5uxevNuXHzwcdTvOg9P5oye2Y3wZBXuQEV0YBUflFGBnmNncOWZF5GxYQfs48swNWcT2g6dR+TKRugxxKtRRQip+cJaGC9qUl3uxsyvw5h5dTBY0KCe/xS2ugZXHr6CWzcZ4v/EtIjcWaOU/+U2UU0Rr+zJ378BM1aO/xm9UdMOSpVU/ieQyvQuFklDUqvhlVmA6PhkRIVHITqKOSjzT8lBZ0yfxcp3MnPQyRjPvNNWBlcgUAKmsyMPtk+gquQTCGZu7nKkZyxEWvoCBWrY5BksSgiD13g4M7SKKqp2TF3bJdVUVE5AMjVjSFdwapqIxHXX4wVSed/WTjqxsBhjLmtoqFFfPblGryDVVwoqLs1ZcvIYEn5jU0uVLgikdgz3Aqr3+ED4BIdTQadDb3wsjENTYT4rC3bxa+A4dz2sk9cTrnI4siJ3mF8FK87bMze0Z+VtT3VN37gdtfvPwDS1AsGrtyOnVO7mbEVaQSMCCbTH3Gq4pVXDWeaXbMcsFkIVrXuQX9eJkPnlsJ5TjCk5NehloTVtcR0MZxbAPKMalmmbWBQRyGwCmtUEY4JuKj2Z+Ho0YZ1d1EhAr+GLW59rDvRtRjYuazG5s6bdnj+3r3NmvPDWOzBbuAn/GyNP2tBeNfq25iZR0Xjp0VRBhViLSOZSkRFzlIJGUkmlwX4aAQ2Te4aYS0pjt7RHSlHk6zMBEVw2NjYJsyNjERefgkWLVyiPio7n9yJY/c9GoIRTFiZy1UmU0NqaxZKFjVYtHRSooqiWUkwRQoHSlfmruMApU8kbNZAyReD3BWQz6Y/KXFYglRRDo55SLDHMyxUp7TDiBizKpDiTdMTWlr/BkC+XYL2DZ8DEbwbGBsRi3JR0mEQvg2VyISHZCJt5FYgoakVKdTdiy1qRsH4LEsvbELaiEr5ZZVhS04aVtT1wS12H8EXrkLtqHeobG9Deux9ZxdvhkVgGB6qkQ3IZ3BeUIXZNKSoamlFa3YS05aXwSy1CQGohjt//GIIXsDgisNJIbxxfqK4kWeY0YAzV15DKOTq9GnpZ9dDL3oxZhZvx2OOPao/yn5sWkTtr2m35Tnvi1dfgs3arGqPpL12LF2gFXnkyx//GV1Md1qnbguVKUURENKZyOmHiJCrnNEwInESwHFl0ODAHDWHBNJWVfgLSMhYgPXOhCunz5udg8ZKVaho9J0GFd1HQAC4vuZ+CTHsJVMK4gpJTufQolb5c7ZHPpdeTu7uvgloHqkCrAVSTj0qo11yrl4JLk2qMG2eoqnpRUwN96X4nLQpUUxZOcgVLrmRJoSaN9v7+IfCdFA5j3+kY5RuF0aHpMAxfCnMCYiA5Z04Fmg6eR9muE6g9cBY7Dp3GmQcexulrjyJ3E3PNbXvph+ATvwIzElIQlxiDxuYaPPjg/djcvgd+VFxb1gD2sesRPDcPqQuzUL+5GhcunMGpsxeQml+PqKWV2Lr3DCJWboFRRAF8F9Uiv+0QVrfsw7z63VjSsgdJVTsQSbWeVbWTeWkNYovr8dTTT+LWLXlkxp8bVTRNi8mdM27Ed7SJamT0tQ8+hH9+C/4z8vs6LWvy0F/FM7QkFmD6nGSkMMxHRsZh2tRw5pwsdoImqys1coVGiqDIqDhEzYlHRmYW5qbNR1b2EixemoeVq9dh1ZpC9f4cKvGs8Oivbid2Z4i3Jxh22nzSUXpJaa+NS57pJO7MsO7qqeD04vIC9e2QynLyXfmOgC0uCiyKLumGoSGVlECOVcrJwksKMNXzSTqhSOFlo4o0N8lBpT00NBIWAbMxdvwc6IfNg1H4MpgR0NFxRXBcWInspr0I4T4MLmAIr9+Flcw7N/SewIJNXVjEqn77icuwjV2Nqam5mBUbh9WFa7G9qwerWED5UQVdkugskIJT1yBz6UpU11Xg4qXzuPfhx5FF6ILT1qP76EX4M9/Vn10An8U1aOXr8t33YMX2g2jiSXH44mWcfPBhVB27Dy7LG5BY2oxnnn9OHeO/YD+PNtGPbt5EAHeu9GiS8P1tcGpc06Ne3CytFNMIaPjMSEwOnc78M5IhPlI1FYn6TZk6i6E8DonJ6VhIKJcsW4WVefkoq6jBuuJS5FI9cxne586dh+SUDBX2Q8OmYzxzUFcJ8VyHmhIQJ2d3hm+NKooLgAKkdFCWfFU6n0iTkMzrIJVwfzukOlCl84iEe8lLjYxNVTOTgGkwTualO550bBYVtdZeFnVSDfZeQbNg6D0do8dHwyA0E0Yzl8BIRl9OWs+KupLFSg3sFjfCaWmzGi/JnpW3RfJGjIpYjfVth1HUcRSOVEq/zA1IWrQGm7c2Y101q/h5rOBZxbun1sAtpQoeSSWIZxrQvK0Zx0+fxFbmrnK1KTR9A7pOXoLv3DKMCy9QnZVD8ppgyyLJdvFmTFjbghnr2jFv8z7MKu+FeU4d0iqa8Pxvn9Ue5W83LSJ31qii39km+tYnnyKt5TB+EVH4A64mVeKXseUwSSnB1Nh0RMyKVGF+1qzZKsQLFNKwLYDOiU3G/IWLsXTlGqwtWI91RRtRVl6NNfnFWLGqQEErl0tFReU2D8lDJ0wMhTvhE+h8/aRDCUGlS48iWbeA6u7BsO7hTSg1cOpcABVwpUOKuIAqJ4uEfPmupAaqRYBuzkLI1NSCRZE5p5rWAVFWaQaTMG9kbKZ67cslUS8Wdl6TZsHAewZG+83BmOA06M9aqka2M88sV/cGyVNC3Fa10ttgzILHhLmgJdMhvamrsLRmJ8q6T8COJ/h4VtvrtnThwcefREnbMTimVsI1vQ7e8+vhkFTBin0jUlbX4cJ9D+Lcg4+wim+HZcQ6xBDGxn2nEbyQuWZkoargjVJk+Jt6GOU0Ydy8elbvm6HH9w34G+OyapHFHPY3L7/AQKltrvkWIxt3vk2UGxGv3Z5vtU8++xy5O46qp84JoJqudd/uUs3/KmETxlEdQuLnsWqfhqlTpqlmJen94+UbiCnTZ2NG+BykpGVh8bI1KCopR+H6MuSvK0E+QS0kqAX0NXwtKppElZ0Tk8Q8NgJ+fsHwYUElSizQiSKKOorLvIenL9/342tf1TtKIBb34e/K8rpwr0I94VQVvhZQuSAgOan08ZTiSbrZmUo3O7q56mRipdpVjU00SiphXgD18OSJEDILxuNnYbR/HPQmZcCAOahhbD4sMspgysrdkICayv3phEM/pQJjWfCYcn9ZzCjAgqJmbD1yD9wIYXhxJwqad6Jj/ykk5m+B13wqZ3otXDNqVDOUOwue1LJufn4O5S17MSV3sxq0YRqr+IMXrsA2ci2M5hTCekENzJJLYU045cG3Y1XzUi2MBdhFW7ktdcit24bfvUJAv8e0mNxZ027LX7SVPefV/UZSyX8bmBpneGcKIBCPSNiAqWm5Cs5Q1aQUqPqCTpkeifDIeMyhIqZn5iJvbTGqahuxfmOlArSyshZbmluxoawKecxBs3OWqhAfMTsGM2ZEYcIEuUkuTDU3CXQaACeqMCvzUkRJrqq5X2mieh0QqFnWi4DK1JMwfwWoFs6vm540hZONKp4IqWpjlQ4kmvBvQjU1M9eEf1MzC9iwwBrP3/GcOAOGPtMxgkXS2LAMGEUyB01YB+u0chgxpNtQ2Sav24aYTZ0IWVmNqYVbMX5BJaxmMcQ37caa5j3wz6nEzIX5yF6+Gpu4T5o79yMlvwmOsSWwjS+F3dwK+C+uRmZhDYrK6lBQXofE5ZvgGl/E5Rqx7eBFeCRshHFUPn+X6kmRMM6oJpj1GCfVOyE3WEBQpWcTAV1S24J33vw9vvjitiabbzEtInfWqKJntdvzZ3aT/8CWC48ydJfgl9+Xg3L6q7hNGJtahrC5izFt8jQEEk5P5oPTZkYhNT0LyXPnIzE1AxnZi7FibSHWlZRh9ZpiQrkJtXVN2NzYghICm8dCaf6CXNUGKoBOmxaO0NAZmMScdsLEMHVlSa4ySdOTv/9EhEyaot6bFMqTIkwzRpMGUFbZorh0UXB3AZRqK+FdutBJiJdcVFxA1eWkoqhya4cAK68lBdB0YJYOzhYKUCsra3iLUodFQN9zCkYwBx0VksY8MBemCVTQ1HIWSVUo2nEMW/adwCPPv4jf/P53uPTYkzh++WEsq+7AOrnU2XsS/vF5zNtTER0Thda2rbh48QJq2vbAO2Uj7GLoc4oxed5qLFmzilV+LY4cO4A9h48jekkZMouamI+ex4T0Ciyt6sKmnhNYWNaOuNJ2TFq7jUXaAWQ37kJMZQec8rYy5JdhzZZ2vPXWGxLHtUf6241sPKzF5M6adnv+zG7e+gI77n8Sv5yzXt0U95dDvDyOZhMBrcbd8eXwiVkIXy9fWFtYYRLhyVm0AstZCC1ilZ69aDkWLl2BpWsKsIwgrmVIL6Fq1tY1o6q6QalnLpeZvyAbcfHJqoqXvDUkdCoCmcsKmNNnRKrOzVJFS8/88X6BVM0J6j2BNlhg5XJBVFwBV+6pF0CVgmrzUHEB9faiSVc4CaAyldfSKmBr5wJzKqnc+iHhX64qSXOTHxXaI2Qm9DwmYyRz0NEh6dALXwx9VuV6iUVwzq3FKgJauuskSvecRsep+9F24l6sbjmEBaXdqNi6DzVdxxCSUojpcfMxPToGhRs2YFPTdswtaIBnSils5myEQ0whpqXncZ/lcz9V4cL5U7h4/xWkrGFFvrIOvSeuwiNuHeq6j+DK4y/g9H2Pof34ZWw5cB5HLz+G01cfw6HL15DAQknu1C3Y2qUB9AeYFpE7a9pt+crkvNKdW41nrmBocjn+57ZH0vypS6dlzYMUqjA8tRY+UQtVODRnRZwxLxsVVfUqlAuk2cwtsxYvx+IVq7GMr9es24CC9eUoXl+B8vIaFJeUomj9BqxYmcccdK4CNGzyTKphEAICguBNRXai2lkyDzQXNWMxIx2ZjVnYaJTNFg52BMvRHW6u3oQ4EBOCQuHP0D+e35dcVVfV6wonAVVBqg31mqm4KxxdvGAn9yBxXu5QNVftriySbB1U0eceNAPjvKigvtEYMykT+hErYJRQpEb4MJ+/GZY5zdCfXwuXvFbYMY+0mb8Jzjm1MGW+WNtzinnnAYTx9fTs9YjKzEFeYRHmF1QRzg1wYGRyTJampgoEpBYjbXkhSsvLcPjoUWzqOACnOavUfU5lrSfhN68GYSuaMGnJZkxe2YhZ67vU6HixrNyjKnoxfs1W+K5th3V2NTZubcN7771LhfzLRZLOqKLztZjcOeNGlGm3R5nmaueXqsPI3oeeQf/4Yob5vwyozmWYnOHMeTxicwiKnYJDwJTeOTIVdVxIdcxZnqfC+EpW7IUlFaisacQW7rSGhmYUFa/HsmXLsWDBQjVAg7OLO3NER1WgaHotjcOokTJMt/T5vPurjsu6TsrS5U662Y0aKf1I9WBgYKzUToqnwIlMB0JDVbvs+PFBqjFfFFR3KdSJIKob9xzlblR3daOfDV8rt+dJQUjNWRxJjmpv7wQfyYNDZ8PIezpGjY/D6FACGrUKJknMHQmlPBbRZpH0am+B6eJtsF3Zpu5LlyfAyaXPtdsPYMuh+5hfNiJ87XY09B7C0y++iIXVO+HI/NGFy3lkN8F3yXb4LKzF4qo23H/lYRw6dx+iC1tgl7QRy6t70Lz/XuadpeoxiFb8nlxBMmdhJoXR2PQ6jM2sxdgFjRi9oAmWCytQ17UbH7yruWHu+4xs/FGLyZ017fYo0ygo/wjo0cd/jcEJxQzfG1Vj/Hc12EuPpqGsUv2TcmHHvC2UOWFNfRMaCOjG8mqsWrceWctWImv5ShQUb8SmmnpsadmO+oYmrKdyLszKVr3tpZeTQCUN5nIVRzoXDxs2/BudkoeqBxvIdNhX76ne9IRU9a5Xn8t3Rqg+oHIHqJmZ9Cu1Ufc4Se99PxZZ3t4BXzU5OTuLknoTTlFNT/WABrkjVeZlCHIrgmpBdZX8VNpBx/sHwzckAoZeMzCSgOrPyIFh3FqYzmVoXlgHswWbYTBvM0ypojKynNHiLTDM3QITwmORVYcahv0N3afVnZs+KSVYWFCD5p5DiM5rgF3iBthyXzqnVsGOEcwxhQrLwqi6fS+KmnrhlSb9TCuwessB1O+/DxZzy/l7VGZW6nKrh8WiLTAiqNJ6MJpKPo6wG+Q0wpFpR13HHnz64de96b/PtIjcWSOMv9VuzzfsBHMaeXTKf8z+rjGadL2ZKjE2rQYTY+apm9TCI+aghqrYuFVTna9iQZRNQPMKilitNqC6djPKKypYseewwAljzkd1Yt4q18Klt7v01xRF1AA4/CsYBbqvAR2ubjmWqbjuc813vgZX18t+xIjRkEd1mxpbwZE5pnT7kw4sPqz0nZlvOjiIimrglGcwyWC44vJwBjsqrq1MHeQef2dNkRYaCQMCOmZCMgxmLYEpc0+TuWWsoivhkFOD2LIdCC/ahqjSTkzM24IJq5sxo3gH3LIrULv/LFa3HWMFXgi/aRmYPjteFZLTErPhGrkYDlHr4TinDE4xG+A6exm8pycjbE4KAiNS4R2RpcZ7Kus9hVUdp6maTQpOE0JpnbMZVqzWpXlJf0EDxmVsYnFUBYPcrXDKrUHnvsO4/snHIo/ao/zdRjZatJjcOeNGRGq35xv21OvvwH5JA/7ze8Zoks/+J6YcRhm18I3MUM0wcjlzy7Z2AtqmQrxcwlyxugCbWQTU1DZhwcJc1fXOwdFJhXBRTIFSQNLB9+2wad6T5XTLCMi6HvUaEHVga9ajWU5SAt1tH2NVH1ATE1P4+fph2rSZVNQJqiiyZ6gXKOXxNuIKUMLp4OEHRw9/da+/KG4AAQ2ZFQcD75kwmDIfVgkFsEsvV/cD2VKxwlZtwZEHHsVLb7yBM1ceRc/Jizh68TJO3PcoGvezUu8+SsDOwC85D5OnzMKMsElYuywHGzYWYUbaCnjEl8AlYRN8k4rhOTmBBV8YMtOSsbYgDwuWrERQwlIsretF8d77MTKjBqZUZ++VTVjEyn1J014sZPUeyYo+o64LmXxts5SA5mzCzuOn8Oknf8VYHjQtJnfWtNvyDXv940/hsaIZ/xNb+h1XkzTX4qU/qH5qOaYkLISlqQ2SU+ajtWMn6ptaUCqXMgs3ID+/CMuXr0E04ZUBHmQgBrlxTVRTQrnApYNQB5a4jL/0py7KqXN5rQNYtw4djLJeHfi69+U+p9Gj5f1R6sRwdnFV26PaNqmm8rQQcRmt2Zluz2LKwZPveQfB1TOQCuuOkLDpKgc18Z8Di5nLYB1dAKvY9bCJK4FJVCE80yqRu2kn6naewpZ955Fd2oqihh60H7yABeXtBOUS5pd3wzd2qRrefOqkENSUr0N75zYkLC6BO9flyiLJP3U9IlJyEDlrOhKip6G5vhQt7e0IXVCEaq47h0WSXCUyZP45bX07uk8+iAtXn0HP2SvYfvxeHLz3KvbyRJla1UtAK9F77CS+uPHN3vTfZ1pE7qxRRQ/Lxtxexb/8zoeYWd6DX8yS++O1Xe5uc81rGdShHP8XWwXzzBp4MexZWzkhNzcPO7p3qwKovLIWy1euwfz5WYiJIZwBEzUdlm9TTgFHANIBqANOp4S3w6fz2xVS57e/r1NTSRlEMQVWeX07rLrP5ZZm6YgcFBIGTxZ4blRLNwHVyx9OhNORU3ffELh7Sb8CTwRyOe9pcbCNWAxX/t9+i5rhOb8BngTFhzmnU8omVdw4MVf0YZXtnlENh7gN8J1XDf+MDWjZfw5L6vbCI7EQQdHzkJiahI72RlRyf4VklcOehY9zSiXc5lUibME6xKemY3luBjrbm7BxWw8CFleh7vB9WNJ5WjXK6y2sh+vyrZhV0okYgj+nahemru9EfHUvMpoPwGHldngv2oSjZ87hxud/3hf0u4xsPKbF5M6abIxU8boGiPeooOFVOxWgA7VQqs7Lt7kG0gr8Mm4TLHkQvKfMgYONM5YuXYPunn0M6duwhlV7YkKSui9JbpqTQkjUUypzDTQahRMXWAUWuSdIN2qIrp+muCZEa4DWzd/+Wgedbl63XpmX37p9PQKp7jOdmrq5eyKA2yg95t29AuAm7hMIF7qnnwwxHgYPb38ETZ4Gz2nxsI1fB9el2+C1oh1uS1vhtbIVHsvEt8GVVbv30haMX94GF0LrnN0Ap6xGBDBt2nb4Ila2HIZ9ZjUmL6vC1p17cOXJpzAnfwscGLKdswj5Qlbk6TKu/QYkrSrFsVMncOTsPZiSV8/fasaGXWexkUXSqLk1qkOyKd2E+eioeazcF9YoaEdnVvEz6VnfgAD+zslzF/Dlzb8OUDEtInfWeKYo7Zf8WVT0M85E1+zC/0mPpjjNWPWaav6bkKpr9azi7agOQdNiYU9ApW2zu2evujqUmpyJOXPiERY2BZ6e3qpHugB4u6oJLAKODG3j5eWjILa3d1SvBVhxAUiW17ko35++1rmsW/z293Tvy7qkx5JqtuL35Pd1n8n9SLb8XVUEBYQS0kAqZyBcpbF//CT4BISpjithU2fAY2Yi/+cKOK7qhOPqLtjT7fLa4by6E3YE1XrJVnoLnJZvh4VqdmIeuHgrPAjXoQeeQnptL6yTymE+NQc5azchY2kxvOJXwZ6q68Lv2bHgcaGChq+uQ/qGJtR39GJ51TZMWF4L+7QKtJ68jNztJ2C4UHPt3SxbxgNtVvfDGxJUw+xGpa6GC/may0xYWY/zF+7h8f3+NtA/NbKRpcXkzhk3oli7NYrQ9z6/gaU7z+K/wosI4SYtnH8OqIT//4kphWtOFdz8Q+HjNZ4Vei3VswWJyWksmGIRER6pBpYV5RQ4BTZRL3ncoNxdKWDIjWkC8PjxAfDw8FLLSpOTTk1lmduhE8DEdXCJ69RW1q9z3XIyr/tMIJX1iULL9wVUnbrK3Z0yWFlQ0BT4EVIvv4mENAiehNPbfxL/jyBMnhoOn8h02GRVw37dHljmdcGCYFqs6oAV3ZSqaU1VnVjchSkbuhBSuAPeq1swsagTM9bvwJaj92H1juMwZfVv7DENdu4T4DUhDC5B4fBNXgtPhmtnFjbBC0ux6+R5NLV2o7ZxC/PPLmzbdwLJ+U1o2HMeK7vOYkx6NQwJqDFdj+ppxAreaH4dxnLeYF6deojCOKp36PJqXH7wCm7e+OsVlGx8rMXkzpp2c5Rfv3ETS3vO4r9nryeEmlxT47cDKh1FREUr4TC3BD48qBMDg1Fd14T8gkLExCZQPWMwZcpUNVqIACfqJSCIckmzj7m5FeG0V5/7+o5XCioDJgigNjZ2ClD5jkClA+x26HSg3e5/6T1xgV3yX7kSpXNZr26dArr8nquLJyZODMOE4CnwGs/UJHAy/IOnwZ+wRsyOg+esNFjx4Jsu74Lx0h0wWd4Oi5UdhLUTlis64ZzXgYr9l/Dki6/g5JUncP9TL+DSUy+iqPskmg/dg+KOE/CNY5EUNgOzo8KxdFk21hWvQ+raKviuaoHjogYEZ65FwfpSlGwoQd3matx3+QIefeZZLK5oRXn3YazddREj5zKMUzklzIcUtGJJ2zGkUp3TWZTN3dyDGRU7MW5BDcJW1eD+Kw/gyy++vTf995kWkTtrPFO+0Sa6oucMBiaU4ZcxZQpGVbUTRnV/kgJT86RjGYJReuaMZzU8a1YkC6MqxMYlICk5Vd16LOFd1wgvAEhIl6mMVGdrrRnO0MfHVwEqywmkzs6uClIZblHgFMh0EOlAlakOQFlG5wKYDkSZymsd5PKerFPSBysrzbV1gVTWJ2qqW7fcderrHahug/ajuvkFTUPw5Ah1G8rUGZHwCM/UPP99ZTdMlskTNDoY4rtgw5BvuaID9it2IGXzfvRcfBTNxx5EzcF7sPfK01jQuB+99z+OZSxegmVM1dCpSEmJwe7e7Th28hjmlmyFA0O87eIt8E9fi5wVa5CzdAXy1qzCrn37cPj0vZi6sASdZ+5D0uaDqr1Tf+EW6GfUI73pEI49wiqe1XvPPQ/i4RdfRt3Jq+oR4DPz6/DQ4w9RDW9pj+5fZ2SjTYvJnTNuxFdtotdvfYH6cw/jf6PXawdwoKt8s5LvbcR/hJfgf+dsxH/NLsR/Rm1ESG4pAiZOQlxcMubNz+aBlUEaeFCDpeeRjMjhpYCQAkXglBvTLAiKvCdQBgRMUGmAj4+fCvUyqIMuJRCwdEDqVE4Hq7x/u0LeDqoOUJ0LpAKjXBQQdZb1i8trWVbWKy5hXn+cERzsnBnqQxFElQuaEoHpckNg5BzMioiGf0w2rFi9G6zooXp2wHol89C1PbCmgtqv2klgd8BrbQfGr6Gqykhzy7bDcrEUVC2oOXQJBd0nEJi1AbOS0lGQvxznzh1D85798F9SrRrfjVn9+84rRvziIqRkLULxxmKUVtUht6ge4YvL0XTgHLLbz+DuudUwkDxzfiPXvR1Rlb2YVbkTUzZ2IrFuNyJr9sMkqwGJJY14/NknNQoqQfJvMC0md9a024JbX3yJrfc+wSJpI35FQOXWj/+KKsF/RxTCMLWEyfomho1KTGZImrmuDklrShE+OwaxsclISJirGsCnT5+BAMIp0EnYllxPhp6RoWuMDE1hZWlDpXRRYIp6ynK3Ayq3+QpQApfAp1PP26cCqA5OHaA6xfxTFwjFBXpRTinY5HekIBNI5bs6+A0MNIOMyXZPmjydBeBMzI6NR1RUDMJnzsb4uEUwW7QN+ksJIOG0ppKaruCUcLoX7Gax1A2nVV2cdsFs5Q6MW7ydqcA2uORtZw76AA5deRylu09jx569uPzABVy59iB2nTmHtd3HUbDrHCoPX8DaHYdQ0XkE3fsP49LlSzh772UUb9mJ5fVdOP3oU4ip34exmSyECKBpbjMscrfATHrPZ9ao9w3mSyVfC0O+TipuxhNPPyVS+PMG9MsvNG2iYt2Xn+Y/WqcU8v9iyzE6sRiJGzaj/fBBPPH8o/j0k9fwzruv4De/fxlHj+5BWGgY5s6djznRCYii0siAYVL0iEIKACrvHCvqaQRzMyvV8UKUVS47ylTgVHmop9yZ6QV7uY+dOapAqhlsQRPSdYDqXgt8AqdMdYDKVMAWIGVe91rg1CmogCnphYyoJ6CKmsv6ZL2yvAmXt6TKi4qGTQ9H9JxE/l9xPBHnwDdpmRre0Jjw2a1sg8WSbQz1rVROKuXyVtgRTCmUnFfvJLw71HVxqxVtDP3bEFK0A7F1e7By5xk1RM3qzmPI7zyOzKYDWM7CZ0nbacxvOYbi/fewUj+GnOoetJ5+EBt2nOByp1Fx5BKKDlyC2+o26M+rh17mZhhJNU8gTTm1yN0K0yzJS+VJc42c1iGZCvqb37wgofpvBpTf/em0iYrd88JrBLQK/xFVhiGxxVjT1Iw/vMqzEB/Rb/L//DqfOX36NPPNCITPiqJHaweqDVPhXQAVgERBBQABzsbaTjXY68CUZXQh3pWq5epCZbNzUXddylA00jtJb6ymMr9dPXXzMtWFexm2USBVQ9gQUE2I16ioqakZQbRWYy45aRVUtkF+X1RVwJR1yPbK9yzMLOHj5YeZ4VHqbtNIwhkZHYuoXFbb6zphsLQNQcXt2LDvHizcdhALth/GcqpgZvN+zh8hiAfhStUMr+zBmp2nkNa4B5nbDiOmrhfhFR3q3i+f/DYC1ghvTicWtGBaSQemb+iAy9J6hBYwLWB+77qgAs5p5TBn6LfKrYf9gmrYzGVqtaIWkYX1CFtZgUms1N0yS2HF6t2EuakZUwt5ZpKMcrewugm/feU3GgX9O0yLyJ01nimqTfTaq+9gTMYm9fz4WatL8cLTR4HPf4MvvvgMzAC+cSI+8+wzmB0RqcKfDE8og4fpxmISAHShUw66FCjSrCT5n4RQgUOWEUBFcf3pgQFBBEZzL72t3I5hbgt7WxcVlp2c5HEzmiJKVFDUUNapCiqCJYMuKJj1CJmRuQJT1FAT3qVAsuHvO8HZierp5qkUW5Rb1ifrEDgFdvmeBRXXxckV0YQyJSVdPVBsZng4iqprMLWoFeOSy5FdvxMPPPEknnv5JTz98st4iJW29KJ/8OnncN/zrxDKfSxcHsYjv34B9zz6BM5ceQjnH3kEV599Hmf5elnrcdgxn51S2IojVx7FQ1zuzMNP4v7nnseZR5/GuceexbErTyCheg/GplfDe2ktcisbsefwLly7eglPP/8YXnz5CVx+mKkDC63lVY3MZSthllGpRhexINBZNdvwsgBK+3sYJRs/hTbRGwWyMReefQXWS5owKKoQTbt3Ah/fh5t/vB+fffQMbn32FiG9zg3WNPy+8JvnMXt2JKJmR2PmTM3Qi2EEdOLEYAWVJq8z0oZXqZ5tFBASYgVQKZJkXCcZT3QaU4MgFlzST1P1fHd0h7OjgOSnrpvLOuVhXrqpXKGSYiwwMIhwT1Qdm62tHAknCyx9qq8+w748RIGwiiLLkDl2hN3F2VMB6unhrbZBcl+BXUDWKLFc1TJX2ylDSM6ftwDJyalISkxGXXML5ld2wSIiH/k1O/DWO2/g3Q/exyuvvYY3331X3d5R0rITL73zHhIr2vHkq39AbfcBNOzci6eeewq/efUVPPnr5/HwU89gUWU7jCPWYubyWtz/yKP44MMP8PvX/4BXX38db374ETqOnMO7H76Hwn2XMIEFUt22Zjz33FVcv/4e97zm+p/uOHx561O8+/bvcPTUUYSv2Aj9NIKaU48lta145523BLC/F9CfTpvoc2+/x4pyM/6XhdGW/fsY2e/DF++dxq13zuHGe4T1o0dw65Nfc6vfweuvPYLSDcuoNDLczUzVv3NymDwue7JSO2nCkQOvqZhNCJ0Dw7mvaiNNSkrByhV5KCwsVs/jlLHt5XaPwAmhmpvevMbD24uFlE+g6tQhjzzUARocNEkN7ThpUpg6IUKC+ZuTphFwSS+CeQIwl7V3gbk8ZtHAXI0LZcZ5GUxCrr9LiNddvRIVFUAlBdHlraKootKSTy9YkIVkbmtqyly0dXSxWNkFi1mrUL6lAzeuf4RbN2/h1q0vcOvG5zhz7Sk0HDyF01S/IuaYJx55Gh2nL+HIxfu4ZwnUF3TOvf3RhyjvPAybqHWIyCnFM88/y/XcxA3xL2/i16+/jcq2PXjw2eew6cBZrKnYiLdfPM9vfiCH6DZTPXm/jmofvYTe3dswflk5jDNKUcCT5a23f9AInN9rWkTurPGMfOGVP34Eu2Vb8Ytp65BcvgW/kRD/3il88YcjuPX2Cdx8/yxuvXcOX753EV98fD/e/sN51NeuI1zTNE8jnhWhrsELoKJImjBsxRzQiuBOwrJly7B16zbs3rUXO1o7UVy0HpmZLLIIqLQ/6u7klHuKBFAfb3ksjQBKOCcEKzDlDlKBc/Lkyaq9dVLIFAWpuNxEp7uRzs9XHmfjoVIFGQRXOjA7OTvD3cNTwalLL0QtNbmquTqhZJtl4LBZzK8XZOdQQedidmQUdu7di7j8rQR0OVZv2oKL99+Lh598Go8+/QznH0TTriMo69iNay/9Hou27MG1376M4rZ9rNqP4MXf/Ib+CtX2Vfz296+gYgfz1IRixK+owpETx/HQw9fw1PPP47W33sDlx57Ehi1duMJ0oPPEaRzZXYmXH2jDm7+5jM8/fQ9f3GItQJDFvvxCTpCP8eXNd/DFW1fw6/t2YEVtPWwyy1DUugd//EAU9+83qmi3FpM7Z9yI8Dev38Sksh78YkoBDNIruYO78MaLp3jynuCpfxhfvH8KX757FniDhf8f9nHD78ehfXVITExUD4CNiY1XoTGQ4VuUSPI/yffS0zPR2tqKU6dO4fDhI+js3Inams0oWFuI+VSpOTHxVEMBNETd/y4KKoMy+PowP/WfoPJapZ4M69LpWABVCho6RQ1UFhY6XQEqw+7I4BHiMiZUoH8IIQ9QDwWTIk3UUhRUCjOBU9YrgEqlr1N7UU/Jl2dHzUFS6lxExcQiMTkRq8o2Yea6NljOrUJ8QT06Dh3BFp5oJVu3o76zB6s2t6KC++vR3/8BCxp34dm33kHj/pMo4Pvbdh3Ajr2H0Ni5C92HT2EhiyWnuZWYyYJnTU0zVlbUobSlFeubWtDUewgrK5uYKryNrXt34crJWjx6sABX9hbhyXPb8NvHTuDN3z6A916+hutvPoFb7z9GfxDvPb0Lr15uRsmWrbDL2oSa7n349FPpC/p3xPfbTIvJnTWplGbV7sJ/RJao0UOGxpQgrbQe913ah3dePcmc9BJw/QJD/nF8+Ydj+PSN0+jtrkFcTAzBjEF8QrJ6iIKERxdXDzVW/coVq5Rq7j9wAAcPHsS+ffvQ0dGJmuo6rFldgPSMeYiKjiGg05WCyq0ZKsQTVLmLUyCSfPWrEE9Ig4MlxIdSQTUqGkpIlYoGTWF+ShVlqiC3eoz3m0gFZp4qd4ZyXep2D6qqj894BejEiUHqOrwUURaWVqqqF0ClGSoyKlpdHZsdPQeJDPGlXXsRWnUAZkvasKrnHE49+QJOsaB5+KVXcPLhx3HwwYfx0puvY9+DT6rmo4OPPIeLz76A+5//LS489RzOPfIUnnjpdzh59SnMbzoE5+XtiCrbib33XsWxB6+h7cRZHHngEbQeuYADlx7EU394F+Vd+9GyZSNeOl2Ca73LcH/3cjy4ew2u7l2Dp4+W4nf3bsb7T3Xgkxd68fvL9Xj4TDOiC2rhlF2O1kOH8fFH72vo+hFMi8idtVc/v3EgcfsJdeXoFxEb1GBi/zUzHwZJxYguqsO67TvQfnQvjtxzmPPbMKewDnErKzF7ToKCMS5OBgGbjRms7KWXfR4BbGpsQXd3D/bv3/8VoO3t7aiuqsVqHaCEWu5rCiBUvgzNonryQC9RT3EBVOD8WkUF0Mkq39UpqeShKswTTrkNWaYCvNyiLLmppseSjFrC9MFbp6DBLJp8mQZoHhomd3A6Ojrxt30wj6lHXHwiEumxiSmYurZRXYM3WtqO8cU9iG04gvzeM9h18UHsvvcadl16iJX346g7dgXWuY0I2rATsfX7MZuVeFrLCeR0nkV6yzEU7L0f0yr3wWZZOyat34kNe86g+54H0X3/Q6jcfxbNR+9D24VHsajjLILydyBpbQWuHmvEb0+V4YlDq3B51xJc2bUY93dm4YHdS/DyvRX44Mlt+N1DbajfsQUuubVwX7aZx+koc9tvPDzh7zJG2Ce1mNxZKzzzMOyWNqlnjd+dXKLucxkUW4z/iSjC0DlFGBa9FkMi8zGS7/1i6mpYZlYiLG0RphFKyUFFQTPnZamBwtaXsAKta8KOHV0EUxT0gFZBO7SA5iMjcwEiI2IwOXQGVW8SK2w/dRuxt5f0cpIn1XkTsECVMwqgAqQ803Ny2HRteKdyhhBa7ch6UiwFEU4BVHJRBSld5gVScXWvPRV1ApeRJ4/IY2msbeRKk7TTenP9k5A6Nx3y9JJo5p9z0rIxMW8rDJfsgHVeF6zXdMIqrxWpDQdZDD2F3nuu4jiLosMPXEPZ4Qc03e+WtcJscSvsV3XClm6+dDscVnfBZrnmM/uVnfBa04GSfRfQcc8VdFy6gt6Ll7H38iNIqNkLtxVtsFi0DQ65DUhdX43dXbV44lQN3nigFi9dLMVrV+vx2uNb8MLVZtx3oRMVLdsRnFcP05wmeCytwQF5eMKNPx9Z+e8xLSJ31l7546fXH3jpDdzz3Et46JXXcfThp3Hy8Rdw/LEX0X7xURy8+gx36CNoOkHlePBpbL14DZ0nz2P5mnwWSpFYvGQZCtYVY9WadSguKcPmzY3o6urG3r0aBT148BAVdScqK6uQk7sI0dFxmDplFrwJpjzEwEVGsmPYFTWT9k9PT6+vckd5sJYj3VUeTejircK4tJ9OCqGSaoslAVTgnEDYBcqACRowZVAyKaDkVmRdISWDPchYTrqRlOVk8KK6hs2IwNylqzEhJhWhCZmYmlUAj7zt8CrehYCSXfAo7lCN9qlbDmHL6QeogFex9fR92M/wXXzwPjit3gZbAuy0qgMOq3bArWAn7FYQboZ11zVdhHYHbAi6O9dZuPcSWk49gAPXnsIBKvC5Z3+r1NZ22TY45e2AxRKCvqQZHourkFjMumBLA46d2IEDZ3eh9egebNrVi7jSrXDMrYdB1hYYZjdj4qoanLnyIAsqubDy4+SgYlTR5VpM7pzdunVruXZ7ZIO0c1D3zv+p3f7e/fddRvH6jSivrMaagvVq8Iai9QLoFnR39eDIkWM4efKUgnP9+g3Izs5FNAsQ6WQiA4/NYN6alpbOgioD6WkZyM7KRmpqOubOzcBcTiUNkOcwSX47caKAOUkN2iAFkIO9q1JeyTl1gE4MJKQCKNUzkJAKoAKnPKRBXDcvA445OriogSICA6UgC0Atc+aOs5fQRt9++l40nLiMprMPoe7kg2g4dQ0tFx9B6bH7UHPqMprPXVWXIpsI6FbCWrLvIlbtOo3l3SexoO0EQ/VJJDUfQVLTYaRtPYo5dXuQtOUw5jD8zyzvRm7bUWRtP8BlD2FJ5xHM33YQUfX7EFbehfH5bZhQvBNeBS2wWdLAyNYM25xquC6pwsT8BrguroZNdi2s6IYL5ZmdTTDPqUdIUQPzXWmkl+Pz13dY/ktGHq5rMbmzpt2e20z+UZ1rTPev61ri3n7nXRw+dhKVtZuxOr9IDdawfkMFGiUHJaC7d+/h/BYsXrxEwTZt6kyVsy5buhwrVqwksNn0HPXoxMWLl2Ee04T5mdnKkxJT1SNvYmPpMQkEORPxcSmqD8CM6dK9b4YCVBriBVoNrEEElMWSwEkXaHVPEdGM7TQdU6eFs6iarJq0goMIMIum+fPT8fLLml6IEiBvKBUCPrlxUw0RJP+zjAZ4kyfnp7du4sNPP8P1L27hnU8+wQecf5efvf7BR/jo+md4/5PrePWdD/DOx5/ilfc/xEtvvYe3OP8ip7+hv/Te+3js5dfx/B/exkMvv4Z7f/1bPPXam7iHhdV9L7yER15+AxeeYZH19As4R+9lAbbv4Wew6+qTaL7wEHZefpxR7Rpazz/IqHYNNccvoebEfSzUHsLHn3/KIyNb++OqqBaRO2s8U36t3Z7b7Jv/pLzSOP94sF599feqMbucueVKhndR0NLKWmxv7WQe2qCe1zllygz6dM0DFHKWE8485FBJ09PTqJZzkZE+DxkZ85GUlIyYObFISUpBUnwCkhKSVBNWNHNCec5nQrw87zNNAao6qkTHq6FzpNAKlCdyEFAZ1c7dTdIAufrEcE5lDaFqCpziqp8nAZ0ugDP/DRjP/Ja5Z29vDz6XB1/9YJO9oDlVf4h931K3f/6NCPbF10qoi1w3brud47ObmrbRm1zusxu6x87Ict/3i3+dcZt6tZjcOeNGTNNuzw8ypgW4du0atrXuQBlD/Or8YqxmmF+6Yg1i4pNVoSLwyNj02dlLCeJCQpaqXICcN28+UlJSkZmajCXZ6agsXoHWhg2o21SIjUV5WLdqCTLTUhAfG8OCSh57E4MIAjlbPGKOZmS8GbPVALgyOl5IyFTVGiBPifNw91YPqZXCSdpLJxNMgVMuDChA+T35fvisSKYeJfjggz+9YvN9JgD8ZUA1V3u++ZkOG53r7OvXf/6pzP3Zr2gXEZDFv6CSc0bj/0DTYnJnTbstP8g+/vgjnL9wHltbtilAJbwnE8YpUxlCGVYFBukZlJA4l6E6FSnJmUhLXYDEuFQqmDxodhJmTJmKxfNT0bWlDPtbN6GxbDWaqtahcEUW5sZFID0xGuFTQjFpwkQEyKO9ffzgzmJJrjRNZH4p4E2dOovTmQieJB2np6giSpqrPNzlOfQBSkGncFtke8QF6JkzIqnCsSgoWIc33nhd+x/9c+zbMPpLaH3r+/ImXdRVAyhTEO38j21c55v0WC0ed964Mb3abftu4854/933cPjwYbS2tqGkpBzh4XPgTijG+05UY9dLCI6mx8QmqaG+5XMpYKR3kYxibGlhzSreHTNCQxA+ORTTgvwR4usGT0dLeNqZYaKXPSZP8ISXsx0cbSxgb20Je1sbODk4wtnBmfNO6uG0koPKeEyTpBCSap2qKQ31ctlT8kwJ43JBQMYhnTZNHnsTgYhZcxBFBS0sLMTvf/+q9p/6edlXYNJ/TCMDt+g1WiR+eqbdzu+1V199FceOHce27e1Uxwx4uvsSkmmqs+9sFT6jGZLnqHAqTTyOTm4wMZb7gqRXvClktGO5fu/l5gZ/LydMmeCCxFl+mBcXjPToQMTP8MUUfyd4OJjBxdYUtuZGsDAcB3MjA9hZEVQ7J9hY2UMe1iV9QqVrnUA5cUKY5vIniyWp8OU9UVV5yt2smVE8eaLUdiUyJ168aBEBfeUfoj7/SJPtvUUwxX+sbed6zmsR+GkbN/QHjZvy0iuvYP+BQ8jOWaIG2/L2HI/pVKipDN/TtWFU2jolJ5THX6snG9NlXHhra+nj6crv2WOiryvmx4ViS+kCnOndiEuHqnC0swCtFVlYlTELkWGeCPFxgKe9JRzMTWBOSI319GFlLh2SnSBPKpb+p4YG0h/UQjU/CZgaSCcpNZVQL1MBVE6eSLo8bzR/7Wq88Px3PxHjp2hSMIlu3mKsv8W5vxVRHmsJ4Xf+WfJ/jXGDv2oT/UsmoeWll15C/eZGeHkxL3TzYTU8VanUFIbSKdOYE4ZoG8Tl+ZnmtpBHcUs/TRkbXj1629IeNubmSI2ahNaqxfjN1V5cf+t+3Pjjw/jk7fvw2pO7ca5nAzasiEf8rPGYwJDvZmsBW1NjmOobwFjfGObyIFhbB1hTUW3o8rQOeWCXhbmdglIAVUMxUkW9eAIFMW+VuwFimRsnJ81lalJCQH/9s1NQMdliQfNPi7EfYvx/f7oh/IeY9v/4TnvhhReQnp6ursZI3ieKJUWKVO4hkybD398frq7yQC6B0Y7qJqMy26hhtuUBXWP0DGBkMA7JkaHY31KED148A9x4RtbMPfg88MlDeP2xvdjVtAq5adOYozIfdbBSKmphaAijsfowYrogveFtrGzh5uwCJ0cH1aNKT8+IJ4OVuvo0QV150nQi0UAbgrjYBMydm46qqiq8/PJL6oT7udlfiyWhvKQ9vD9/4z/zLW2iX5sozsmTJ+DrK5WyrzroAoGAKh04wsKmYgIrb19fX7i5ehAWS8JoplRUHlogkN59t4zXNAyu9lbIz0nEUxd34sY7DwHXn8aXn/8an797FS9e6cXOzauxOG0WYqYzl/R0hL2lCUwN9WGgp4dxY/VgSDW1trSCm5MLfDw8WDQ5f3XzneSmopyybeLSlc/L01ddmUpKTkFzy1a88rufVw4q26rz7zMu8w795xXCf4jxn5qs/R+/1W7euMH8LV/dlCYHXkKpuDSMT5k8k/nnbHWvUlCQ9HZ3V/mh5rHcFiq0y2Nf7r57FEaPHAlDgjTJ2w2Vqxfi4t7NeO5SN377wF48emI7djcVYF0OQ/xM5o8hfgib6ANnAm1gMBYG+uOgR0D19cbB0pxq6cgiyVPyTy+YmZlhnL4GUulWJ7eR+LOa9/OR26PHw88vAJGRkWghoL9/7dWfFaBiugr+Lxn/n63aQ/mva9r/9VvtnbffRmx0jHqmpU6dxCczvCfIFaCYODXaiFxvl84eAoo8clCe7CZPcpOnD989fKR6sOu40fqwJVChBCs9cjLWLohB4cIYFMyfjay4SYgM9UOQlzOCfFwwbZI/PF0dCOdY6OvrYxxVVG/MGJgw93R1dEGgjxcm+vvwNx3VDXHico+UPINeRhCRJ4eIC6T+/gHYXF+LP7z5xs8OUNneP91mvv5pPGr7n2X8h7u1//uf2XPPPIOZU6fD091LhfcA/2AqVxBmsIJPSZmrIJVr73IriPRKEkDllmK5wc3cjBW9vgmGE9BRI0cTUD2GbGM421nDxdYcExnGk8ODUbo6FYvSZiDI2wludpYsklwQPSMUfl6uBF1uP5bbkMdirABqaEJAmQv7+SBkwnh4ebgTYA2culAv+aivr9zyIaD6s7DzQF7eSpWDiv28ENUYVfQdTtK1h+zfzzS74ZsmZ+6zzz5LUHwYNqV/5SSVewqgMrJyamqa6uQxZ04sZsyYpYooeciBwCJhXvP4QQnxIzH87hEYOWI0FdUQtja2MDcxgqneGGTER+Lhy0ewta4IYYHecLI2RwiVMXxaGFXbkesSOPUwesxohvmxXJ8xldUFwf6+mBoyEU4O9gpQuUdKAJWprZ09ldOXgGp67Xt5eCJ6dgSeZxWv/i+t/xyMx6BVe4j+vY074lvbRC+cP89wHgYfQjoxSO4FCiakIaqzb0rqXMTGaO5Tkrs+5Z543e3IMtqIqYkl3VqFdxkpWUAdPUZP8+wl5pLjxoyFtZkpwiYEYGZYMOwszeFkY4XpYcxzx4+HsYmMnCdDMsrAtqNYKDHPZCXv6+mBqaEhCArwV3eU6ulpFFQX6uUeJOn7KXd1Sg7q5eGFsOAgPPrIw38WLn+i9pD2sPSZznjglmp3zjfsiSefVL2AfH38lYLKtXFRpvj4BBXeRT3l/neZChCiYGqQBIZide86FVTmZZgcGcpbpjKYl7mFlXoisbGJqSqexjIFsDS3wISAQARPDIaNta2q0OX25hEjRmDUqFHqfnhLfi+Qvz95kvQXdcLIUWO5Ps1wOeLy29KYLx2g5baP8QTU090T06dMxrkzp7T/1U/PuP/fpy/QHo4++zbT7quvTK5i/OHNP2D69OkK0EB/zdUaUdBoFk4S3qOj5yj1VH1Ap81QeegYqqSJDFNjJKN6mColFYVToX64Zjx5AU+eCCJqKtW3NE/J0+UcnZwVhKKKGjg1w4IbGMjIIKbq+nxocAi8Pb1gSJUew8JLjbvEdQmYcoIIqApQ/0DN7SRU45AJgbj3Xrn//KdlhLIvhP9Q4856VLvfvjIZvWLNmtVqKBuBM8A/BBMnTmKRJDfRJRDMaFXFi4uSChCSC8qQNXJVSTXYG2tu+xWQBF5pdtKNKS8QSlqgrw3PkgIIwDqX5eV7cl+7haU1FVE6hYznejXDjot6yiNoBE75DZVe0KUN1M9XBoZgocTlw0KC8dC1y/yP7nyI537+aQza9XMz7rgg7T78yj799FPs3rOLB1x6EsltvsHqwMt9QrrbNAROqeJlsLHp02aq9lBRMkMqmTzUS+5Nl5HmdConIAqU6uEIWliHD2WOOkwUVh6+MEYLnya3lIHC5KqRDO0oFwRsWGSN4fdlHbpBGXT3vstAYxYWllRYaQ+VrnrSaO+LuJhIPPPMk9r/6p9v3Ld/pC/R7uo++1tNuz+/YU8+9ThzzCgWHBNUM5NcRpRubzJeqEZBIxWg4ppR8KayYHLHqNFjoMd8U4YEl5vjPFhN29rawtramkBphusWkKXyH8OCSQ2GS+hEMfUJpimXcXZ2RgDzUhlZT65YOdg7KYUW14EpLvMCq3zX1taOJ1EAtzUIQcybA/zGY/mibHXRgaRo/6t/jhHKDu2u7bMfw7hDW7T79iv7+OM/oq19O7y8fTSN4D6BKoROnBBEBZ3zFaDSNipXl9RYSkEhLGJcVAiWMG5uYQF3d3cEB8utxZPU1ScZrCEgMIDg+3J9HgzdfgSK6hwUpHrXL1yQQc9ERnq6Sh/c3LxUu6oaj1TlrpoR8EQ5v3ZzuHM5OZHkPnwZY9/f1wf7GQU0d0H+44378Cnt7uyzf4Rp9/NXJiOtvfnW65g7N0ldSpR72j3dZXDaACpmuLqdQka/mzp1ulLPoIlhCAwIVtfDXV28ICMvS8gWUE1NTeHj46NGDJH7lObPn4e8FUuxsbgAZcXr0NJUh+1NtairKEXVxg1YsXgRgQ9ViiuFk+SeMnSNqLKMFGJpafWVgpqZmsHWzlGdQHJXqPTE9/PxQ2J8LH7962cFHO1/9OMb1y0hfIV2F/bZP9K4o7+1TfTkqeOInhPDHNNLm49q7qycOmUmps8IV4MthARPVpdCdd3ePNzlviG5JOmq1E5ySgFVrjaZEChPhv1AFjGzpk5FanwCYiJmI3LWLERMnwl3Z1eYURVlgFoHB2f+rhtcnN3UJVUJ9TY29kpF5Xq8FErSFc/Ty5vKqQntEzkN9PPDti1N/zD15L668zeZ/bsZd3q2dv9/w/74xw9x+PB+FaK9Ge4lfEoolc4jEtZDQ6ZprzRNVHBK31EZRURU1JU5qZubu2rMF8BEBWWUOWkHNTezJIjWMDE0g4OtI2yt7dVgYDLWp58/U4DxkgbI0ON+XIe3uvVYRmuW/qcyLqmoqwzOIBW7DJ0jo+SFBIci0N8fa1atwLvvvKX9D34c4/7pC+F32rTH4lvsS7S0NKu2URmqRhPOqVZUUhn5Q2CVIkpuDRb1lPuIZEAvJyc3KqAHQdUMMqu5yjNeDaYg7ZVyhUo3sp0M9iA+KUQzyp2osvQDkPzXzdUHjg5uhNOZcIqC2qieVv48KVT3v1CeKKGTqaIBTCGS8OhjD2m3++8zQvkJvS+E/1SMx+QvHtn3338fR44cRGxsrOpJL6opoMrtwDKV0C9winoKnAKUqJ6zk8DqCVcZBdnTW/U0Gj9+AiYwX5UHGwhYksdKfqrGZAoOQzDXLfceiVJLbimDgcnz4QVKTdh3J7xBmCIDNUyZhcmEdCKr/djYaKYkR3Hzb3iW5e1GKPdqd0mf/ZSMB+bP2kRvtxs3bqh75WU4G3k0jRqVToaboYoKsAKU3Gkp4V0AFRdY3Zi/Sg4rQyCqUZBZSMndmDL4gjxzXiCVkZzllpJJTBmk976sS9peRZkldZBhbPzlkmhwiHo8ztQp0xWgoSH8Lr+/dOkiPPJ3KCf/95e0u6HPfsqmPV5/0Xgg8dxzz6KxqR6RUeEM1eNV01FY2LSvmpvk/iW5+qSBVRRUBgeTfFTzNA5fqqgv4fMP0AxiKw3rmmHANQOFydifEv5lzFBpGZATQDpJy0UBucQaERHNdCNctZOGz5yOwoJVuHLlMj777K8b+Y3/i3xhnfZf77Ofg/Gg/Vmb6LfZp9c/xeOPP4b8dasZomVsT7n1dwqmTZ1FD8esWdHaMZaodFQ7uWYvA9cKzHJp9OuHJjCPpALKvFLGqTMwY8ZMdc1fOkbHxEgHlVTEx8nQOQnqpji55SQ0LARZ2fNYwO3Dhx++q92qH2b8Hw9q/90++zma9jh+r4mafvrJR7h8+V5s3FhMkGIREhSsihYZSGHmTBnGRjqYJCngdC59SuWmNnEZ7S4hIVktI/MyfryM4xQfl4i4uCTExSare/FnzZQLA7PVmE5r165B764uPPPsk/jkk4/VdnyfcZm+EP6vYjyYP+je+a+NoH76CZ5//lns3dPDfHAJEhOTlDKGE6oZM8JVaJZeULGxcWoEPAFSHgeTnJyGlJQ09ZQQ6c4nT1aOipJbh+PUxQC5zh8dNQe5ubmoqqrEvn278cwzT+H69e/fRP4fn9HXa/+tPvtXMR7UBdpj/FebXIESeB599FGcOHEcNbVVWL5iGTIzM1ULQEJCvLqeHxExW7k8lymFoMbExChPTIxXtzsvXLiASrkWO9rb1XoefuQa3nn3be2vfLdx+/tC+L+6aY/1322ff/45PvjgffWMyeeeexpnzpzE6TMn0NXVgR07dmDPnt1ob2/F7j296rOjRw+z4LmC1157DW+//Tbzyw9/0H3thPJ32k3vs38H4zH/cVq7bzNCpKZf3D4G5m2VtzRj6Uy37HcZl7lBL9Nucp/9OxkPfKCWg5+ccdtOazezz/6dTcvDT8II5evazeqzPtMYodii5eOOGH9fQnildnP6rM/+3LSs/FOtL4T32Q82wiKjW/zDjb/TF8L77K83gpOqZehHN65bhqPuC+F99veZlqcfzQjlz2M46j77eRiBuqRl6282rkOGo07UrrLP+uzHM4Llp+XsrzZ+t1G7mj7rs3+caXn7QSaKq/1an/XZP8cIXZWWv281fv7ze6JEn/1rmZbFb1hfCO+zn4wRxve1UF7RvtVnffbTMYJprp3ts385+8Uv/j/UT73ojBHy6AAAAABJRU5ErkJggg==;" vertex="1" parent="28">
          <mxGeometry x="26" y="18.00000000000003" width="68" height="70.02" as="geometry" />
        </mxCell>
        <mxCell id="Xwab9O8QQoSItuY3KJxg-107" value="" style="shape=image;verticalLabelPosition=bottom;labelBackgroundColor=default;verticalAlign=top;aspect=fixed;imageAspect=0;image=data:image/png,iVBORw0KGgoAAAANSUhEUgAAAE0AAAB3CAYAAABG6M17AAAAAXNSR0IArs4c6QAAAARnQU1BAACxjwv8YQUAAAAJcEhZcwAAFxEAABcRAcom8z8AAFj2SURBVHhexb0HfBVF2z6c3juE3nsRwYKggA0RURRR7IoVVEBBQRSQJlV67yWk9957DxB6CSEBAum9l5OTcn3XvSfRqODD877v7/8NTHbPntnZmWvuds3O7tHC/4PU2tratve/T/8XdUkdHXNLSwu3kpuVDO4DzWhpVaMVjdxv4lbNzyo0tzTgoUH7+4X+/0r/22v/vR+SNaBpAFNAg4DW4VgbaAKg5P8nkvZ/maST/5P0d6A65pYWAYegKJkAdQBQ8n8lacSa/2SHyLc08coa0W1t4YWU7zVZyvyZNeco53VI8pk1UOh5rqIKmga3J9mTuqSJktvr6JhblHNaWE7TMs2/jmX++u/PFsr1WtAsADE3Sx3Ktj0LOA081pZbVDxH/cd5ECDZelFXyQ8ErZVANSoX4odGdqO5kdXISaxEAU0D3D8aLA3itklpIL+QQqyklVnNOps4qlBGVhpLIJll294JNTsg58rAsLDypXwnXWhS2tNEUCXzH8tKe1qaWR9zi3zm4GrKqNvKaTLPVOpRmiTX4l77ACktVgCr47nVSm5FvVxRCitYdOzp/UFjpdLgJp6gdIjnNPBwEXMJczVzLXNd27Z9/4/Mc2qY5RxplFwY7BRaaFQFtLbvKrhTym0V8x9l5dr8r5wjDeZGTHENs5STLNdv6xITCyh1S8fkdFodAinlK5nLmOUaFcxyXjWLV0lm8Qrmcp5aya2UV7GuRkUF2QuCCEVdBVCe0CE9ADTmZuLPhjRwv5gfz9ap4F1SDdf8CjjlVuJUXjXsmR3ya+HA7ansKthn18AltxZe2RXwzStHeFU9TquacKVBjQyVGrfVTUhXt+BCQzOi+Z13UTncCsvgXlgO36IKxFbW4WKtGlfrm3CNZS5ze4HnJ9erEVxWDY/8cngUVMG7oBJBbEtCdQMu8Lvr1IS0xhZc5jmXmM/UNfH7GrixrY4FFbBn+VOFNTiVX4Pj2dU4kcP9vFoc5/b4Pe6z3QEF1bhU24gy9ldAb22hVim6pZHQjunBNk3EnuiVcze0tBqb75ZjcVYZ5mcW4+tbJfgssxSfZxTji5vF+DStEJ9ey8cXaUWYe7MU394swceX8jHz7F18cP4e5qWV4JfMaizLqMHijCosuFGJhenl+PF2KRbcLMKcm4V4/0ou3jx9G7PPZGFhWil+TK/Awuu83vUSfJtWhnk3yzA3vQhfXC/A/Nu8/pU8vJOYiS9Sc7DkZhV+uF6OhVfK8EN6JeuvwLfpZZiTUYRPWP7jG4X4JKMEn6SX4FO27VO28bOMcnzCcp+x/Jc3K/B5ajZWnc9CYqVKkc4mxc6JqSAODwuaWCxijByesCOzQLnAzOwWTMtqxNS7KrxyR4Vptxow9WYtXkmvxavpdZh2owav3ajHqzeb8FRqHbr534G5wxX09cnGsJBSDA4qxsDgPIyKLMLL5+rxQUYr3rnRgukZwGPnatHJLwNW9ucxODALI0JzMZxlB/vfw7DAXLx4sQmv3wamZfC6zGNTSmDrdAldWf9gn3sY6pvNfBfDA7MxOjwfU641snwLXr6hwpT0erx0ow6T0+r5mdvrNXjxShXL1PLaKvahAU+dLcJLYVex73YRMqhhZQ2ipgROzMTf0n1Bk2JiaAW4O1TTVZlFGH+GnT6rRq/TDegUV4PO0Y3oHKVCp/B6dItQoUdkI7qHN6BHaD16htWjS0AFjBzuQmv3ZRjtT4fJkVswOpkFY/ss2DgTiPBqPJmoxui4BoyIU6FnSDUMTmZAa0cKzA5fhuWJNJifSIfh0Wswt7+F4dENGHO6GSOS6zGU1+8VWAiDwxehzfLmB67A6vB1WB1Pg+XJdNi6ZGF0YiNGJjRiSGwdBkbXogfbZBuiQpdQFWyDa9E1uIrtrEa/yFr0jqlDz6gSjPa/jlVpeTinVuNOaTlUjWKD2wDpkB4MGkVTVPQu3dvPFOcRcWXoEd8C6/hmGETVwyi6BUaRTTAMa4RxqBpmYWpYhDfBnA2zDKmDmU8Z9I8RhI3JMNiQBOPtp2F04DwMDl6BydF0dA8pQT8OQK/TdeibSKCDKmG6/xr0V4fDeEMUjLfGwnB3EnT2pRDMi+gXXYYBSSp0j2MHo6vQyfse9PYkQeu3YBhtDIPZ1miCd5aAXyDY1whUPfrENqNrVDOsI1rYrlaYBbfCPKgZlsEqWLONnUI5+KHV6BpRjx5B5Rjmcg3LLubQhqqQVlSE2no6g4cFTZIEeSJv2ZS0n2irxsRXo08cYBPdDOOwOhiEqQiYGvpBKuj5N0Dfvx6GAXUwDq4ngPWw9CmCwZZ4aH1xEF1+sMfIHWEYuiMYQzcHYdiuOPSnOvVIpqRSemwTGtDFPx96qwJgNGsTBs47gMdXOeGp9W54Yr0HBu2OwsCIMnSLbaCEN6BrWDm6OKdB9/sDMPlwBR5dugfjVh7DEysdMXipHbps8MdAmoMeIQ2wDmyEPgfSMKgJJr4cZK86GHnXwMyvGhZ+5egUWI6uAZXo4lGIvvYX8PPZe0iqrMfZ7LsoqxGfKliIF/8TuQeAJoUkMmpGLmOOn64W4InEGvSNBzoRNPNwNoJirhfYAB3fWuj5UfL8VTAOVME0uAEWkbRnlKTRAbfwvHsK3gk6jy9SMvD56Qx8mZSBD+Lu4vGoUnSJqoNpjBpWBEIk7zG/m3jb/TS+Cr+IrxOuYE70eXwecQGvht/AyKgyqhDVPqqRKlaFgbR1E5wT8Z5TKBYFJ2Jx5HnMj7iGj0IvY0LoTQyKKodtQC0sfOs4qFXQ862BvmctdNyqoOtG0+FZCWP3Elh6l6CrXyVsPfLQ2+k8lp3NQUp5A0IvX0BWQZ4GDQImkUR7+g+S1qKAtpiealRcFbpFUcTD1TAJqYcBwdHxq4OON0HzrYe+DyWNDTRg40yCGmAVUIVRCfWYfKkOr1+txvRrZXjlagmmXSvH8xcrMTCuFJaRVTClXbSgenShmjyWUo+pl6rw8qUKvHStCi9crcCkyxV48kwFBkVWoDvVSdTKIrgGfSKr8WJqPd49X00PXYZ3ed70q3WYdLUWoy5Q3WjLLNhGI7bR2FtAqoCBJ8Fzr4SeawX0XEqh51gAY+cC2HqVoatnPvo6X1RAO1PZCNfYGFy4ca0Ni4cFTQrRpuXRtC26lIeRMVXoHAEYhDbCILAWuv410PHhyHlJroO2O0fQvQI6bJSupwpGvirai0b0S1BjMNVwaIoKw+lIhp1ToVdyNWxiamARQ+kMa1AGwSqExjq2Hr2SatGP2xG0n0OZ5fzecWp0pzno5F8NU78qqlodrOl4BsY1YkxSIx5NqsejrH9Uggr9E2ppRqjuYiZoOnT9amHiXg5zZgMPguVWBh3nMug5l8CQ2dipANauxbB1zUFvB0ramVycrWyGY2Qkki+cb0NDYueHAI3wKpscdSt+YMz1iIAW2UoJU8GAtkvHu5pgEThPAYxbgqbtUkbRL4euF0eWdsIivApdY2vRixI3IEWN4eeAAaeB7oktlLImGIWoYRTcSMmsgyUlrUtcLbol19LgE7CYFgyIVqOn2Lt4gsS6rAMrYcbB0qXaGYdSpWMa0T++AX0SG9A/pQmD4hvRk4PRg565S0ANjP3roOVdCSOXYpi6lsDAvQwG0j4n7juXwoTSZupcBBt+b+uSQ5t2Dr8k5+J0SRPswiIQd4aNVXB4KJvG1FYoj95z6dUijGbnu1LSDANEFSlVVEttD4LlQfX0IIiuBNGlArquHEk3NsqnBF3CazCYUvNofD0eY2fGxtbgcbr3IbR5toE19GSNlBoOAm2KZXAZXX81hhCkR5LUGEkgRiRVYXBSOYGgwQ4Vo82BCGBowmxKb9s3qgbDYyoZVpRjYCI/J1agX2I5+tH+dQ4kIEFiOiiZzsUwdCyGPoHSdyZojtw6FMHUhTaNUtbZtYiO5R56nzqHxbHZSCpqxvHgcIQnJBAGjYQ9HGjia3lCPkFbdr2Yna1Gr3DAjMbfkKDpCWiUMG03jrwbpc2pEjqOZdBmo7RcymHIke3qXoBRfnfxUjij/ahcvBN9D7NisjA5PAuD/O7BOoB2xZ82hl7M3K8AXb1yMCq4EBNiS/E8G/9SyBVMCbiKcQyS+/kUMPgto3qW0ulw65GNvh6ZGB9yDy/E5mJMcDqG+lzB4x5XMMYnE70DcmHOckbUCAPaMAFKz4Ga4FgOPScep1ZYUmVt3IvRzaMU3ShpvU6cxcLwO4jJbsBRvxCExMWRf7cx3IcGjd6zgI5gxbUSRUr6RrXAiqAZ09gLaDoCmiJh1QSN9kxAcyrlMY6qwx1YHUmFya8n8LJzJHaRr7rVNcKnqRl7aGhfSsyBtfdtGupSSlo59F3vQntnDGx2BWGsSyxGbz8BqxmfYOaGvVh/rQhPki3Y+hfC1L+UKloCU/vr0FvtihF7AzHV8zT6bHKA6dzNMJw0F/1/PoWRftmw8S4mOKVsn2ReQ9poT02wL4GefRFMnAth6ZJP0KgVLvfQ4/hZLIrIQuTtOhz0DkBgdBTUMhnA9B9Bk69lzkmAy+eH5VdK8GR8FXoxNLCkDdLzbqBqVkOXWcu5AlpO5QSMDXMogbYjsxNBs7sFq33xMPphJ6YedsORjHvwLypEWE0pjpRU4pX4e+jimQkLSqOpF6XN+Ra0f/dBr832eOmYB8ZtPoLhSzZia0IK9l3PxASfqwwNCmHmWwxzZstTV2Cw9BDG7rDHe15hGL3jGCznrob1619jEoEcxjiwk1c5LKUtjoVsYxHbVsR2sn32xdCxy4eBPa9N79nJvQjWzlnoaXcR30fcQ/itahzw9oVfZBgaGiX0emjQ5C+9p4B2WUCrRK+YepgHqwmaCtqeYs+qFFXUpjcSsBTQHMSVl8H4RBbMtkdD//sdeHzjQfwUFoNdqWew/3IqVpy7jgnBlBxyUguOspkHbZVzJkxX2GH8ygN4e8t+vLh+F4YtWoW3d+3GD0HRGOdyHb18K2Dlw1DFuwi27KDpT3vw2G/b8NLOHXhx3wH0X/grOs/4FM/u88dg72xYsV5rDqoxB1WL4GkxxNCmhGmfIngETd8+H8aO+bB0K4SN6z10PXEeCyNzFND2e3rDLzwU9eSgCiYPBZoScjC45YdfLhbhKRrlvnTp5iGUNN9GaNEJaDFI1KJt0KIdEzeuS9XUpb3QJ2imJ+7CcFM4tOdvRW9KzLQ9h/DxsaOYfeIoZjr441GPa+gcUAgLn3JYUyJ6O98guM5YQInZx1H+xc0Fkzeux/DvvsHoddsxyjMD3QiaNVWui1c+Bp88h+d2OGODbyDsosNxMjke8+zs0Hv6W+i9YBNG+OYTtCqYsS0GtGVa9JiKtDkQPLsC6J4qpIrmw9Apj9KWC0vnOwTtHL4naEE3yhXQ/CMoaar/AjQlLmkD7ecLhRhL79QvWQ1zxl4CmjbjMy2OpJYrJc2NsRmNrQCnQ9D06K2MqZ56G4Ogt2AbBq7YiRd+348Zu5j3HsSk/W4Y5HgRXYKKFcnpSiCGnLqI3+JvKpOXkjLLC7DV1wN9ZrwG04+/xmMBd9AtmKD5FaGnTy4eo9E+fj1fmaBsT5m1VVh69DgmbjiB0T755KeM+t1oNhQpE7NBCRPwCJiOPfOpPBgQNGPHbJg63kI3tmFhVA6C0ytwgKAFRIVDLaSd6aEcgVKIrCCP2AlojyWUoi9BsyAj0POnpPnQY5LDaTGYVQJbAY6Sp8c4yNCTcZHLHWiTZ+ovPoBJx0Iw2y8ZX/snYE5oCqZ6n0E/x2vkhqRSJMrdA0owwvU6Dt0qV+ayqpoaUdnchLNZd/Hywl/wyMq9eNTnJnoFl8A2uBS9ggoxxP4M5gYmIbmiChdLyhFx8xaisu5ha1Qi3nFOwCivPHTyZWjBSF/LpZAxZKlG0sSMKPa3CLoOtGsutGuu+TB3yUKXkxcIWjZCbpYroAVGhELVpp4d0wMlTROfqBVHsOxKMZ5gvNT3dCMj+RYYBrdA24/OgIxA25Pek1mcgpF3HT1bPYypcp0IRE/PWxjudhHTYu/i49RifHWxEJ9eLcTLSUUY4kePFcB4ivFWpxDGWsFFmH+5GkeLVdh/txxHs6uw704p5sTfwLTEPPQLIsEPKUOXkCrGbJXo7nsLI13i8f3VHPyYloNPYs/h65hLmOYUjjEnUzAiuJbqX9kGGoFiDKlNDRDAdGlO9GlWDBhP6tMRmHsWobN3AbqfuoQfYvMVSTvo5YtA2rSGOpmI/2t6IGhEjX/UKOR2FXV87Okq9Dut1oAW0grdQDV0GOhqS+hBZqBHdTUgaMYk7yY+1QStGkNJc8afU2PSBTUmkCdOIg+dcLUej58lvQprZpxGnsrAVp8cUeblxkZW4rmkCkw4U8lcgafPlpNLNmFUagtpVA1BroKlMpOigm1ELcafVeGlM1WYQq75WnorXrxUi+euNuBJMo9eIU0k65WkTsV0TBxUxyqaD4JH9dSTOJKUz4Cqa0DPaeVbhk5U5950Noti8ihplTjsGwC/kGDU1cgdkL+m/yBpTVSXVqzPKMWTpytJVVrQmdTGiFxRL5AeNEA8KbkowdKlkdZh1vWuIu+sZWBZBytyxc5BJPpkBj2i6mEbWQObqCrYkHjbBrNTBNiQAOsKsSYRtw1kWBNWhz7xzeie0ozOZBKWkeSQkc3kpmpYBahg5tcES/9WdA5pQe/QOtK7egwnP+0V04BeUZXoQSpmG9kAqyByWu9yGHmQczozAJfglpG/nmspjD3o3SllJu6lsPAmYFRja+9c9HFJx9yoPATSe9r5BcE/KBDV1ZrpoY7pH6CJLdPc4pI7PM3KXZqtt0ow7lwVhp5uRa84FaxIXwzCqZ5UU2NfTef1aaR1gjh6PjUErQampEmWgdWwpQR1ZSe6E+wuJNk2BME6jAQ9iNyTRF+PxtqA9MgypAadZcY3QoXuUWoC1gRbSmqnSJL6iEYYkbDrk4QbBDTyes2wCGqGLY8NiWvGQAGZPLRntEqZOrIIJ7gcBFMGzab0zGZeVTAnUNaeZbAhm7EVj+3OMMObTMC/At0ZMHehcxngkoEv4orgdacaDpQ0/wA/VNbIPSwNLu1JSz50PKD5rInT5MaC3JLblVGIF85X4PHzrRiS1IgeibWwjqc0RbGRISp0DamFCbmhQSBjIgaqJj4VpEWlsKHN6sZjfWiDBjEw7h9eh560X91kiofxnoEfpZXqaRwotq0cvUKr0Du8AgPCyB8jKjGAkjkospZAMHTgcUPaPz2/WtIoctYQqjQHYIhIWnQ9gVOhHwHsHtuizICYBAlhL6eKlsHKs1QJdHtxIPsG19CRlKMHPXe3wEKqfQn6RpC7knY9wmB7TmIRnDPKcczLG74BPqi6z0TkH6C1H1ASdzX3E1qUe4GO2RV481IZnr3ciKcv1ODJixUYc7Yaownc4yTiw6MoUWEVMKHhNfYkcBR5KzqCQSTOo6NKMT6qGBMjChjQZmN8YBYeCchBj8BygkVHQmkw9ClCJxrs4aElmBRdgMkRd/FcfAEm0a49d7YGI+KpQkFFio0yYVBtIvN3PL9PTBkeD8/Bc5HZeDo6h1Svgg6rHoNj6QQ4OKbCVb1KGEDTbrnnY0BQKcZEluLRcEYDUfl4Oi4f43id8YmleDo0Dy/Q2SymXXTMpPf08IQnQ56qarlj+idoku8fchAwwVCjpC1IrmvGa5Fp6HQiBTaHk9BpbwQsV7ii8xJHDNwVjT72l2HLCNwmhB7Ur5pOoZSGloTc8TI67QzCBJckzD97F6uu5mNTZinmnsnBcL9MSiPpjVcRy+bD2i0XnQ6ewdexmdh+4x5G7XdE9wM+sNrmBdtjSehDaTRniKMv09W0l/oed9H5cCx+SL4D35JabL9yFzO9kzBwqwt6H4zA4GDWSWk3oyra+lXAllzYfJUXOv98FEM2emIAKViXt75H98/WwHbBPlgvOYnOvzjg6V2B2Jp0Ewf9A+Dq44aqKrnVTM2TO/iMXf8dNPoBuVkqf6/WNuIVj0Ror/OB1jJP6C+wg97LK6D76Gfo891B9Nsfg25umVTTauhT3bRpK/Rds2B8MAE6P+3Dc0c8sSv9DtzzchFUWoZddyh5wek0wLl0IjTMbgWM3MkgNoZi8+k7uKFWY9PpM5hw1B1Wi7fCZp0DuWQJLD0bYOBJx0AVNXNMx+Bd/vC9XaDc4c9VqxBbWIo1YfF4xS4QT3FQegdXUeJreB2aiZM3oP/xOhhN+wxjFm3Box8shr5lP5j1fgoGj30ArRe+h9Zry6D/zgq8tdMRu8k03KmeFRVyq1yEqIN6Kn//ntpAa1bi7WakV9bhDZdYGK7xgvYPrjD47DBMnv8Z2v3fhMm0hbD+9RT6uWWgb1gtDNlAbe8SBo23YbQ3Bno/7caIDXsw18MHq0L88VtoCBaEJeMJnyuw8S1SZlNNXIpgSkkw2ByCJcHnkdNQjytVxdiTnIofPUMw5agPRnjcIsGvpZrRwfAcG7vrGLHZHfbJ11CubkA1rW9BdTkSbmXCKasAb1Nd+9MGdiZonb0K0PXUVRh9vho6E1+B2eRZsHh0EnQNTaBnbAvdPpOhNeojaD27EDrTlmDKmsPY4uEPt0A/lJfJQoy/pv8AmrLsBLerGhhlx8NwhQe0F7hB7+NDMH5hKbT6vwH9F7+E5c+HMMg1HQMJmilVwYCgGTvdgv6ucBgs248ev2zCE2s2koRvwNSNWzF2qx36O56HNUMSXYJg7FJMyWH5rSGYG3AWBY1qDhdZARtxvbgMi32jMNr9KtWNIYQPbRVDCWu7NLwXcAVnS2twr6ISmYW5yCstQey1dHzvHIqXfdPRnzatiz8dj08BGUg6LL9cD61xL0Fn7EswHPIY9PX1oKdrDt1u46E3+G0e/wb6U3/ElNVHsNkzCK6BgSgt1Uhae/pX9RTq2dh2cyWrrgnvUT2NV3lAZ74bDD86CKMpP0HvsQ/Rc/ZqDNvkhqEuV9EvvFaZYjZirGbmkg2DHWEw/mUPBq/chnFrN2LC2nWYtHYzRq09iP7Hk2BDVqDNEMWQns3K7R6sdkfiu5BUJN8qRGFVLe5VV+GoTwie+45Au6XDmp5Y4kFTIe72NzHR+Ty2nb+DOXvsMfbj+Xh9xWY8vXwX+q5xwBN0Nr38iynNJQw18tDf4SasP98E7XHToTfpdeg/Mg56hqYwNekM3a5PELS3oPPkF9CZ/C2eXbEX6zyClLCjrFhj08Setef7g8Ykt+SbWoRCUNLq1XjHNx4Ga5ygNe8UtN/fAd2XFlHUP8f4Tc6Y5ncZw/xvoksYo3v/Wga4cnssB3q7w2H88148f8QLs91D8ImLDz5wCcQUx0iMcCZhZ6dkOtqIkmPpdhe6mwNh8/NhvLLJFfNPBuMzO09MXLUPY9b5YjBV2Zjhgh49rnhdc9d7MN0aiiFbPTF5vx+m7HTDtEN+ePpIOIbJ0gZ6W1t6cAsf8mD3PPRwzIDxnG0wfv1bDJy3GoPemQtDs57oYjsCOp3HQWvAm9B67FNoTfwCz/60HRtdA+Dg44+yUg1oD2XTQMLc2lLH3UZcq2/EB7Hn0eVwEDpt9Ue3ta7otWgf+v6wE0/bxzBMuIWBkXmwCCW/Y/CoQzXS88qG4cnT6Lo3iKBexJyE28w38WnSLbwWl4WRgffQmeojgbAF7Y6lVw7MTp7FII9LmBlTiNkphfj4ArcXyjE1ngFpMB0MA1YtUjedwAbo+9CBnLyMR6iGb54tw0eMIz8k7Xr9bBXGJZFxEDBz1m8i5TwK0ImOyWaDDwasc8KLrgl46bAv+s+Yi4EzF6Lra4tgO2MFusxai27vrcSs9cexg6C5+geivFITcnRMD5Q0oVGy6q+R6hlYVIHPM4vxRnYjZt5twgd31fjkTiNm31OR8zVg7BW59Ua1pATo+TZA14+hAVWvZ1QFnkqpwbTzdZh1pZGxXgNeuVyPCRcaMCiGRp0AGDPCtyRF6hRKrkp++swNNV68qMIr17i91oCpV1QYn0IWwQBZl0G0TBRo+atgwKC6T2ITxqSq8dSFZky60ooXLjVjwqUWDEgQRlDN4LkCegxsdV0KSJkKMJox5ZRzKrxwoRovXSzH+9er2a4azGIf3iXYsxNKsDK1BEdO38J+Nz94MeyorPozTmtPD1ZPZrFoQiIO3S3E9BslGHtdhVHnGzCUuW9KFTliGXolVJDykBFEkOIwUjfwbqEUNFCFSJXIDbuEVKAvo/n+kVXoEVFBKsVANbwSFpQaQ+Gufmrok1Ma8rN5JLlqTCWpWi16xtSRGlUTgDr0J7c0IcXSDWImyDoBzSzfTEbQzLLMpFF9kwgWQezNbEXqZRjMAaSj0fEsh67MqXlQ8vxr0I10rZsscYgoIvsoQ7/YGvRLruYg5uHJ0FtYcrUSPtk1OOLhB39/P9RWydLAv6b7giagahYlQFmftpVx1QtplRhzvYWANaH7+UZYn1HBOqEeNnENMI9RwzCcnQ9sImDklL5qgtYI01DyVFmtQ/pkS1CtSdrNI8kJKTEGBFWPYGkzutcW7kpaZETeaUbuaBnbCktZN5IAdIrX7OuEA9qBBJnnGAS1wCy0lfSqGd3IaWUSwTauBd3Yjs7kn2a8nn4QzQQ9ra7cIJZ7snQ2BgEk8gI26Vo3Sm6fkEZSNgIezUGKK8Uj4few4GIJ3G6XEjTSKD9vgvaQ6kmTR6Wk+yR6slzz9zsleC6tFk9cAwafJokmVbGMJ/djAztFqjU3fiPUVB+RBEoQ1UePdsqQ/M8imBSLBrwrO2FNzmfBrRmJvDGlwIBZmyqk619FyagjECKdtaxPBZvoJnQhCe9MoM1YtwFB0wtpgk4Q1T+okWUJEAdE5tYsw6rZFjVBbIAlATEJkpvVFRxAAuZB5+RRw6C4lLmSdo51B5XBNqSUwbjw5np0DyclI3d+LDAHC6meHreKcNDFBR5kBO3q2TE9QNLaYKMHlfWzx7JKMONGFSbeBJ6k7Rh1vRmPXQfGXmjB46mNGJLYQCmqgQ75nhBwfe86GPjU0Q6RpMc1kjs2YATt2yPRpRjJPCiiSpkyMvInCferooqSfnG/d0Qdy9bjUarLmJRKjEqowsh4qiizJVXcgGDoMO7SIsimVOd+CY0YxmsPiKrEQKryyOgKPEmeOyKkkE6mhO0oI2i8hlsFLMg8eobVKUsdhtEE9I/Ix4gkFQaeVmHEBRWdRz2eJSdddr0BHlkVOOLpDU8fD5SWyUrjv6b72zQCJWZPnICaACaV1dE73cPg6LsYEJGDISF38Ai93JPOKXgu5AKeDktDv5BsGl+qAAm7vnsljJSpmDz0dEvDKK+rmBJ2A7NiruPN8IuYFHwDfXzzSLxLYORFFSLABgwNerrcxItRBXj3dC5eJQedHFeMFxOr8RSJeSffe2QPeQSChl2ZxmaU75mFZ6LpoM5U4oPLtfjqXBGWJqUpM82DvW7DwKsYup5kJ065MHfMRE+7yxh47DTGOZ/FVL/zeGSLJwYfDEf/k/EYdDIZAw7GYVYQeefVIhzyDYGrlztKinM1mHRID3YE9J6N9J6ipmmqFnb2AvT3hUNrUwSpkQ+MZ21H55kr8Jl3IpZcycOzUXnKNJApYzRd7wIa35tKCKG/+hSe2OuFNWcyse9SBvZeT8eya9kYG3AHVh6MtdzZMfdy6LtlwfJ3b8w46otv3ELwoXsM3gq6gddD7mKSXw7jrHyYuFYqhl3HnUDYMcLfHokXnVLwZVAqlsdfxeqAMHy3ZyPccu/hKY/zlK58glwIY+9sZampwYI9MJ29Ah86BmBLyiUMnPIexn+/CfpvLILWrNXQ+uh3dJq3B5+dDMEuguZM7ln40JLGJGvym5SHEEhlqlV43TsZepsDoPWLHwznOMP0uRWwemI2FrjGYkdWPV6JL0KXYEqOL0HjCBu4ZMDiSBKMlx/F03tcsOHMddjduAXH2zex9fptTA4mwXfPgoVrAYzcCmHukoZua3ZjmfNhLNi2FouOO+A7z0h85ZeIGX7kmcJRneVGDm2gSyGsjl6E9fwteHP9LqxxcMQ3a1fhualP4/3ZkxB87zQme8aRq+bDkDGaqe9d9PC4yuB2E0xe/wRv79yDpQ4O6D/qabzy2VKYP/URtJ/5FtpTfobOG7/gxbWHsdErAI5Bfigs/y+4p5DPZllLTx+aVlWPGW4J0F/jA62F3tCbfRKGz/0M/RFv4tmV+zE76CLGUqw7hZEWebNTruUwtmdwu4N8ddkJDF53BNOOueBDB2d8am+HN497YpTjBXTzzWdkX0DumY3OrpfQ5edl2Ba8Ez+sm4sxE8dj0owZeOmr2Xh+zVY87p5JPlsMLVfaKpdc9DieApv3v8b3m1YjIt4LkRGO8HXfitMphxB4JwYvesShm3sRjJwLYUIp7u58E6ZfbYHOs6+h2/QZGPTGDBjZ9ETPUS/CYMh06DzyCbSemQ+dVxfjJbZ3Iwm7S4A/CbvED39NDwZNeBZE0ppxvZKgucTBZJU3dBZ4Qu+jwzCevIwXmoUeH/+MEevtMcTpAnqE0Vh7yJ2eEpjY34bR1nCYkMwPWLETY9duwcR1G/DUqrUYsvogeh07T2NdSpUrYs6BjVMqLH74EWM+n4CRz/aDtaUhnhw5CE+OHY6Jc+ZivGMyqdY9aLtR9V3uopddEjq9+wmeemU8vpgzDd9+OwNffDkdH86diqkrv8czPpfQiWps7FQEU2eqt1MmzD9fQ1L+NIwnPANTZh0rG+j0GAztoZOhPfw9aD39DbSmLsLkNYew1T0APoFBqC27T5zWkVP9kRTQxH9q5tPSqhrwhnM0TFcTsAWu0H9/H0xeXAatke/D9PUfYLPwIPqduIx+EQ0woQPQc6f9kZHdFgKb5Yfxwn43fEAe+bGdE96xcyY/DEA/h2sKmTZ0LYSBax7MnWlzFq+D1rMjoT3YEvqdjWDV1RrmnS3RZ+qbGO+aCmuPu7Rnecy56Gp3BubvfgHjQd3QbXgXdBvSFcadTaFlrAvLNz/FSJ87MPWgpLFuE+dcOoEMWM2g7bLuAp3eA2E2+hnoG9vAsHNfaPefBO0hb0Fr7BxovfgdXlp1GNs9AukIvFBeVKBA0jE9cLpbpoZaFE7QirRa2jQaZuM17tD5zhF6H+yB0UvLof3UXOjSGRj9eApd7dPRhaAZMIjUpnE3cr5L9YyC6fITmCg3i8PO4bPQZHwRnoDpPkkY5HyNklao2DNtqqi+yw3o/XoIuu+8D+OZU2E+82VYvfEabKa/BauvlqO/23WYeebSMxew/iJYnLwE49k/wWD04zAZMRTmI0bAfMAwGA57Gp2/3YV+Xiznlk2HdJsDkwNbu9uweHcldLsPh0Hfp2Dy2OswtGb5TiOh038KdIa/q/RH67l5mLL8ALa4++GkqyMK8u9qMOmQHuwIqJ6tLU0KbNFVKnx2OR8T4vIwNqYIT4XnYmLgLUwIzMTYsLt4NKqElKQSJiTqulRPLVdKm0sebD1vk5hn4NmYO3g1JQ+vJediZirDiZQCDAksJAgMH2jgtb1KoOeWgSG0i8+GX8Mr4ZfxduI1zEq5ilnx6QxRaJN8aJu8S+hpxa7JIr07GO5+Da+FXMWMwHOYxoGY7nsW0wLT8XhgPmxYVksAdsuFrnM2rKnSoz1v4CXvK5jqeY35MmZ5ncc7nmcww+sCXnA9j2dOJuLtI+FY6xGNvV4+cPJ0R2lhoYJHR6G6L2jytfIcAYNbcQX2OaV4L60Ck0mjxl5pwUgS6uGna5jryRDq0S+pkfSkhjFRKQlyDQGohT6dgTWj8j4MOPtGCs8rQL/IEgyLLcYwBqDdZMGdJ6mOF/mhTxkMPe+ie1gBBsWVKSu5H2W5kfE5eCyuECMiKpW5fl2vMkqZgFHK8hruODqhEqN5zuiEMgbDJTynEn0jGCzTg2spABdB1ylfkfwegUUYwkB4JLnnqNACPBZBvhmVg3Gx+RgTlYtnIm9j7cVSBGWW4HhwEDx8vVBW+Od0d3u6P2gsIDdUhBHI025H7pZg2qUyPHmuGYOSm0jQySnJ7yyZzWS2lnTGkPRGJhS1PBjhu5EmeZHEkyCbkUqZMZI3J4WyCiETCJObxZUwJlB6Yv8Y3BqSRZgzxrMgvbEkwe8cXElPTNoVWYmu4aQ7gRLKUO29mXmOlgeDW4Ji6V9MZlEMm+By2IST7BNEm6BSWFLi9b1KNaC5FEHbqRA6zjQBVGu5O2XlUwIbqm8XmoeeDJN6BxWif3A+RgZkYumZIoTcrcLx0GB4BNCmFWts2kNIWqvyQJWAJnf99twuwQup5Rie3IzupCGmJNT6wU3QI4HWlWcJ/GrZoWpoUWq0GHzqeTJOY9SuZB9ZuUipY5YbHDaBwg1lorKMgSrV061UWbJuTq5qFlDJcqXo5FcE60CCLEsRZDLRJxsm7KQOgdBm/aKe+pQ0C/8S8tlSRcotI8hbwyphxcGReTQD1i/garkUK0sRdGgyZF+P5xuTtpnK/VYOgmwt5W6VbyF6u93Ad/EFCMyqwtGQALj7u6OsJF+DyX8CTZLy9C//CWHfllmMiWerMCQZ6BILGEW2kpg3QT+AoPlSwpRV3rJ6iJ1yo91hY3XpuczY+G7htehJKehFQtybozo4spZetk6hULoEV1+WB7C8GTvQheR+YCC5Y0A2hgbR7pF8j6IqyYMWll5UMzoZLQ+pvwTmpF19Q8swLKwQQ0OZyRuHRXEbUYKerMPUuwg6CmgEzLmUoMmyVmlXOUwCamEdpoKxbzUMKenm3FpRcrvQo3/HID3objUOBfjCI9ADFeXtNu1P4B4ImmYtR6vycOmmGwV4hvxuUAJgGwkYhlDK/BqgR86oIysiSW90lXWthcr6fF3HGhg6VKAHR3tYSAnGkqRPSqrApMRSvJZYgefZwc7udxgE50KPUmPuRhUjr+xDfjk5/DY+ir2GmYGpmEHH8GbYTYyj8e7ilg8D0i1difCp2l28cjHaLxOvhlzHR5FX8FHEeXxIKvVW3G08Ey73Ue9RiouUYFiHwOkyXtN1JmXjvh7tor57GQdM7s+WwZRbS9d8etjL+D4mD8G3y3Ek0A/ewb6oaLsbJYD9B9DkS5lNa1EmITdey8EzyZSS2GZl4Yqs2lHuBYiEyZJ4dxp/5wplPassNNFxrCbvzIPV5iiYffU7+n+zDmN/3onxy3bhmaU7MXGbG0b53mC4kUMpKIaJQy4s5RbbBge8deQwDiY6Y53LdvzmdAy/ejiS3/pjjBvjOnfGdDzHlLkLy3dadghTtx3AWm9n7I3wwAp/Zzy/eSeePBaOfh53WLYAWgRElwOpp6xHE1WldAtglDoDAmjMrTWlz8Y1Gz1OXcSPsdkIu12Kk8GBCAwPQWXpnzO3/xE0zRPeLYp6rr96D+MTCVpMEzrR4Mt6CnkmSp5WUZ4lkBXejhXQOiWrDGXhXBHMT6bB+qfD0BnwFGwGPw7bgY/AxNgKphY9MHH+WrwSWwADhyyGJnLPkyGB3RUYL9uDd37/Fd7JR+Afswf+oYcQfdEPe5PC8Ir3WfQgVzVyz2aUfw82R1NhPmc1Vrm542r2VZy5HoeDoR546/ddeO5IKAa53YIhpVOLxl/XKQ96joUEjwBSI0TidPjZSJgLP1tRGq2dstDD7hx+jLmHyDvlOO7vB58g/4cHTQOZ2DTNM+C/Xc3G08lVGEQnYBOqoj1T0VOqaF/kaRVZEl+uLFKWdazaJ/O5zaekpcHip0PQG/YCRn6wEI9+OA8GptYw0DHB4DcXYuQpSppLDtUzG0aOWTA/kQazte4Yv3EfFrrYY53XKTjEBuB8fhq2xyfgOfdUdCf/NHe9SzpVBKvjF2G5YBM2uvoiPvUCDnv74bt9x/HhTidMPZqAwS4MahmnaVHa9J3vMedzcNlGOgNtAibPRRnQqxoTQAHN0vEuuslKyOgcBGeW4oi/D9z8GXK03Y3qmP4VNJE1AW1Deh6eTqGRjmtRJhb1gtQETRYr19LQMjiVBcqimrKO9SS5oR3jouOkUSudYT79e/T9Yh3GrTiEUa98SOC6oOdLX2HA/nMwo5rpuWTBkKNsRtCMVrmi1/zVGDVvEZ6e/y0+2/wbDocHYIGDO54hjepDlessUsYOdzp2CSZfrcTQV9/G6BdfRq9Jz8J64vOwfm4G+s3fjiGulDTGaLKQWo/eU5fSL8tHtST84FbfuQgGzIbMFnRGFgKa3SXMj7iLwIwSHCZoLr4eKC192FkOgiZ0XZZbCcfffLMA45Kq0Z82TW6I6AaqqJ6yLJ7qSScgoOk4MItq2jEKZzY+cRsmqz1g88EvmEhaMmPTCYya8iZ0TW3Q//X5GHXyOo11HnlnDkf8LszsrkN/2Qlov/oJus36EENmz8aQDz/AE59/jh4ff4NHTiWjp18uzCmdZva5sD56Doaf/wqjMRPQfcwT6P3cs+jx+nRYTnsLll+uxkBnkWQJbmk+lIdD2lZ306aJY5DF1IZi1yhlsnbNgtIoa27nRWQh4GYJDvp5wz3AG5XlDzndrZE1oVGa1zRsTs/H+OQa9I1tUkDTDqjXhBryHIGrPHzBGIjqKaumZbm5jjzUcPIOjH91h/64t/HaugN4bv7P0DIwhJahOUZ+tRFP+eTCRkAjCPqkOab2adBf5QCzz5djys6jmHXCCTMOO2LqruN4cpcj+tilMITJoTnIpXTkwvToeejO2wK9sa/AovdI9J/8Ot49ZI+ph90x8kAw+rqkw0S8J02HFu2WLFRWFisTLG06BvGc8oCZLm2qCSXNkvXKswkLorIRdKsMB/294Rno8wdo7fZM0gNBk6khmekQ0DbdyPsDNEtG/9ryFJ5vHQNZSplbpdIwkTYBTpyAgUMOzO3uwmZPMvou3o9n9njjyfXH8cT8VRj30+8YtzcSg73y6LXyYMb4S9a9GjlkwupADAbt9scMv9N4lwT/zdCLmBF8GRN9LqKbSxqD0Xx2Vp4yyYcpbaLNzhAMX3UMz/yyCy9uc8SHodfxRngmnvDPRC/vbJh5UKqootocHF2GNfpuApLGrhlSuox9KkjHuGUIYk6OamtP9YzORkhbyOEV5IOqNtCEi7enB0uaiBnRFe8pkvZUYhVBa2bkLXeD5IYwwRMG4EabJirqTOCUZ6NoLxwZFjgUwJaNHh1ehLGRxRhHSvRsXCUmxRVjTCjpj18pzL0LYMGgUp7yNWScNCC4EI8zxpoYdhvPRt3BuKg8PBWRjyciCmFLymPizXPE0zFbeBagDwPgSbFlePVsJaaeZfwnCwj5eSg5rqxIMpJgW5bDC2iuhdAXRsBszKDX0q+KjILshMAZc9CMSeg7E7R5MdkIJY06ERII70BfVLVNQj4UaG1zQ5pbeLRpY5Oq0D+hFZ1jmmES2QxD2jUDAqcrhJtqquPOLOBxJHU4qga0JWb+DehF8tyH9KYXo/3eZAbdoskpw8gIqObG3oUwp6QZedcqKyi7kn/2ZZlBofkYTPD6hPGz3J8MroBlkBD7cgJcSqArYcQA1yqEdpZ1DWCZAVFVGBjOspHkruSgxqRv+vJsgzxNwzYZKguTS2BKyZIVlbKsVF5OIFnuVJnJHJ3TVQW0kKxKghYAL4JWWS6u8KFAEyHTSJosmNt8Mxfjz5ZhxJlW9GHYYct4zVJWBwlojNl0ZYW23IqjxOi0PSSrTyDkuXFL4Z1+tBlCwkNrYBUsd9blRjEJvayHZTZiR+ShMnPfClixvKzbkNyFQHVmtgyQFeMcFFItPWYjb0oms6lfDXlqNbpQYuSVEV15jg0BNifpNwqg15RZF9pcI9daekge92CIwTDEjINs6snsUwirgGJlxaSlZw56u17HNwk55J7lcPD3h7ePG8rK/pwa+tc4TdbbSrghb7KSqaGdGbl4/lwJnjgHjDjdgp5xDege3kgAGmDBuE15GJVkW27M6nlUK/cadQmCHke0k6wPCyyDZTjBo0T0CCbvExD8q5W1ZsbCUckjbTji1kLYQ8opVRXKU8Rdg0nwyVdNCYbc+DUgUAYcEFmaZcytrG/rSlC7BZez3lL0Zv1dCJ51EAFhHfqsV6bfjZyrYEBba+aTT86aR0ktVxb7dQkvVpYndJfz/fIxwjsD81MK4HenDK7+QfDz8UTp30CTfN/pbvkkL2aSlUPyqjW724V4+1I5XrwCPJXagiFnG9A/phaDImowIrIOwyLrYUMgDJRHfQggGYLc+7QOrMGw0AqMDsnDQHqlgRE5eIxqN4Y2xzaA6iOS404apSxULkDPkDIMiC7HINrB4aG5GBZ8G0PC76JXGFmDr0iNrLCUp0xog2iHugeVsQ0lGB6Wh0fCsjEmqgAjwkvRl9Jm5sVynvKgRREplCyAKUbvsFJy4Tw8FlSEpyNKlXm0x2Nk0XIlxoQU4Rm/O/jpQgX87lXDJTgSvpS24ra7UfcFTXJ7kj15o1VLk5rS1ozkKjU+TWXlwTno43YTts5X0ePQGfTfGYWRO2MwYv9p9JWbI6KeLpQKclEJGs3sbqD/7miM2e6NJxxC8LR7DMYf8MGIzR7obX8dZlRHQ0qngWchzJxvwfz4eXTfG43hm70wdrcPJtqF4amjQRiyJwx9ne4wRiNoDBkMnBgHMhg1O3gWnelB+2zxwMgdrhjnEIbHT8Wiz+HT6E7HYsKQQiYE5KGxTvzc60AKhq52xphlx/H4zwcxcskuDP31FAZsIFfdGo2Re2Lxif9VnLiaD/vQOHgHhaCk4q80SvJ91VNAExWVNzvJQ2VptWq8HXARVjsioftbIHSXusL4vS3Qf/ozmIz9AAZPf4kBbNDAEEoZXbkuXbspYy9LNkLnjR9gPnY6VoQnwKGwHGu8wmD5xJsYuDkcnb1InOXJPXbIyPEGDLeGwPrbbTAd8yo+3LgfDnnl2Hb6Okn+How9wus7kqI50wuS4BsfS2M7XGD25e+wnv41Br76PvbeyMDOzAJMPByOQXYZMHZg3EhvqeuUix4E3WrObugOfB66tiOga9EbOlZ9oT90KgyeXwyd19dB54MtMP5wDWZsOYUDATHwDo1ESaXmbpQy/f9voAlqAprmbpTc92zAW+4MLtcHQmuxJwzm2MFqygoY9n0R5t0eg8kjr+LJo8kYFVkLI6qF3GazcMuC7a4Q6E/+DMbdR2DZUTscP3cOy3YfRHfy0Qm7otGZYOkLZ3XJpzTcgMF6b5i99yMMug/B9PmLsCExGT97+2Pyj+sx6dgZWLHzOi7CGXNhduQq9H44CYu3FsPqkefRe9QT+I0B6XK/YIz5aTceJcMwOZXHwJv1Mxju5ngdlp//Bi3bodDSZpCtpcWsB23LYdAZ+h60xv0ArSnLoDX9J7y49hh2+cfDJzwGZRUa0P6jpAlo4jybIKu7m3Cjsg20NQHQnu8OvY9PwGLycpj0mQTzLkPRbdI7mOJ5jTaIoQCNrA7jM1PX27Dc6gvzV+fApNtwvLtyDebZ2+PNHxej/xMvY8rxZKrkHejbyyxELgzsb0BvpSeMZs6Dftd+GPHaDEzdvQ8vrFyLJ2YvwrMnUmHplAMdR5Z1IoM4dgV6C4/A4vW5MOo1BFY9+2HqstWYvGIzBsz5DWOdMmBun8+Au5CmgjGY00VK8Xrodh0MbT09aOlqQVtbF9rG/aDT5w3oPvIttCcthda0pXh+nT22BSTAk5JW2bYSUsBqT/8KWqPyvArVU+57uiTCeLU/dOd7EjQ7mLyyGkb9X4CR7WB0Gf8GXnK+gCGMs/TdSVtEPUnELbb4wGLalzDoNhSjPvsSj638FcPf/wBdHnkWj+8OI2HPgp6jTNNQ3U6mwfAXF1hNnwPjzn3Rbfyz6PfdEvT7+GsMmPYVXiCZtmTQrOdA6uWYDfMjF6A/fycsXn4PBrbd2I5uGPjBd+j97iL0mPUznnK/QxKeT7LOMMNBAtfzMP98JVWyPwwNTKCrrwVdSpqu0UDoETTDEd9Ae8ISaL2yFFM2OmFHcCK8I6JR0/bESsf0EJLWrEjaNBpYvVV+0F7oDZ2PjkL3pWUwGDYDpr3Hw7D/RDy50ZMer4L2SebwGTw63ob1SgfojpgMbdNe6PLUC+jx5vvoOuEVGA14DgPW+pB7ap7F1HbIhtWJKzCavwv6Q56Frl4X2Ax7HN1mvAPbSbPQY+LXmOhwFWau9xTCbUDpsT10ESbvLoXhwMega2IFXfMu6EqJt5rwKbpNX4En3GjDyASEBRidKkCPE5dhOouSpNsLOlo60KZ6amsZkwtT8vq+AZ1Rc6H1zEJovTAf09Ydx97gOPhFRaO2VsL7h5S0Fhq15laNpF2rU2NmwHmYbA+jCtERfEcw3t8M45cXwuqluZSOBfQ8EegnC5UpacJHzUhLzNZ7wfi1ebB8ciasJ7yDzq98xvKzYTHjB/TYRpvGCF9ux+lSgqxOXIPxUjsYTv4SlmPfhsWEmbCZ/hksX5iLLu9uxxAHEnAPUU9KD6XT8kgazObsgMnEd+loXofFMwRsKtvy+lJ0++YoBrtnw4RhjNyE0bMnbTt+E+bfHoTxGJYfMhFGQ8dxgJ6D7si3oDthPvSm0ka/vQ6mby/DO9sdcDA4Bv6RkQTtPk/htW3/keRdQ7IkXt6KmFyjwpfXivFYbC4eCb6D4T43MczpMsacOIunTp3BY66XMMg/W3mtlrygyUgeX/TKJ3DX0N/lAkY7soxLCp4IuIzH/a5ipOd1dPPIIvckV6Uq6zOWsnS8h14OGRjucAmjnVIx2vscxgRfwxjfmxjkcVeZ4tZ1zVacgExZG5zKRi/7dDx66hLGnrqIp5zS8LTnDYz3uYNhHpRcSpkOA2eZ7pbJBD3nHHRyTMfwE+fx+MlEPHI8AiMOR2HEwTgMP5yCYcyjDybgTack7EhMw7HgaASERxC0P5/Ca0//ApoopjCCFrjnlOP9G5V4PgOYcKMVY68248nLwLiLwFiyhJFnW9EjRgVzuTVG+mTmW63curMQ3pnQiKFkEKNi6jAqrg4jmIfGy7LNGpaVZ94Zq1E6zelAugeRR0aqMCi+AUOS6jAophJDo2vRK1we8aa9dKNRdy0iz+XgkBH0CFdhSEwjhpHWDY1Wc1uPYXGN6CFreknNtCTLzAZNhgEZii3ZS3/WP1jeDpjciMdON2E8Gc7TZ5oxOrEK48NysPxmPcIqWmAfEoPQyCjU1WmeLH4o0JQ4jVt53vNYVhleuVKFUZda0S9ZhS6JtbAlGLZxalizwWZRzbCIbIFlID/71pMMy41iWYzcAH1medVOJ5L3rv71pC/16CRvyuPWUsp517BD8hqeamh7y1LSGpL5WnJWeTyHVIpUyYy81ojHhXPqkxbpsqyeDIyfLIWoUO5dmpJ/mgbWwTSgjnSrSjOR4Mk6yUz0yT8N3avIEHgeebIRea+5vEkrVPOaw270+lYhhejnfRNzzxYioKgBzqFRiIqNRUPDf/EMOwVN2ROc990tw/OXSZkoWb1SSNYTG2Ea2wRTgmUc0QqjKMAkErAIbiadaiTB5vfMskReO5A5pAm6Ic3KzWUjP4JIAC38VcoTycYETtenClrsqBbB0CUxV8g/t8b+NTBmB4VzysO3RgRXn+UMCKY+ea2U0ad0G8pTLyxryGvJUlQdDoS81kefQOm5sTwJuqHMxBAwLYIqS/BN5OVQBM6EoJkLV6Vp6eaSji+SCxBI0FzDIxETH/fHy0w6pgeAJvO2QtnVBK0VO7KKMOFiBYZfaFWeLTdKUEEnsgn6BMMgqEm5Z6AXrIax8loveb+aWgHMyEfegCUTlgSGUqZLKdTzkdkPdkTAoDrKe9jkKRdtgqIr0kNqJc9WyWPdyosF/Ck57LCZF9XZt46SxS0ly5DldFlGnitQnl/wpVSzfg3wsoa3hlLJOgUsRZpZH49pB9bDLKCJkt6sXF8vmJJNIE2p7t1oI79KKkBwiQqudALRCXGobXuZScf0LzZNHvNpVObTtt4iNTlfjiHngR7JTbCg3TCMbIVhWLMyajqUHn2CZ0xJM2GW9y/q85hIlSEdgyGlwUCAY2cEPB2qkqzS1iOh12Un9AUMdlZsollgLUwJrKmXPHat4rmsx1sksg7WwfXKzIY5AZe6dX1UysMbBsy63ioCJeVVPI8SpNRLqW2TRnMCZibmIKgeNmyfNcuZBjQoJsSQWxM6pd7O6fj6NEErI2jRcUhMTUVj2wuaOqYHgibTHLJYWW5g7cwsxJRz5Yqk9aN69oynPYuhKkapYRXRCPMwFcyCG2BDyeskKkppswhR8xi/40haBVXAQh7VZoeNgwlQEMGRt40GMstb90JZH4/b+pWjc6C8nqJGyZYsL89NCUhmATzOc7oEyfPvrD+oWXl5gHUQ7WMQ1V2mqQQQgt6ZZWzDeN1Qnh9czfbUohvtXXeqo6yh6xrZiM7BtMu8pg2PmXNfeXzcMx3fnslFYKkKbvEpSL2Wppiqv6cHSxq9hZBUYV7HbhXinTNFeOaSGo+eU2FESh0GJ9VjIB1C//ha9ImuQp/wSuUh/KHRDRgYWY9+MWr0jm5Ev+gaDIwoxeDwEm7LlXfOygP9/cLK0TusTPm+bww/x1Sjf3gphobLUqtKli9H/9AyDIioYvla9OW2b1Qty6nQO7IOfUJlprYCgyMqlHoHRFdgUBzrjyrGkIhiDIumZsRUYQivNzyCXpVADY1vVl5cIJ55WGwVhkeVYkRMKctVoJ+8+NM7HT+ey0NouQp+Zy8iLevefwuaZlFfPU8Lyi7F4gsF+Ox2I2ZlNWN6hhpT09R46Wojpl5vxCvXGjHlIvcvqPD6ZRVe43byOXkwjGUuNWL6VRXeTldhBsu+znNkO/1yA6aer8Nr3L52vY511GPKpTrMuFyPt66pMO1iHaZfIRNh+RfPqzAhpR7PXmjCc8xTUhvw6tkqvHmxGm9dr1deoPlaGuu5wXMz6vHOjQbM5PGZ11V464oab6WqMf1sE6ZdbsKraU0sx+PpDfgwsw4f32I5Xm9yYjVeDb6NzWlliCZo0dcycLf4n/c8JSnzaX9PckTzRuUm5d3Vt+oacSQ9H0uu5OOry0X4+GIp3k0tx8zTZXj7TBlmcTsruQSz4vPxcUIOvj19D7MTszEjNgfT4/LxOoPimQmFzCWYGVeIWQkFeDu+AO/F5eKT2Nv4LP42Poy7h7dj8vB2XB7e5PHpMbl4nWVei83H1OhCTIstxsykMnyQkKc8Bvltwi18FJmJmZH3WH8BZiSV4E2Wf5d1f8hrvc+2fJCYj9kJbDPr+Cr6LmZH38K70Zl4N+4OPmI7P46/hw/js/BhorQjDz+dzodrrgqR90qQkn4bxdXVdIiaKaGO6V9Ak8LMzS2oY5lMdRNCKlU4llOFbbeqsO5mNdbeqMbqa9xercS6y2X4jdL4+4W78MouwP6rWfgq4BzmRmViEd34D8mFWJhcjJ9SCvFTcg6WnS3A6pS72HfhNryzCrEu+jo+dk7BnLAbLJ+H79mRBfE5WMiOz4vL4X4eVqWy/qR0uN7Igt3lTHzjGofPva/gu7gCLE4pwdLEIvzM/eUE7deUIqw+m4stF/Nx+FoRgvIq4ZqZh2VhZ/BL9DVspBpuvVSILRQCybuvFsExsxT+N/Phm3wBlzLvaN4WLzgoiPyZHgCaZvmL8hXtmiwlFTXNYszidyUTB+IuYHvUOWyLPI8tYanYFJCIDd6R2OAZhFmLf8Lzb8/EZyvX4pOtRzHvpD9+9UnAppCz2Bx0FlsCk7AlKJn7SVjv4oe9Lq5YuX0rPl6+Dh9uPIJF9sH41SsWy92jsM43EfvirmOTfzLWeMRgV1Ailu7cj+WbNmL294vw6vwV+MkhApuCUrEtKAUHoy7BLvEmczoORF3EtsB47AuMhWNEIiLOnMFRL3fM3bAJS47YY4dvNA6HnsHxqAs4HHEG+0NicTI8Ae7RCUi5ch3lNdWkkY0M8jUPoHRMD5Y0/lG+4h8JPVrIQxtp4ypVahTWqZBdV4/sWuaaBmRX1yKPony3OBfzFs3FsOH9sWTVKqw7bI+otDvIYpl85sLqBhRV1bFsPQob1Lh08wa8PE5g/W8/4Ltfl2DTKWckZ9xT6rxXVYu75VXIrahBblkl8iuqUd3UhCN2J7B40bdYtOg7fLPkVwSduYbcWhXK6+tQrqpHZWMjKqgVpaomFNWrUKVqxO3MDPh6O8E30AV2Xs5IzbyJKpapZa5rbEZVoxrlajXPU6OmUYXGJjLu5gY0NdcrWfM7K3+mP+4RtCfZl3cNCY36I8lJrRK3iZ3TACp7UpWMgaZoKylHFXbuWIehw3pj2cpfcNLJFdcyspT53z+Scq7mnNz8OwgLcsDPi2fj5xXz4eDpjDsFBbSkmudN5aaOPNAmPzEiP/oh6XRqHDb9tgzfz5+L1WvXIyn1CuqbNOuD5WdCJCgX0yJ1yE+RSEpOCIfDqd0IC3OHt78bbmff/aMNIhRit9RURTmzmQLSRMBamlWss1ETr3bAR9I/JK0dxAcd18yVy2X4TznG79qkt7KyFAcPbseT40Zi5ZrlcHFxx830TOUcaWJ7HeJcpPaiknvw9TqG5Uu/xLrffoSLhz1yCvIVoBp5jnREHmkTCa9vauA5zThzLgbfzfsUH7//Ftav34DT5y6hgaBJO+SVjArAHGQ1R70dtJAQd2zZvBSHDmyCq6sdcvJyWDcHhVkpz/rlRQctAnprI5oJmmiXCMofneuQ/hFytHdM8t9Tx+/aQRM8WpT7fWyAuh4rfl2E8c88gi3bNsDRwZGgZSgSKvKlAVwkgHXwSGl5Lhztd+HYofU4ZbcbTi4nkEvQZLVSUxsAmrc2qKkymkeOzpyNwqcfvYEPZk3Hpk0bkHw2FSqqmSRpl9hf+SfXaG5TF3f34/iZA3No/wZ4ejqgsKiArde0Q+pWi1QRoHYpa26pVyTtT9D+isV91fPvxzqm9u86SpoAp1HUZqxZuxjDh/ek5CyHg/0pZN7MEFRZjo2iJ5byyhuzWLqkLAchAY7YueVn7Nm5Bi6uJ5GTk8362tvAa4gEiIpoFA5nz0Zg4bwPsPKX+di7ZxsSkpOgoh2Sjsn7gJoJQlMrMxsl7ZN2+XifxBefvobfNyyGv68zigo5MLyGmjayuZlANdXzs0qRsKamOm7r/gRN6ddfsbhvcPsgwNqTdFkollxYkTRlRCnaLXVUz8344L2XsWPrGjidOombaaQi7IjyQy/slPKbU231l5fnw8/rONb9Og87tqzQgJadrSkjUtasRjONcgu3rVQbuXJUpBc+/+gVrFn2Lfbt3YLk0wRN1aAMjIArkiKSo0icDBYdWGiwMzauXYCDe9YgwMcJxQKa3Ain4VdsF419i2LHCB4BU0BTHtv8w/L9Jf0PQRP8NZ2Xoko8x9Ft5kVPHN+ORQs+wM7fV8L+2GGkX72CFrFHHDWJ+VrE/oia8l99fTkcTuzEt1/MxOYNS+HmRnuTm8MGc0DYqaYmem0CJgZZ0wkgMsIL7898Fh/MfB4b1y2j5J1GI70kT1AAkF8Qkxln5bejeH5zUw2lyw5rf/0adkc3IybCB+WlVE/WLwPSTClrUdeyTQJYLXONspUf3RJBuF+6r03TGO6/Jo26tOe/gqZIhdKpVpw8sQ0zXh2Hn77/AnaH9yPj2lW0NLb9ypOUV1RUzpVrqODhdBAfvvUC1q/9QQEtN4/qKVaJnZYHdZXBoJRJCCD1x0T6Yh5BXvj1u9j++2qkEjQVQyAWUkBrYeebKCnygK+oXgtBi432xKpfvsCBnb8iIcYPVfJsgEghv2+VkIJlWgWoJjKAFoLWogFNTML9xEdLY5z/BETSfwKNf1iZ5p90RCRHpEH29+/bgJnTn8YP8z/B8QO7cEfUs1HUR1RM1KXdIRAYNtLVYTfenDYWa5YvgA9Djrw8IcksI2VlqxhnlSI9Un9spD/ef2syvvn8LezZsQEXzp9FQx1BYnzWTGchqqVuqlXOIRLKNXw8j2H3lp/g47of8VG+qKoo0oDG8iJlIGgtagLWXM1zCGBrHbNcT4Ie/uvQd8l/OIL2/HBJQBV9l62AqJEISevX/YLxYwdi/pz3cGz/DmReu8Zr8zvaG3HnEkQowSJzY0MJDu7/Fe/PmoCdm1bA180Fuffu8DtKpWL/2kGmRLTV7+F+AnO/nIVdW1dh3+4tOHc2hfUQJJqAJrWKgNVrspqd5jWaGitx/MhmrPr5C3g67UVCtD+qGRopoLF8s6oKLapK7hMwqiYIXAsljVEns1zzr0Il+b6M4D8nOacNMGblVzIoSZK2b1uL6dPGY8Hc93F07zbcun6VGAhoIj3yU49toBH0JnUZjhxeTdCeIWi/wt/NDTlZt1iWoEl5tUhPuwTJyANODgcx58u3qc6L6TzW4eK5MwRGvB8ZCxmBWrwfVVQtUkT1U9WW4cSR32kuPoDdoY04Ex+CWnn7Hm0lWEbUslVdBTRSwkTauK+oaasQR9Gef2rdH+rZMT0ckH+WEZsm9kHSju3rGENNxrwv38GhXZupnpeVERUgxDYpo6e4coLSXAUnJ/LO95/H9o3LEeTtgfxsSprUJZLZDphIEaVHzklJCmV4sgqrls/Dto0rcf3yOQU0UcfGxnbVlC2PMW4sZwB95MAG7Nj0A5xPbEVqchhU9RWsSlSTaij2TF3Jj5IriCWljtLWStCEd2oG+K94/CNOk9R+7H7f3S8p9qfNEfj7OuKLj6dh/YoFbOQeZFxJVRonPx4owaNG5NtVux6HDq7CV59NoafdhmBvV+Tdo6SJtxUjLcBxK+GAeGZxJhk3U+kAfsbyxZ9j99bVuHbpDDsqNoixGUHSgFargCbH8nPTsWvbL9i05ls4nfgdlxjnqRXQGGKoCVgTJUtdweZVanJTBc8T0Bh2tDmD+4J2vyQS2NFJPCjJd4qkKY6ANsftOJZ+/zFWLfkcx/auJ2hn2DC5ESgBp8YTahoioDXS227EJx9OxAmygkAvR2Rn3eRX4g1llKnKAjQ/awxzE9LTzmDlsjkMU97A7t9X4Or5JKgbxQZJzCXRPD0f6BgobaCk5OWk4fjhdTh2YAX83fexfDS1spzX0HjN5sYKfi5VpE0Br6mc16tS6hE116joQ4L2n8DqmBRjrdicJgQywt/w6zf45pNp2L91BdIvJSjGth00CQXEtmlAa4Cv90EsXvgWDu9dCT+Pk8jLzuRXYsRZ5g/QZMQ19adSUtav/hZLv3sfe35fjiupCbRlYoNYjsC2QECjN6SkSEhTVHAT/ryGu+NmOpo9uH4xhpIpi1pYHw2/gNTSSBvXRLWklDXTzrY0c7+1PVYTzfgvQHu4xHKKemouEBnuiSUL3sOHrz+DQ9t/xY2LcRzNSgUA4ZJt8w/KeeKlLl0IwZJFs7B+5dcI8LRDQY44gn+CJoZZ1PrihRjFPi359i3s2rAE6ZdP094JUH+C1sywQQOaGrdvnafDWAInu/UI9T+MG1diCZJIGtVPMfplBEskTVRW7BnVU5E0SuEfzuA/gNYuYf8Omnz3Z1ZiLkXSWhEa4o51K77G1x++jKPbV+HmpUQlVhKVFGpDpec+twREJOHKlXBG9nOxb+tSBHocR0EuuapIgQAmLIJ2TVFTZTIQDDGi8NuKufj206nYsWEhMtNO89oCkoDGTDspALdPHl67kohN6+bj5OFfEei9F5k3EjlYMogEhMAoIDVTunhMcjM/C2BKHYp0P0DSOgL08KCJemmydE7TSCA+IQjLFn+CT2ZOwqk963HzYhIlTUAToDQ2UhPxS3kVoqJc8MtPH1GVlyLE6wRKCm/zuEbSFNAEaHEIInlMMVF+WLLwI6xZOhuHdy9TJEeokqYdtGsibczCBqSdaVeTsGXj9zhxcDkCvHYj+06qIkniLETSwX20EKhWAkYHoKg2baJSjyJlD3AEHQFq/9zx2P2TANZeRvY1lZ+lJKxa9jnenPwEQduIW1eoPo1V/wBNszS1AadObcN7b0/A7k0/ItiToBVn8TgNvziDNtAU4BTJBLyowquWfYODO3/B8X0rKWkcFEqa1K9Ip6gpc3v586kxOLB3OeIjjiMm5LgCGhSqJKRcnAWBa/udYlHrZsWWiaS2A/YQIUf7547H7p86ntPeqVZcvZpCCvU2nn18ABwObMSd6wIaRZ8NaH8uXlRUgBPv6etzBJ99NBk71i9CmI89JU1eHiLeko1mvTIg7cBJCgp0w5efvIqVSz6h9KxBVsZZFhPbIxIpYGkcjcyPSYolAziwZznuZUTjbLwbcu/KT7WJJLU7JBkcCY7bpKsNMI2H11y/Y18l/S9A65ikvFykBWkMCZYv/QSvPTcEHgwm76WfhZqB419Bk79SfzOiIj3w/TdvYftvixAV4Izy0hwebxtlhdRLkrKa/fjYYLzzxiR8/v6LsGcokXvnIr8myFJGJFORYJFQTfmoCF/so1ReOeOFpDAOSv4NHhVwpKyAItdps4ciqUqW43LN9vzX9D90BP9Mmga04vbty9i36yd8+f4k+NjvRE7GObrxdkfwp6S1156SHIotG37Aib1rERPkispy+XlIdlw6JfTsj6TZT0wIw5LvPmHwPAdejjuRl0XGIaBJe0UiFdDYlrb2h4d4YfP673CeUnY+zgPlhQxpKF3tbdD09d9B+nv6r6a7/y1pRpb+hoFibKQ9lsx7A8Gu+wjaecV7aiRNIGuTtLbq4+MCsWzJFzi6azXi6XmryuXlIRxt4bJ/aYNmPyrCH4sJ2rrlXxG0XSjOlUlOjRP6EzReoe3cAF8XSv7nSAq3x6VEH9SU0mZSmmTeVEpIsf+2r/9H6innCWhyXjUunfNlpz5CqMd+5GakMo5iPMTRlzpFRQU0ZbKXSSTnKLmht8MeguaBmip5Mx4BVl5O3FHSNCkpIQKH9vxGm/YpTpFFVJTQ2yoqxS8V0DRmgi1Rynt5OmDOZ68hyH0XbqSGoKFSXlf4J2jK9r/s6z/UU9J/W4kmKU1grkF48EH8+M3LiPTZj/xbJNRqCT41Eqbc8SGA7aDFx4Vi/+41CHA7gMRwD9RWt4GmzL/9E7TTSdHwcT+KI3tXwdluCyoUyaHqs8K24WApuY7mAmHB7vj1x48R4bsfmZcjoa4t5NfiKDSwanJbYx4yPVA9/3P6exnN5RsaipAc74CVP85ArN9BgnaBcZoQahlV6ZTGALeffeZ0DE4e24pAz8NIiZH3yspTb2126Y9SsqfZv3AukSHEOuzYvBh+ngdRUaaZf5NB0EDc9rft1OhwH/y66COEe+/DnbRYNNYJaDIg7aDJv38Ozr+lP9SzY/5PM7eS5XJ/TZrPDfXF5JA7sXXVbKRGOKDg1kXSFg1o8kcJT6ShbaefS42F/YntcDm1AwkRXm3qqbFLHdvBM5S/tzIuw8/7OJxObkGI33GUld7mUUoOv22DSynX3rpgf2fM//xVSvIO3L2ZhMZ6jSTL9TU1Sms0puOv/Xtw+sd098Oc1H65vyb5zAYzQIwMPIK9G77BxVgPlGanETSJ8OVr/lGkTbbKSUhMDMHuHSvg7b4f50+Ho65WHn+WNmna1Z40e63Iz8tEZKgrXOx3IDGG6lyTy6ONaL8B3Q5de/kgv1NYu/RjxIVqAttmdTnrpaS1ldFI2V+lumO6Hxb/kLSHT38rK+crF2+gmrlg97pvkHEhHE11xYonVEorC0TaOtd2uoQce3f9iogQRxTl3VQCVPlS0x5NGUlSu3SusiIfF85H4+TRLbh8LpLVSTgjU06aElL/nye2EmBnzJv9IoK991PK8nlIll6LiZBvJbWDdv90P0zu6wgeLv3tPKUeqhQpjZ/bHvy+ag7upsXzuHA5Tfwv9zP/DtpZStfObb8wNDjOcEMC2z873bFpGoloQW7ObdxMPw83l8O4dilROdYss8JKGfkj5eRc+dSCuEh3zPvkBYRT+jUvzCB7UALbtvJKvf8laO3q2TE9HJB/K8NzNLahHmcSfHBgxxJkXI2l5FSJHChWSkooaqeUlz9AKkE7cnAtfL2PoKxE8/5FBVymjqa1HbSc7Nu4c+savD3tcZ28VpJIWdvKCDmZmR+UPrQgMdYLP89/HTGhJzig8hB/wx9taLsK8/9A0u4HWsf8jySHeB25eLP8k4Y2cV9ZCd2E1AQv7F+1ANdSwtHYXPtH/C0dV16bqNSr1IQbmamIT3FDXIovSso0Pxbfnu536fw7V3De9wAC9q/AnZvnlGNyh1+tqVbTNmVHrliPlDhfbF89lybDjRxYZmUboW5p//UYKSM0SmK7h08PVE+RwI5O4i9JBofXkXsD8gMy8ru+rSqWbZYvaNP2b8T+5ybhTnAAi6mVxonYCCtgWKl0spWiIRAn0KPtC9kMtzOOKK7VvM7h31JJRhzS932G07+9gbzMZOWYzBzLCiElrOVW015pixrxQf7Y/sMiXIwJY7wo82TyclCxgiKdLCODyPMfPgH/H8ff4IdINDcDAAAAAElFTkSuQmCC;" vertex="1" parent="28">
          <mxGeometry x="38" y="128" width="44" height="68" as="geometry" />
        </mxCell>
        <mxCell id="Xwab9O8QQoSItuY3KJxg-108" value="" style="shape=image;verticalLabelPosition=bottom;labelBackgroundColor=default;verticalAlign=top;aspect=fixed;imageAspect=0;image=data:image/png,iVBORw0KGgoAAAANSUhEUgAAAHkAAABtCAYAAACFvc7EAAAAAXNSR0IArs4c6QAAAARnQU1BAACxjwv8YQUAAAAJcEhZcwAAFxEAABcRAcom8z8AADXDSURBVHhe7Z0HeFVV9sX9j2MHQjqpL7333kPogmDB3h0du6OjYwGlV+m9B0IJhCpNkN5771hmdCwzo469jH391zr3XVJIJEiMccbzfZtX78vl/u7ee+1zzj33PPzW/uvbb5D/B9pvkP8H2q8W8g8//GDst3bm9quA/Pnnn+Ovf/0rDh06hE2bNmHlypVYvHgxFixYgBUrVmD16tXYs2cPXn75Zbz77rvOrX5rdmvQkD/55BMDdPz48ejbty+effZZ9OjRA/3798eAAQOM6Xnv3r3NZz179sSIESMwe/ZsA/y3ZrUGC/nrr7/GrFmz0K1bN/Tp0weDBg3CkCFDjA0ePPg0sz97/vnnDeyBAwfilVdecf7a/3ZrsJA//PBDA0/AbMBDhw41ZgO1reJ7giwPf+aZZ7Bz507nr/1vtwYLWaF65syZ6NWrlwGtkKxHhWu9169fPxOq9fy5554z7wuuPHjUqFGYMWMGXn31Veev/W+3Bgv5o48+wpIlS0x+nT59OkaPHo0xY8Zg3LhxGDt2LCZNmoTi4mJMnTrVCLANGzZg27Zt2Lx5M/bt24f169fjtddec/7a/3ZrsJC//+5rLF++1OTluXPnYv78+Xy93MCTwhbQXbt24ejRo3jvvffw1VdfGe8/duyYeX/NmtX4xztvOn/tf7s1LMise994/R2sWLMXYyYuxpRJ0zG3bA7mzJmDsrIyvPDCC3jppZewceNGbN++3cA8cuQI3nrrLeP5gn348GFTTq1euw5jJi3C3Be24cChl3kSfImvv/kax0++iTUb9mLh8s1Ys/YAjh3/Kz/72rkD/53tF4b8LfPm37F4+T480bUMLa4YivC0wXCL6IcmAU+jZ6+xBDv/NMh2aJawEtSqkPft3YP1Gzcgt00/XObXA0FJA5DRchhy2g1GRMog+Eb1h3t4b/jEDERQ8mBktxmJeYs2cH/+OztXfhHI3/3wH4LdhbsemoaI5N642LsbLvbti4v9e+NSv/64NGAQmgb3Ro++4wl23llBlmfv37cXGwi56PKhuNB7ABoFDsQlvoNwiU9/NArga8cgNA4ajCaOwfybfXCeaxe07jiYe/Yb5DppBw69iuvuHAe3oJ44370XAQxG05AhaBo6GK5hg+EewtfBQ+AWSsj9aoa8devWH4W8fsN6FLUfwpNmAH9rkNOsv2H+Dp970FyCe+EinlQdblri3MPT21dffcF/v7de/ApbvULeufMIotMG4Xfe/dAoiN7Kgy3TAZfp4Ot1E0J3C3F68qJzhOzfD25hg3jyDIEHTyCBltl/zzVsCC706Y2Cq0Y499Jq773/byxfvRt9Bi3C9beOx72PTMWchdvx7vsfOb/x62n1Bvn777/D1beOw3mefXhgh5462PYBr/hakN3DeqP38xOxZLGVk2WLFi0y3ZxVw/Wbb75ZCfKB/ftYSm1Ayw62J1f+fdsE2YXWOPB5hMb3xax5azF97hbc8sdiJOQNhSe1we89nsMFnn3xe/fujDA9kZ43BI8/OQfrN1PVv/+B83/XsFu9Qf7k04+Q2aI/LtJBp/dUd9Btcw8disaOPrj/T0Ox5IUyLFxUhgXz5xH4YktdV5OTP/30E4L+gELuJE4cP4iFLyxDVGZf5mArTNdkrjQPhfKgrszbD/L7vYz3X+pH8cdo4xrKfTX7O5RpZRAu8x9AMdcPLo5uyGs3HF16LcDK1Xvw5Zf/cf5PG16rN8gfffghslsMJOSecAuv7MkVTV7tyQPrGkwVHN0DnW7qi74Dx2PK5MlYsGAu1q1/iSXSNnrsfhw/cQhv/P0VfPDBP1kjf8jnb2DF6g3M5TOQmt8XjYNr9mKZO+F50JM9CM/F8TRPrO4mfJvwHm6ZW9jzzu8ruvDRvMdUw/cuJfDzPbvCK6IHCtqOQvd+C7Fn3yv47LPPnP/rhtHqEfLHyO0wDRf4dYNLyLM8aAPNgbOs8sF3Y+4UbBcq4EYBA+EZ3B3xGc+gTaf+uPHOobjn4bF48PEJePipifhz12l47JnZuO/hUnS4eiyC4rvR2yjoAgSn8m/b0AxcnmieETyhorgfUaPgGVtG4AKrv13NPtVgCvnSFxf59meV0A/eYT1wxXWjMXDkMmzfeQLfff+t8wj8cq3+IH/wEfKumMMQOI0Hd6TJby7BffjYhwdroPPAysOrHmB6degwljtDGCYZCbx7M0d2pzJ/DuczX/7eoxt+59ad7/VhiTSQ+Xyo5Y2VfsP6HQvyAP7NfvTEXnBlzvWOnwZH1kb4pm6wPJjQdBKcvn31ZusJIxq5/y6sDC5p1h+/434FxvVHh+vGYcS45Thx4g18881XzqNRv60eIX+IvPazGUJL0SymDF7RM+EWMZYAqX6D+8I1qBcPfg++HsADZ4dJeZ110N0p1iwbVo3pfWfo1UEPGcjfe542kL/JkK3njl78zW4MrcPhGTkBnvEz4JO8Cf6pewl5F/zS1hjPtkCfBWRn1DFKPdzaHw+elG482RqzJr/Ytw8u9e2FwOieuOkPUzFp6gYcP6k+9fqryesVck77UlwSPAseMXPhETvHhEivmDnMc5N5gEbT0+iFIfQ0gm9CT3cN6c4D2Z8Hsj8PWl8aT4gQqnN6v21uMr7nHtqXB7cfPMP6W2E4cij84kYgOK0YMfkLEVP4EsLy1yEwawcCMnfT9hPwfvgk7YJ36jY0S10FD27nEVF7wFVNIk7RSFFJ5ZrgyyTYGlFj/N6rLy716oao1IG47o7JmFG2Hm++/Q8ene+sg/QztXoN1zntZ+GSkOkEzPxnrBRu0bPgGjWLeXE23KPmwCO6DN78zCd+Ae0Fnggz+J2pcI+e5rSp8IyZyu8V83kxPGlecSVollQK//RFCM1fgcS2u1Bw45to/YeP0O6uT9Dm9o+Rdc0/ENPmVQTlH4Jv5i74ZtDoxb7JhJyyFd7JKw1g9whFkdMBntns6KPnlrBUza/nUujWc55AwUNxqc/zuNCrDy7z7Y6YtL546M/TsWDhDrz9zlvOo1W37ReAXGK82Db3GHo2QRujV3vGzod33EI0i18C74SV8EpcQwgb6Wlb4J22DT6pO+Gbvoe2lyF2L/zlkdmH4cg9hsiWryKh/ZsE+iGKbvkMbe76Em3v+gKtbvsYmVe/hZjWJxCcu4/b7IZvGi11N/wI2Yee7JW00uRsj8jnGQUsYVYZ4tmb5dmKDFZ08GAIt4zhnCeFC737EuqM/3N7Gi7+TyMuryeWrdzrPGJ11+oZ8kwn5NnVQ+b7nnFzafNpi+GZsAJeCavgnbSWnroezQjbJ2ULgW+HTxphy9LllfsQmH0Q4YXHEN/2VWRe8w6a3/wR2tzxBdrc+Tla3sYa/Zq3Lch5+0249ksT3N3My7vQjL/jlbza5G/3CEKmR3tFMbc6c3RVeGdt5jcoLoP5PPh5Vg0UnUxFnlGD4BM3mSfaPJ54m3Bh2DKMmLTbecTqrtUb5G+++Q/yO5YxJ58O2TaFb884enP8PBpDdcJyerIF2SdpgxFKPvRon7TtBL3TwPFR2M3Yg8CcA4R8lJBfI9C3CPkDA7h6yBRa6dyWkL1TLMjeSasJQkLPKqM8owg6Wjm6CrBam6qCQdQN0hSqIFhJMJx7xIziiTqHJ+dyOHI2IqLgKPf7BIIKTqBJ3FqMLfmVQv7g3+9j+bLNiM2fiiYRlseeBjl2JjziZhEyxVjcAnjFL6IXLyPkl5gvLU/2Sd4M35Rt8EvdwVDrhOz0ZEfOoVOenHH122h+iyB/ira0FoLMcB3b5qSB7J9BT06nFzsh+/D3fHgyuVKV2wMZgisB5x01HF6RUs0VBZkz/5ocXMHTKbD0GyoNmwT3ougaiGZRI+mtExGQthwhubsRkreXuuEQggoPI7DwEAILDlInHOT7R+AStwZjp/0qIP+Ajz76BPsPvoKxE1/CPQ+UILf1KHiHPsWDMozgBPfHICtcL7A8ObHck71S1sErVeF6KwFbkI0ZyHsRkHsAIUVHESfIV/3DCtd3fsKc/Jnx5Cx6siAH5e+Hb5a2O92TLchWJ4qBSq/2kkdHMY+aHG2DFmQLtAuVfxN6a1M+uob1Y7gfRsE4DQHpSxHA+jskbw9CCdNBqIIZlHfAnGjaDwctsGAvbR9fW5DHlexxHse6a3UG+dNPP8fchRvx2DOlyC7i2R/SE438++JC7164yGcgLvN/Dh5Ro+ihp0O2RFdVyM6c7ITs7YTcjJDleQLsZ0NWScQDVxnyx4T82SnIxpPbnuSB3UfI3KYCZO+0HRRegmx5pvrOLc/lc6ptD5ZjXlEjnB5NuATaNKgHwbKujxzA/Z7EdFIGR/Y6wtqNYHlm4QHjrVLzNtAgJ1zZKdAG8F6G68NwiV+D4RO2OI9o3bU6g7xt50l4hPXCeU274GJfAg6kuAjq7Tzzh1HUdOfBGg5vQvZk7q0I2ZMllKcgx1qQTbim8PJKeLFceCWvJ5BNzMXbjCcbwAJNyH4mJx9EWPOjiG1nhesi48mfG8gtbv0Q6Vf9HbHMyTrQUtd+VNcVITdLfonwKLxY6qhe96BHylRONWWN7hHZB97R/Qh7EPd3FPwTy+itL1Ktb2KaOILQgiMEJaCEa6wc6I8a90fAg3ky+GVtQlLeMDz6+Cyq7D14j2K1LjpN6gzypq1HEZAyA43D58I1ZhpcwykygnvTO3ozpCk/9TWgvQnTiyArQq4+XC+CR6Kdk9cQwjoC2UDI5eFaClsq2Z/lVGD2IUI+ViPkDCfk4NyDFmTbk1P3wJvbezG6uIb2NJ5qBiJMbu1JyBROzMvNEooRkrWYQmkXQhhiw5hLQymaQuiBwSavVgOwFhZYYHl5iDw+bwuP1QBc4MUo4eiFlNyBeLLbfKxYux+ffPyp80iffaszyJu3HkZA6lQ0ihRAgaJCjimDW+REM+rkyrKhsf9fmL+60ium8PP5hDqP35VXyyTIKngyc7KX1HU1nqxa2SdVgkndkbsJWcKrek+W+BLkrKveRFxLQqZAs4QXI0HaAULeDTf+XRf/Z6mCexFud3ry8/CJnc7SZjH8s9YQxl6CPIyQ5kcQ1uIowooOI6IFvbfwIN9njqVVB7A2ZiDTBNmRs9WkhqYUbC4s5zQ483vP3nSObijoMBzP9ZyDnbuO47PPNFOl9q3uIG85RE8uRuNI9WQx58bIU8sMNG+VRdEz6RHTGfp6wSXgKR5QhsaoSfy8lF6kEK48rTp5njNcO0uoaiGzTjaQFXb3ENreM0BWCfUO4lq/jKCcw0ao+aRtZI6dZcKxa3gv7t9o+CXM40mwgaFzD8ExhMpL852CqQKYEMINbX6I0AV43zlBFmDbkx05W0yKcDXKXaqdap3aoDFr6wt8+uIymm/4QOS1G4q+g+djx84j+OKLz50Eam4/E2QBtvKuFX752q5/Y+fDPXo6/xMj6DGqJQcyPA5lnptAATaFwAlZoitxKTyTV8KLodqbodqCbIVrH/V8MY9WhRxOT4sj5Mxr3iXYL3H5Pd8aa3n7x0i78mXEtCSM9PVoxrTgE18MR3wJt1+CwPytCG5xGI7m9FaG4FATgmsGp89CCTisxX569bl5sm0hPJEcuRvoyTwmBrDUvep2AR8MF2obF8JuHNCPQrYb/s/9SXg6nsWo8eudBGpuPwPk8nxbnbnT3FgLezBce8XMhnvkDHiGjWKYfBYuji7MRT3gonIlejw/n07g89GMwJtR/XrRk30J2C+dwkuCK42lUzo9IZMHnXVmVNERlkmHkHLFCWRf/SqyO+1ASvv1iGu1DCHZcxBIoAEZK+jNWxCUu4MeSZiFRymYLE+VV1VUwDWbvHefARxWRC3Av2vUNN+v/vs1W7knV4QssSp1z5JOukYjaKH9+dloOsp06pEXEJKzDReHrsUT3bc6CdTc6hAyc3LK1DNClgm0ZczZ9Fx35nDznOHcNXwE83YPNPF/HK4BXeDu0CiTpgzxPx42HK4RjACRoxjqx/BxHEucMcz7PEmo3D1pHqau7Qu/2IHwTxjPvDoL/mnLKcx20WMFkzAE9RzEkgVTeVqgDyO85WEDPLT5T/vNQD1SmQcyJ3tSDwhs06C+PBYD0Cx+PPxT5/PkXEMVvtfoAO27TorGsVvQpe8uJ4GaW91B3nyEkEvQWCNJFYBWZ57M1wYyQ7jgmqFHijQz9ChlLUEWw3AvgBpiDOoOt4Bn4UHx5mGGHaXYe6IJ32/ieJrCpAvPdKr5qPHwTiill79EqJstDyk8RhhH4KiVh9bWnLWtAW2F7IiWytNnD9kqn/hckLOZhmImwjd+GiuA1UxBO03NHcwSLZifK2+HmO32IoTbNY7ZRMhnvnKzDiEfI+TphGwJqOrg1t7KeAJItM3jmUwRFjPZ5G33EA3+s7wI6mHCl1fMGPillDJkL0Fozi5Tq0osmXrVeOq558rqzYbMR5ZT8ujwFgrbzOn0NFn1251ugixgghnAEzOItXd4wfHy/c+zf4sp4tSJyr/J1/UPWeGaJVTjKFt4/XRzk4dLqPG5t/qyGc4t8KVoyrzkHTcVwdnbTfgKKTzEM11gz96LfroJskyiS0JsH/dDHi3QB/jceQJUu21lK+/5oqbJ3gBH+lKE5h9xfq7f2OM0u9wibNuTYwm5X71Crp3wqo3ZOVuQPRnKVW97ELYb1blbdDF8E8v4H2XoyrN7mCofuPqz8r/tyJNXC/Y+o7wtIVb1+6qrVZJV2I7gBE8nqX/WOorDxfx/2ZBlVlpQ6jnVcSLvZr3/+9D1eLzHZieBmludQd6+jeE6leH6VAlVh2amCxEwlbYryyzfhDnmP/vLAj7dVEpZYow1O01Rxuq7VqQ5RkV/EH7ZWyi0LM+UnYKscE3IAYRsbWNHgn38v+4zAzA+NK+MA3BP2MmycT0SW7+ECdP3OQnU3GoP2dmFWn1P6ndYtWY//BKnwCVypsmnHqbr8lyBK7fb/dyEzLLLNYqeTMg6MIF1UJ+euwmGBUTiKEh92EwfGiwJZXkWWrgHjuwFCEl9HrHp9yE05SEEslSy+rkrhmvLk/3TF/P5YZ4IB3hC7IMny0XPlK0M5TsRUbQKHe9eiwGj9mPl2lfwxhvv4rvvvnEyqLn9ZE/+9wcfYP+B11E8fSNuu28yItJ6oxHVblMNkKukoVjyImRPwrFgnwtwwWa4NpBLCLnMeMAv6cmW16qUOcwceoyi72XacQRQAAZmLUFY1kTEZ3RFSs7NyMxrjaycDOTlxSM5+WoEZ20jZIVtC7IRXvwtebJv8hJ4pRyGa/wmlmab0OqWdXj02Q2YvWA/Xv3bu2a5q7O9+K7WkL/95iscP/E3FM9Yjwcfn4GijsPhG63LTrvjEt/+uCyAyjd0MFw1rqqptSHd4UIF7BYxmuG2hJ49k8CZX42Iqg7kmcyGPPWUJzt4oK2wXZ/GE0sqXrM58tWRQkA56xCcWswTvSvi025BUmorpGUKahry87PRvKgAhYXZKMjNQGLK9ab70oZs77/0hV/GRqS2noVHntuJaXOOY/uev+PfH37sJPDTW42Qv/32a7z2tzfx4qqD6Np3Hlp0GoHwpIFo6uiN89164mKfXqxV+TpME9TK5x6boUUzFquiXlNoe5rRJw2oq+71jJphervcTTg/m1LLCdmZk23IlQHUnal2tUwn0kEz6O8oOAFH7hHWsxuo7uciIn0Q7W7EZ7ZDZmYusrJSkJeTivycbALOR35eHnJzc5FfWIjmzQvRgsATUjojIG/TKcjW/4N/h5Bd49dhyPhN+P77ur2uqkbIazceQkxWV1zg8Sdc6PUcLgpQOB5ILxVA9ataHeiCempyuRO43lMnuy4k8+RrzVB013eD+3K73uY6ItfwcfCMnk7PtgYlTKdItXBtqwz5Zw3XDJ0amAjOIwiF0txtCMiYh6DUAYhJexgJadcgMS0H2dlpyKN35uVmEmoWLcdArWw5yCvIR0Hz5mhVlM/trmVO3lgJskyQm8SuxfiSepytOW32bnrqeLiEjTeQXIN6Oyez97WAmbnFAm5DteYZn/JmftY0VFf1d0UTx7NwUwdGSF+GdIZ1c8VEHzNe6xo+EO6RExnSGc4JUcOU1efv0z1Zwuvcw7VOFJYkOujMqQ6aX+52Cp3lCM6YiLDUxxmCOzP8tqKnptM7k5Gfm06w9FYCPB1qFRP4PH63IJfenIvUjBsZmjfzb1YPeUyx3U1Zd1dY1Ah55vx9ZiJ7UzNVlgIqutT0EzclpKYE7kJ4utLB9mbXsGGEPNTMSNRVEG78jkfkMITmLkBA8lxuO9kaVw7V1Q4DzCUt5mSQZwd14zb9rNmMkeMJW4paw43q4iR0p1q3cvK0nyy8FHpNDqWyVVenmZ7DmtR0K2auRkhaMSLTuyI24w4kpbVBRpZAZiInT/k1i4Dplc4QXGtzQs7h7+QXZiEl4waE5W9FSHOWVM790onqYNnU2ECux4l8gqyOB9coe8iQFm+JJrfoaRRU4w0Ul5De1kgJPVMXkunaJo9whmgq7IDMLSi49j1EsnhvFrsOzTTEaKanWjMwFA081F0p+GH9ub2ihXJ4D743ivl7MrxZQnnFL4AHa2Q3Qj97da3vCC7B8sCGFL5qwDqyNyMkax7B9kV06p1ITb+cnpqPnGx6qgTTqfBbC2+tjZnfS2dOvg4hBdsQ1lJ96twvpgMbcpO4NRgz9cwDDmfbaoRcOo81WqQgUxyp18mMC0soyVgWGQ/T3KxpFFQsmcJ7wid+CgLTlyM0Y4V57hU9DkGJk3hCDOHJ0I9hW/O+NBWov3Xht0I+I4Bb+BBC5YnB155mKQlriE0DD025nXvYcEaSKebvukYL8txT4bo6sA5CVa2pDggHFbAOYFDuLjiyFiM8fSRi0x5jbuyM9IwiephyqsKvvFWeWw2gn2zyessU3gty0hCfdJ0ZbQrTyFWLQ9zPA+XhOm4VIdf9UpE1Qp5NT/ZkaHQ1o0o1iSJNhpdwYmiNnUCBsoPlxF5C7EOgT8El8Bmq8e58rUtTKdokygTR5GwrzFfM6/YFYrrQ24PgveTlwdyWUULTh5pSqTdmadYsoYTgnB34VQAHq2cp76TpPHBkL6OnjmFefRQx6VcjLbsNVXAGcnPkrYJaR15aG6MnF/BkSmAJFZjDnFxo9Y4pItnqurIn10NOnjFnDxoHTYZLhACfSfnSq6PH8uBuYw24icAn0fNmMA+PpKdKZFF4MQSXT0avLNqqmrkQPPx5c2J4aJqsVDlzvLfGVyP6wy9phhmDrVwnW8AdGdMRmdIVcQzBianNkZWZiQKGyfz8NBSwhKlXsMZsb9bfJuTUGwhZdbJOUvVJO3vLjPBafUp41R3iH4G8at0hJBVNwKVBE3BBwHS4RFI8aaCgEly+1nsK54TsyNvKsLiekIuZSxfQFvI5w3v0ZCroMWhCde2imjlYE+YYhnUdrwGrSe0qswhetbVzlqQblbd39Cj4pixAYOY6hGRvQ3g2w27GUgTk87FSuGZIztuFyKROyMmKYXhMpSkPsk7Nz6OxbqVVD+LnMhtwLnJyMpGRkYjIuKsqQQ7Os4cQ6z1cW+fRG2/9E8Wzt+Ouh5YiOG0iLguZiktDZqJxeCncDHALsEfMfHhFjTfTahzZawl1EvOxZmtKqGmoUJMAKJyiywh7gimjlGs18O9Kde0W2stM8HML07zmsWgWPwMB6YsRlrMNIeqg14iOBv7zjyCA+czBzwI1iT2vKuQdiEvqQLBpFQ70L2NZWVlIT083lpqWiuycDNxy87W4+vou3E8eJ5NuLMja/9PVdT2E64rth+++wMuvvomppTtw3T1zEJ5Vgovp4Rc5ZjBnW9N3PKInICB3JwIN5MnwMjM9ZvMzGWtcfsctmgqdpZjCuysfXaMmmdLJO2YMAlKXUI2vgj8FUlDBUavMOdX5r5EYChSN1OhESl2GwDwdoNMhxyZ15EFOP+2g14cJbHJyMpKSklBYWIhOna7Eww8/glGjRmPJkkU4sH8nhozkvjOlBeZqgEJeXNGTGa6dnlwv4dr6M7TTbubxLY4d+ztGTtqIK++YD7+4SWjsmEpBNBr+Jievp9dSWZtBfydk1rnWNB+KtGi9R8AM96p7PULHIiBtBYJUNzKECaauF7Im1Gks1YYoyPssT24AkLOzsxl+M5CWlnbqsU2bNrjvvvvMutvz5s1zruJ7nMfrBE6cOIbX/3YSg0fwZM7eSMhWZ4h1mYwtvMoh12WrlSfX1L788nPsOfh3DBq5Hm06jYF3QjEF0wh4RI1hTc3aVmAr5HDN7bLmY1szP9xYd6seDiRkM7vDBmbgyawDYEE/6ITMEyl1KZ9rTLZ+IQusYCYkJFClZ6J169a45ZZb0L17d7Mut5Zp1s1QtN72unXrzMJxen3gwEHafrx88ggGjWCqySFk57Qeo675aAkvqutfKlxX3yrvxOZtx+GfWoKmoeNNR4dH1FTjyQa0amwncE3tMdAJW5CbssYOSK8C2cCVyZN3W96tepe1b2CuIC+n8NLVgBXVdd1DrphXU1JSKJ5ycMMNN+Cpp54yC6uvWbPGQNQK+1qTW4ura3VALbz+0EMPVYB8oBzycEHecAqyzAyEVKmT6w7xOXqymj2yuXnbCfinU4VHUWhFFMMzfDQF1jC+HstcrDU+ZpgOFWuGptOj+dq1GshWnlIdaU2MCy7Q5PnNcGRuZPk0y0z/sZR13XuyPFQ5VblVebVjx4544IEHzF1qdJsirbOtO9UI5htvvMEwfMIsuK4Qre/Kix9//HFzMui5Vgz8McinJg1w/xvXd51c22ZD3rT1GCFrSq5EliYKWCBdmZ91tYRH2Eh4KJRTeds52l3TeU5BptiisDKXfRKqrusNzNgI37Sl8E2eBZ+YyfCMmASPiHFU34RMwOeakxV+BdUo4NRU462XX345xdLDBlppaanJq4Kq+1Lp7jTHjx83q+XrHhd/+tOfzHfkuV26dMEVV1xhtvvLX/5ibnSi8K3v1hqyCdcNDLJ24xTkLYI8DY2lmjVvmiC81RtmwjQVOD3ZLWIi3AnVNWw4n4+j+GJ4J3hHxirT+6O50gGZq9EsaSZPENbWMVr1hyeJQr+ukUpgno+aRsjzTJj+KZDtvJqYmGiet2zZEtdeey26du1qwOlmYrq/hXKq4AqqvFfeunTpUjzyyCMGom5wMmzYMNx7773mRicCrrvftG3bFsOHDze/p8VezwTZtqrhui5b3UHefBR+acVoFFVKL1V97My9TnMXaKppNz73jC4h7PH08JGmZm4Wz7o6YSY/Kzbllwc/d4uZyZPFmdP5e2bemIRaZDGaJcyvFWTlUOVVqV95q8Kw3r/xxhvx5JNPmrwqEMqb8lKFX63G+4c//MGEXMHZsWMHnnjiCdx1113mBmPaRl568uRJs82DDz5oPr/uuuuwdu1aA1+52g7tZ8rJlYRXHOvkqQ1KeFmtIuRAc5mMBaUqZDOwwfCtE6B8XjVDdvQ0uOjy1mhdt6xVf9RxYok0k7udZgSbgTyVkOcisJB5ujrhlXgFoSYZoArB6uVq166dKW2UV7VmttbK1p1m3n77bbz++usmb2qZZYVX3b9C39PtiHTTEt3JRuFYoHRi6MYnf/7zn1FSUmJCtL4n4aW73Whb/dbBgwfNtuX5uLaerBKqHrs1a9sqQnakMFxr3rXp6SoHJPNUjawL3PiZOkbc5aUxpQTNzxSKCVy1teAbUSYz21mPNUEuP1CH4Mjdjqj49mjfoZWBqntHCYA8SgJJ4Vf3ipIH6o40ulmYcqpuEyhPlcBSKSRPlQfLWydMmGBuPjZlyhRTKq1atcq81k3G9Lh3716jos0624QpwBXtTJCVk6vrDKnLds6Q7TOu3JMVYqvzZNssL7VM3634Wc1mXTtFz2d+bpaonFy5M8TBg+bI3oYnnhmNdevLQ7Dgyqt0006BkyfKk3UzMeXT66+/3tS6yqmqe2+66SYDXmFZnqn7TAm+Ptdi6vpdva8TQL9th+PKQKuz2givX7BbszZts/Hk2kD+aSbIuuTVleVYMy3CogvFK0DWQdOV+qMmLMBrrx43B18HXh4mYDfffLO5C5zgKuwqvyp0C/Rjjz1mbgX46KOPmrvIyat1f0h7e5VCei6oAlaeZ8/GauPJDbROtpsg186Tf5rZniylXZ0n25AHj5qD48esXCgPXrZsmVG6giTII0eOhKbw6G5x8m4pY4X12267zXi5oEo0Caxg6rXKKN0DQ6vl/zTAstoIrwZYJ2s37JxcX5CtcD2XB0e9YZUha8bF4BGzCdkCIc9TTlbtKmhPP/20Cbm6Ta+8ePfu3eYkUPhVKFe5I4gqmwRXJ8n+/fvN99W5Ie9XmD4d4Jnt4MEDJsIMHaUBihogN8Q6Wa2y8KoHyEZ4lVF47ak0/acccikhW/lR6lb5V2WOShzd21GQ5NV2CBZYAdWjrYYFWd6rfKyTQEJM6ls1sj6rCO/HTL+vE0WC79gx/p3D+9BnIPe9FuG6LtsvILx+mtmQPQxkhmszelMd5PJwLbNB2/3MOvD2Y1UgdniW8Lr//vtx6623GuUtMSZPVsgu79wo3842/S1trxNBYPVddaooDfTr1xd33H4TUjJvQED2elS8TEaPDbpb0271IbwM5ArhumpONpBHypPL86YOvu2pel4RUFUTJHmePVy4cOFCI8CUsyXQqvsN/bbdMaKTRHe40Xba5p577kGnTp1MZ0xiYgIy0pMRndDJeHJFyOWe3BDr5Ap7Ul/q2hJehFyN8CoP15Uh21YRTnVme6Jyt7ow5dHqutT7Ctnq0dJJoO/YdbfyufK7FLw6STRIIWEnsOqQURequk/NlRS5GYhNvqYSZNsadLemzbk+hNepEkrqWp5ci3B9NiaYCrUqqTp37myGC9XNqe5OfSYRplyu0K9eMJViCulFRUWmL1w9bBrwUFequlQr9pkLckFeFuJTOyOgAuTKwquB1skV1XV9hGvLkyW8Ko8nl4frWaeE19maQCrsaqDh9ttvN56pcmrLli0mr6rGVqklqAKpUSuZwFYGWp1VD9m2qp7ccMJ1hVa/wqt2JdSPWcUwbudVhV8910iUPFRiSwJMQ4gKuwq/CsO2p+rRfn6651a16iFXFl7lOblBebLd6l1d15iTBbnmcC2oEkjKrQKrvmyJJZVIGmRQiFZe1ZBhQUHBqbxqh2Erv1qzRpo3b27GntXtqYGQHwddC8gNvU6uL+FldYZU361pQT49XAusDVWeqryqgQaVR8qrKpFsoBqSrJhXBVXP1a8t+ArV+lzv33333cbTpbw1Ji0vrx6w7OzCdV22cxZe9dnjVUl41ejJZTh5wurYEFjlWIFVF+bMmTNN16bCsGDp4Guaj/Kq7aECaCtiQRZg5edu3bqZnKzS6KqrrjLva8KBxJZe6wTQe5XBVrRaCK+GPv2nfoXX6ePJgqy+6xFj57O8OWx6rOy5V/I21avyUkGVx9keKqA2HD3aEwo0DUifKTerp0vA5elXXnmlUd/aXieEAN95551nACyrjSc30PFku9Vbt2YFdV1xPFlDjcF5O/CH+7vj0UfvR4cOHUzOtMEKgupXmfKnXsubNeKkSQXyZgFWjpWC1tCiwAq2DVSwtJ26SPW+PFmhWr9jR4KareacXN4Z0kC7Ne1W/8LLmtFpQ9ZB0syQyPi2yEhPrKSCqx5wAVEOlodqFEpTbAVNYVkzNOWxAq0TQs8F2L6OSs/lzTLl8vbt258hF9tWG+HVQOtke1fqK1xb3Zqakls5J9uQ45LV4/TjszUFWV6rUBwXF2e82bbY2FgjshSCFQk0oUDqWe8JpmBrW8EV5JiYGJOPr7766lPeXtW07IQuvmuen4qE1I7Ovmtr1b2aPLnBhGvtyC8jvE7v1jwbyPJQKWPBFjjNDmnRooXpzhw1apSZjanXCsuapKfPtZ1CutKAvFzbKjdrhEudJrpEJpORw/p9mS5oT0deDkVcThZSsgqQmNIZ4Sl9EJirqz+4v9zvysKrAdbJvxxkq1uzusn1tYGsEH7HHXcY2IIszxRUeaOEmp5LdCmE6zPldJnKJAFt1aqV+VyiS6/bt7+cXpxuwrH+tpZ6ysjMR1LGVYjKeADBGYPgyJ5P28J91Hol2m/rEqBf1XiyCdfJTsinTeRjmDVTchcS1CK4xS40ryt/58ftdOFVeTz5bMO1PFl5WZAFT54okHpfHqzQq8/++Mc/milBmpn5xBOPoz3BZ2khNnpndmYqnyciMyOZ389GUurliE6/F6FpfWjTEZS9ESEKywVaH4SmdavNepv2Ptccruuy1RlkW103jSiHbM21fgGucYvholsFRY9CQMRT8At7gp/NQtOE5XDTrYE0NbfSBL/T7TThdQ6eLFOYlUfLIxWO7a5L5V4NNUqA6Xv6jjz22ms7m1V8MjOTkZuTisx01tMZ7RCbfiNCU55EaOo0BGevZa2+i56pS29PQCv5WvtYcT8rWyXh1dDHkzduOWrWu3YhZC2tqGm3HlFT4BPeHaGhtyM6LBcZwcFoGXQZWjoaIcG/LZI8bkOo35NoFD0PjaMXwK2aqby2VYb803OyoMkkpuTBElAqgxS65eFS5ALcskUR8gk1NzuDnkq1np6KpLQcxKR3RmQGoWaMQWDmEjiYX3VxvMyIKbMwas1Qq5rxZD5a6po52Rmu6w7xuUKusCebCNlfi5ozXLvFLIRX5ECkhCaiwOGGdoEXokPA+bjC60LccNnvcPf/nYe7zjsPD/DxFjdX5GRcjVYFt8I/VguvasG26iErJ9c0ke9sPFkg5bGaO61QbESTWQszh+pZCll1dSrSJJbSr0RMyj2ITOuP0MyFCNS1xfq7hScJ9Cj/rqbx1B5qTdZguzUrNoVrG3LT2CUIC70XV0QQbPjFuNrtQtx//vl4gGAfueB3eNinEZ7JuBQ9OzXG4LuaYMJjLijr2gj3dW4F9+iZ5R4dwzCuqy5idOJUEF4JC3igeXByeXCd4e5sIGvdS2stEULNy0S21sTMVV2dicS0FohNuxvhaf0QkFHCmnY1Q+8hy1PNgql6tOZn1YX9KsaT7WaHa0F2jX0BvqFd0CG8KTpHXIg7Lz4PzxHwo40vwZCb/fH8Hz0x9nE3zOnpjbm93LF0gBu2DvfErO5x8E8cR6DWSnzeSXPgnzEDAZmz4BFPyITvynDtHT8PEW32ILrDfoS33cuDJKV6ZsiqVxWCCwsykceaNTMnnSq4FeLTbkR4aheG4BI4slaxjt1FsCcpkphXCdWsY10H3vpjplVy5cmjG1qdXHFPNhCySijlZC0a05Qw4sI6IissGh2bRqK7qzsejAjAuJ45KHnOEzN6BmP9uBhsKU7AxuJkLJpYiKcfv4FeWmwgy5ODcqcipm0J4juVIbzVIngyF7tGFiO6xTy0vnsPCu/ZiNgbtiCgaB8cPEhVIVv1qsoaLXSqPuoMljX5SCDUmNQnEZQxirYIwVrITeuUGE+lgBRUKndrTWtZ9WDqwpSTtd61IEt4jSxuaJArNBuy1LV79Gy4xFE9x5Tw9SSEJg7FvVc8hKtSr8DAJzMxrY8HJg9vj/mTb8OUYXehX5/HcdMDvRDZegpzr0I1c2/0LIQ3n4GEjrMR2X42Eq9ZjLg28xBVNBUFty5D+3t3ofMjW5By4xazOpCEiyDHp7RHQb7Cr6AmIV31aloHRDOvhqYNYlmzBAFZm5hbFXJ1B/K6y6tna2Zwhfk9gPvimXII5wUsxsjJ251HtKGEa+2Hc1/scN3E1MmsgeO0IMxcuETNQ7OsMrR5cD1iOizEFZ2fw21XtUL7P3RBwe3jCG4Ssm58ARk3LUFUa3qrFLREVtQsxLSZi+ybFiKq3SwENZ+OsEJ6Xk4fJLZ/EdnXb8cdj+9C89u1WpClToPydMFbK0JtydLmfoRldIeDpY0jawO9kyeCgJqlGA/T6h+qWTubUP2y9ps7vXqn70GzlA1IbLkaNz28Hd2Hb8GRE2/XrRuz1SnkwNRiy5NjdR2yyigJJUKLK0VI7iL4ZVI5JyzCpaEz0Di+FE2T+N3kUvhnzaaVwjdZ94KyIGtNz5jW85Fz80LEd5gHt8Rp8E0bT2Cj4Jc6HxlXbsHdz2xFx/t2I7g5IUvx5u1BEBWwI+tFCqbdBCpPPc4DfJiPgvoLeCv3K5ChuFnGAbglbIdn2hpEt1qP1jdswBN9tmDxypN47a/v4csvP7EO5M/Qzjlc2yed8eSUYpOTdVmqW2wp1TBhqaODoN2itLQEwWp5J77vpu/o8lUtAcX3FZ5lZpFWKummUaWIZHjOu20xUq5aYlYu0DXMrlqOgs9TrtiMm57Yhsv/uAuhRTqYzgOrtTWNx0osVT7g9WNaa+wgfDL3EexeNEvfyXp6NaFuwsPP7cb46fuxa/9r+M9/vuRRq2OXraGdM2S7x0uQVUJdFlmKgNy5iGg1F1Ft5yGh02IkdnyB4XWVsZSrljLPLiXA+YhsuwAhhXMQ324RIloQ3FXLENhyDpoVzIZXXhliOs5DwR1LkHbNckLmScFc3zSqGJ7J8xHbZgOKbl+BvFu2VYZcX2YihxV+tbqeX/Z+eKbuo7duppDbykizDrc8tgajS/Zj57438a9/vc+jdOY7v/wcrQ6El3U2rt90mF44GReHlfI/zTx6+VwEFk1HyvVLkHXLErR/YDPa3bcRze9ageb3rEf8lYsQRE8NKipDRuelSOw0F4V3rURIm1kIbMHQ3bIMUR1mI+fGBci8biWVtepmQZ4Gr8T5iG+9Ci1uX4SM69citLnUdTUgfhZT+KWnZuseTbqlzx6Kpo1IaLsKN9y/Hb2H7cHiFcfwzj/+zaPynTk2v3SrA8hW23fgJFKojhsFF6NxCkEUzYYnvdm/4wKEdZpP2EuRc9OLyL9tBVr9cSMhL0ZwqwUsf6iYOyxAXIcy5N76IpKvWYiIdnPhU1SKsNazkHr1AuP9ngkK4/RmerIXS6nItpsQf9MaxF292txR7eeEbJZ8VF7NVF7Vzbm3Ia7lRrTi3+/SbyuWrDiJk6++i88++/ny6rm0OoP8ww8/4G9vv4ups7bhlr/MR1jReJZRU9AkcTpckmfyjJ+NwJz5CC9kaC5aCP+cuVSZ8ylEZsM7g+IrcyZBlVKBMgLkzaUinw/vtOnwz5iJgEyJN60xItU9DT5JDPNFOxDantaK6to5bFc3ZoVf/5wD8M6ip9JbvVJ3ITB9DfKv34AHu+zAxJK92H/gVXz1le76YieshtvqDrLzUe3LLz7BgYN/w5SSbbjm9tkIoiC71DEBv/ebhEZhs+AaqYVXSyjEtMrPVOg2+Lp3spvei6S4itK9LybxM6p1rZ4fWUIvnmkWfHOJGA2fxDLC0MAALXcnT46dfH2uoAnW1Kt74J64GSF5m5B2xUrc/Mg6iqXD2Ln7Dbz5zjv8331t/Sd/Ra0OIVtn9Hvvv4+/v/46Pv7gX/ji0/fxzddfYtuOI+gzaCna36glnAbgAt8huDRwNBrrbjVRE1h2jYXuKOOudb4ix8It0rrxtSsfpabdtJquvsPPXcJGoBlDtyN7EyPBSpZlL/FxnSWEal0iKfzqNnn7qYDpqWl7WcqtY2mzDtfftwV9huzEslWH8K9/vo8fvpdYqh8V/HO1OoNsHYgfTNj+9ttv8c033+D7723hYR2kz7/4DDv2voyhY9ej7bUz4R8/BRcHjcclQTPozfPgydrYK1orAin/8jFmFmvuWSYXe1FZe5n1sqeY6T8hBfvobXupZFkbqz42kKsDapuVV71Zr7ombodPxhbEFm1Au5tW4rn+O7Fg+UkcPvEP7uOnZl//m1odQv6xdronfP3N19ix8xX0HEiVfE0ZvXYiLg6cgUbhs+ndGl60Fl0148g0ayLCXHp4McP1AgQXHkSoermM91YFrLx6gPXqAfiqd4ne6pG8nfl9FZpftx73PbUNY6buwYHDr+Orr5VXv7V26r+01RNkhfKaQ96/P/wQqzccxzM9VyPr8hJ4MRdfFFCMy0JKnXCtMWUDOaLEglxwgJCrDvkRKkOwe/JueCRto6dvQdrlK3HbI2swbNJubNz2N7z9zj/5F/+7oVZt9ejJNUGu+P73+OyTz7F8zUE82nUxMtuUoFHIJFwWNJN5W8p6HoVYCcO15ckag1Ve9cncz7y6h2DXIq7NSlx73yb0GLSLv3MU/3zvQ3z3ncRSw1fBP1erJ8i1aad7+9tv/xMLXzyMex5bhNicSczZ03G+3yg01hSjFNar2dsR2XwjWnReiSd7bcW8ZS/j8LG38J///Pfl1XNpDQzy9xbmKk7/A77BP999H3MX7MBtD8xEq+tn4qEuWzBx+m4cPPo2vvjyC37r11fa1FdrQJDVqM6dz+xWXZD9/LMP+W/Vb/7Wqm/A/wMrwNnX1zV43QAAAABJRU5ErkJggg==;" vertex="1" parent="28">
          <mxGeometry x="20" y="248" width="80" height="72.07" as="geometry" />
        </mxCell>
        <mxCell id="Xwab9O8QQoSItuY3KJxg-109" value="" style="shape=image;verticalLabelPosition=bottom;labelBackgroundColor=default;verticalAlign=top;aspect=fixed;imageAspect=0;image=data:image/png,iVBORw0KGgoAAAANSUhEUgAAAFwAAABkCAYAAAALxleYAAAAAXNSR0IArs4c6QAAAARnQU1BAACxjwv8YQUAAAAJcEhZcwAAFxEAABcRAcom8z8AACm4SURBVHhe7X2HWxfX1u79B75zn3vuvd85pp7Egi3FxOSkaGJDAUU6SLOCCogNQZGOUlUUpTcLNkDEiA0rVkB6EUHsgA0FpDd9v7X2/IaMRJOQoJ48uniWe/qe/c6ad6+19p6f/wsqefr0KZ48eSLKt/rbKmPVW3kL+B/Ut4C/Yn0L+CvWNwbwJy9YftXad4CLC3WRysvShaVStf2ZZT63l/pEdT3QNcDl8/UJ1SE1THm+qsF0/pMndD5pFy+rtr8q7UMLlxrCjQU1WlK+MOvzll+f8GPpfNqJJ12dwjheJeh9BjjfdJcoZbCVwD+rbOVPOtvxpKMNT6n8LeXjOtta0NrUiNbmBrQ1N/6qtgptQHNjPRof16Pp8WM0NdBywyM01D+ifc3iXjvpPrrY2lVgvArtQwuXLtLR3o6I2J2wW74eS703YplnKJZ6hGMplQ6eYUIXum/CjKX+sFjkg+lLfEn9eqi0zXKxP5UBQo1tvaFpsUyolqWjUE1SDVX5zDIdw8vqFqTmyzCRyonmpJYr8L2eLWbaOSK/MF/cr/L+X4X2MeBPUVtfhx+MFuJ/f+OA/6++Ev9N+o/xzvjnhJX4p7oz/jFhBS07492JrnhXnZRLWSe54B0NF/TTcMU7k0ip7KfJ22ifphve1/LEe5qeeFdDKqV1D9rngfdo+X3eRvvep/X3tdzFPj7mg8ke+EDTHe9PXoV+ExzwztgFsPGMw43bd1VtYDrkNsj6fLD6QvsUcNaqO1X4t6Yl3v3WGkPG22Lg2FkYom4NtXFz0X+MNQapL8AAdVv0H2eDAbSftT+X42wxiHSgankg7R80fj5tm0/b+Nj5tJ3Vhq5J+7jkbUJpP58vttPxpGq0v/+Y+Xjv+5mks/Hxj9b48Hsr9PvSBIMNfPDJ/AR4hafg4YN7oh1SG4jTuVNXtKevtU8BZ+noaMf64Ei8/50lPvzGEB99po6RY7QxVd8ImtrTMPhbA6hpOlKjvTFYzxODdb1EqabnQcseGKqzCsOmrsZQXU8M0fGkdV5eRaUXhvA2OmY4bR8m1r1V6iWOH0olHzOY9g2a7IVxs9fAdX087LxjoWMXhKU+m+GwKgajLLzQf94OfGm/C7E7D6CtqZ5bQr1Lp+S5CG/o5WifAS6UX0f6ayce99+0lazJEO98o4sPvjPGRz9aYPCYafjwq6kYMHo2hk3fgmEztmKYZRyGTt+MIULjaD2W9tE22jd4xhaozYyjMlbsHzx9K9Rou9pMWiYdOoOOn07H034+Z4jlFjpGulZ/02h8ZR2H3ceKUXazDjZrD8M15gSq7jchZvtJjDBahY/mJmP0wp1IOXQKT7vauTHUDrbyv4CFd3spdMMsbeRVuPiE453RCzFAYwU+Hm+PD8ctwEB1O7JCdwy1jCaNxBCLCAw1j8Qw8wihg2m72vQYDDKLxACjMPQ32ICB+msw2DAAaoZ+UDPwxRB9PwzSD8QA/SD0N9yEgdPC6PgIqFnE0jVjMNwiiq4ViY+MQ/G93VZEJmfAf/NJjLKJhVvUMVwovAmfTQn4ymwNBtjsh5bTNlzIyubWiHbIoLwM7TPApZL82y5ytci/5ZtvoA7U3jUE72r5Cgv8hAAWFkmgDjMPF6AMFYAz0LEYYB6FAXqBGD5lBUYbLMIUc3sYz7KHtZ0DFi5xwsLFTrBfshx2pFa2S2Ey0x66FgugaboQo/QX43MdRwzSdsUAAwKSHoKaeTT+ZRyB0fbxCN2bhcD4c9BYFI+Arek4c/EKFntG4vPpQVCbvw8W7ttRWl6mapP0xsog9aX2KeBiWdysFE0y6A9r7mP2Ij/8U5NBZ8sjC7YkkC3CMdw8hmiAwY+BmtF6fK27GHPmL4CXqxP8V3thbYAPqTf8fTzgu4rVE76rPeHn44XAgNXYsM4fG9f7Y/1aP6z1XwUfbzc4LV8Jy3lLMMHYDl9MdcCAqavQnyz93/O3koUTjZH1j5wdA/VFOzF6/hYMneqCT2eTEdjthcO6HaisrBTt4jawj85tE21imukDbu9zwGXtvjDpvTuVMLPxQb/J64ljiY8J7KFkzYNVr/5w47XQ1LeC2xJ7rHZdAZcVznBxccNqAnjD+nWIiAhFZEQYoiLDEB0VQRqO0NCNWBPoT8d4wd3VFR4rV8KbzvV2XwF/Xy8Er/ND4Gp3LFy0BBqm9hiqtQwf6gVggCXVa0pvklE41MyI1qYFYdgUJ3w2fxeG2yTDP3of6h7ViLZ1ET0+edpBTZAMqGcb/4i+NMDl7cyJZBqovH4NWrPc8a72WnxiQZ0i0Qhz+FDTUHypYY05sy3hS1Ybt3kzjqYdR87FHBTk5aKooAAlRUUovVSCstJSlJddRkV5udCrV67g2tWrKKNtWVlZSDt8FAm7diN0UzA8Pdzh4rwcqz2csc7Pi94aVxhbLsCn2o4YaBIqKEyN6Yw7Y6Mg6lfI0snKv7bbhfiUY2hrbeIXFJ1k5SIN8FcAnFXsY0uhsri4BOPMXPCuTjCGzyDrogYP1PWBjr4xUpJ2IjcvD0VF+SjKyUFedg5ycwuQn5tHwOejML+AwC8i8ItxqeQSPQAGn4C/UoEb16+jqqoS9+49wMOH9Xhw/yFuX7+JHOoId+1KgI+vD1Y6O8HXywUOS5dglOFi6oDXEp2RB8QPn/qXQeSbf2roieH2qRizeAeOn84gE28XCQp2BvrKN3/5gJNl8KvZJZJFXbiYk49Rxsvxgf4GamwMPjf0QCRRRfmlS8jKzETGxYvIJs3PzkZeTt4zgBcXqgCnYy+ztbOlV1zFjWvXcfPaDdy6eVNwcDWBf/dONWprH6GpoRE19+4jK+MCwkJD4OGyEgts7fCjsQPUTEPI0onWuE8xj8OHE1dioBF5QPYHobt8G3Lzi7iFog3sEPzM5UQxXdK257X51/SlAy6rfExXZyfOnc/CF/queE93A8bP9MeBg/tRlJ+NjMwMXMzMQnbWReSShefl5P4ScHpLSsnCy8rKcIUo5aoK8BsE+O2bt1B1uxJVBPqd6mrcv3sX98nqHz2sRUtzM5qbm5BDNOXv7QH1qWbkWvqKPmUQeTTfkM8+JyAVU+YFYLhlCAbZ7MXc1fG4Tg9RaigDzdlFTut2EPB/LCJ9dYALK+HjpGg0Ne0UBk9ahgmW7jidfoToIx+ZGZm4SFycczH7uYAL62bAycLLVYBfu3oNN6/fECoDXl1ZhbvVdwjwewT4PdQ8eIDah4/Q8PgxGyyqbt7AEkeyZo2lGEyW/bFRFL6ZG4fE9Es4lXUZOtZ+GDKTPCibRLhuTMD9+/dFW0X6mQymnbOM/+mAs/JxrNzoltZW7EzaB6sFDsg8dwEXiUKyVNYtA85gs0r8XSgAZ+uW6eRKRQWuXyPAmU5uEJ3cut0N+L07d4U+IDp5VFMjrLy+nlO0BDrJmTNnMW66J/6lH0yddyyBHoLv50bhwNlSHDiZhTEW3hhovRvDyXuJ2n4AzQ31UsJZWDlbeO/BZu1zwHtekJckj1wu+Y+OoeVHxLFb4zYj8/QZZGRnCE9DBly2bgb7GcCLiU5KyVNhOiEPRebvbjohvVNVLcBmC6+5T5TyoIYsvBaPCfDHj+vEnVyiaxgsCqW+hAGXArCPDEIwYdE2nMy7gR37TuN7s1UYPG8vvrLdhmQK/9tbm6UWUH9E9k2g07Ki7b9H+wxwEdoL2iA7+B0X5POqq6sQv2MnLmRkCe7+Tf5WWXj55TIBOLuEEn9fx+1bt4SFswo6ISq5T9bNdPLo4UPU1dYR2AR4QwPXjnNUz3irALLwDdRpSimGIRQTvKcXjIWBKUjPvIylq+MwzMgTgxYcwriFcRT+59Kp7JMTtVCn+UcCoT8NuCx8CaF0sarbVUjaHobUxGAcTIrAwT2R3XpAtX4oKRoxIX6I2xIt3MFMBlxBJwz4z+6gZN2Cv2XAy6/gOvE3u4Q3bhDgtwnw27dRTXUL6ybeZa1hOnkk0cljopPGRvavu5B28hxGzQrCR0ahFPFS8EXKuZwB08LxxcwoeEYeR3Z5NZz8YjBsWjAG2e6H6Ypo4YqySHmj3lk3a58BLksndSoJiYnQ/r4fVloMhKv1Z3Cz+hJu1qRzv6R1Kq2+gOusz+Aweyz534nIJ/crg8CWrVvmbwac9Rn+Jv/7CjX6KvnfAnCmFPIkbhPYgr+rqMMk7+Qegf2ArPshWXdtLdPJY9FptpCnwv711oTD+NxkLfpT1DmU3NNhZlIwNpyiYH4IHxuGYm38OZzNv4pZSwKE+zhg7h4s9tuGO0RVLFLO5fnAvkj70ML5jy/2BI1Nj1GUd440HfsSNiIpdhWSt/hhL2nyZl9RJsWuxjr/5dh/aD/y8oqITs6T/531C8B7dpiydV8jd5ABZ5X9byV/3yNKeQbwxw0EeBNaiYc7WusRHLcXwwxXo7/hBoo8wyjqZOA51cB+eRQ+Ng3DhwZB2LD7ArIKKzBr2QYK/3dDbW4i/MKT6K15JLVbAeLv0T6lFMHjdEF+ZTs7OpGcsAuztIdite1IeM4bAa95n8Nr/gha/hxus0fAe9lsnDl3FrlEHxczpYBHphOld8L83ZNOGPCf+ZusWwac+JvBvnefOkyiEwa7vp75mwFvREdnO22rgeuGRHyg4Qwja03YOU7Cvy09MMiUE2rcgUaRfx6BD41DiF5isPtYCcqu3IaVcxiG2SZjyNzt2JKYhpamRtH21wK4EHFRcpvI0rsoqjx/7hzWeNkjZt1CbNnogIhAW0SsWYDINXYIWmWFAB9n6ojI987JJDrJfsYdfJ51y3Qi87dMKQx4JbmCwh1UAf6AvBO2brZEwd9EJ0wp7NIx7di4hqPfeE+MslgM3Tm6GGnkCLVpsVCbvpmsnTOYUfiEItB39TdinN02nMm/ia1JafjaxB2D7A5gtO0W6gcuoLO9jRv+u0HvW8CFnSuV/qWipqYWEcE+CPGZic0EdtyaudjkMxdRIcEU8BQiS4Tzmc+4gwJwArtIFV1y/kTJ37J1s//9PHfwl/xNFk4eCjWbHlgF3N28YWRujcnmS/CN7mJ8pr0MQ3S80F9vHQYQxXDagVPHQwn89/VDoblkO+JT87AyMAYjzP0xkEDXWBKDgsJLZOLktbCjyL65SAH8EmhZ+xjwXwp3KuUE0FzL8Vho+g6cZw3G8hn/wiKzQYjctAmFJaXkf2cgN0vibqV3IlzBEgKbcyeXL6NMuIMVzwDe0/8W0eVdyR1kwOvqmE4kwJsbqMMkyaIgy8PLHas8V2J9oA+CAnzh57MKTk7LMXPOfKgbzqcH4IiBer7SSJLlZrxHPrqFWyJO5lyDZ2AsvpwdhoG2qZjuGkvh/y1xXUJb+OWvDfCfK3pCjX6ImzdKcKeylLQMacd+wo6EHcjLl6ikML9EUAeDzICzleeTu1hAwBcWEo8XEY8S4BzsMMgMLvvbbNG8rAznObp8KNxBiU7Yslmbm1uFF8WJrOCgIAT6+8OXgHZzdYbLSid4e7oi0NcLQf7e8HZ3w6x5S/Cd/kIM0qWok/j9fYMwzPFLw5HzZZjjGIwRs7dAzWYPlq3bgZqHUg5dCerz9E8DrrzIL1UKhDhQUEpbWxvOnj2F1J9ScKmwGFnnM5GamortW+MRFx2LLRR9chmycSM2bliPUHoTtsTFYS+5kHuTkpC8JxmHDhxC+smT4mFxB8oWzkA/pgCnjvxuJX8LwBsb0NreSn54A86cSseFs+dFB3vtWgXRVgHOnT2DPXTt4A0b4O7uCucVjvBd5UYPwBvzbe3xb+0FZPHkHppF4Qfi9G9mhWOIliO+XJCMwXN3YUPsHlEPy6+5iy8dcEmldQl8kGvWimPHjiApMRlRkZFwdXGBh5sr1gQEiAZHRkSIcmMwaxA2bSD3bN06AX5UeBg20fbQjZsQExWNyPBwxEZHY+f27Th88AB11GdFBFpH3N3c3IympiYBBAPdTh1cfV09Tp85i4yMDAqUbpFLSZRUSVREXs3DGopKax6KYOpM+mlE0X24rqR7ozfAdflSTDKxg5rRWqgZR2CgZQwGG6/BUG1nfLrkEEZYxyD5wAkyplYChT02mdep7QJ8CYeXDPjPqqyIQdgUvAkzp8+AB726iUm7kbp/HwEYSa+1BxYvsoe11WxYWprBikpeNp1mDDOzaZg1czrsbOaJYxwdl8LbywPrg9YhIjyUHl44wsNCxPLuXTuFl1RdXS0eML9V7DmxB3P48BGRRuCI+Lqq45UTX2z1NQ9q8JgeTDNFpfxAkpKSsdrTHQttrfGt4RIMmcajVdShTo/DYF1fDDPwwqdLT+GH+aE4Tw+yi1xPTnOIkSKR7FIa3WsAnD2IhQvsEbYphFy7CiQm7sKcObMwWUsDUyZrQnuKFnSmToG+7lTo6miLbVNo31Tazvu0VMewTpmiAX09HcycYQnHZUsR4O+L2JgobNkci7AQ6S04fuw4RYd3RN1V5BIeP3YMhXkFAuSeHa+yH+DEVwMB39X5hN6GaoSvD8CPmkboTwHREEuiFIpKh83YgsHa7viEPJehS9IweWm4NPovaIWsXIyJUttVFPPKAeeS89gxMTGiw0tKTMBE9fGYqj0ZJsaGmGZiJJSXjYz0YWxkIJZZjWndxJDWDQxgaKAHAwNdGOhPhZ7OFOlBaE4S15kx3QJeZJE7d8QjYfcuhIWFIm5zXPegxYnjx0UgdZsiVM6jM/CsPdO6UqaRPZ1aMWrV0lyP5c5uGDzZRcyBGUZB0SDzcDEdY8AUF+pEiWbsjmKO+2bcFQ/42bYrl3srfwpwDsP37dsnApZ1awMx6vtvYWSoT+DpSkBSqUfWbUilBLj0AIxNpAdiakTLtM/IUBcmtF9+QOIh0XUYdAbf3NwUm8jXP3b0CHYQx/ND3rFzB06QxV+7clVQyfP8eFYBNvE5d8D15MfXkbKcpj5i/ExvfKzuiCHjbTDOxAkaMzwxQs8DwybMxxd2iVCbk4CtyccFlVGjXw/grPJxzKcnycM4RJ1cxoVzxM0mmDh+HIz0dWCoN5WoRFtYLVOFPm3To206tGxC1rxMayIctCZBn6zdyIAegLGxAJ3Blt8O8ZBImZYmTpwgaCY3N4e4OAmrV60iD+egsGgGm+lEtnABOCe+iOe7/XiRh6lHfYM0/7Co4DI0Zvvj/47QxT8+08JIdTN8p2mC/iMn4r0vtPHBhEXob7IeCYcuiCl/nYp2KzHorfwpwFnYc9i/fz+Sk/cgJWUPZs+agQljf4AuUQMDb8AWTkAb6GtDV494nJatNDXx0+efY//IkTDV1YG2oQ506Vh9Wua3gq2b3xAuTQlwMwKfrZ0720OHD5F/X0AuZoiwcKYP5bCc4O8q1bBcd1r3kSpwaqT7lfIm+1IP4lszTzGX5fOJVhg8WhcDv9PEkG8n4zN1K3xO2z8ZbYgTJ88In18aI3iJgP8W+MoK2dIvXsxCQsIuxMdvhaeHG8xMTUTnyZysxxbPQOobQp+A9Bk3EZcH9kfxwIFY9eOP0DLkt4AejK6+eBP4jdAjZfCN9Ql4KjUmTYClhTlO0RvFqQGet8K+uwy4bN3PdJgKwNmPZ+tuanxMAHbh6NFjOHH6DIpLy1FadgWXLpej5NJlioZJKTArKS0RUz1q6bzuEaHn4NNbeQZw5QWUF32RKivlkkNvBv6nfSmIiY4gV88ddrbzyQWcAWPqJCdqaMBSSxOp332Nqx99hLKBg3BsxAgs0JqCKbRfl0BnoBlw9mrYm9GapA71cWNhTtbNHTOnCBjsA/tTpZQu0YkMuMzfUlqgRx6G7o21paUFtdR5niUO54fxWyJG97vIwoWn8hIBZ1Fe+Ne0J/AdHR24c+cOcvNyyVc+jF3b4rGBgh0XdxdEGE9D4b8+RumH/0LpgAG4/OEH2DHyK1gSrUylzpPBZjqxtDCDzfx5cFmxnIKjYHqIe5GyNxlxcbHUZxwSeZieYMuAc2cpDcsp6eQxGusb0Nneiep7d3Dy1AkxZCfd9BOOcITLJ+VPKNAhb0ZyB6W5OH0O+ItEefHfoz1vhNebmhpx79FDXMnPReHChSj59BOUDhuG4sFDkPvNt0ibOAmb7O3g4uUGD6KjNQH+FPxEIH7bFhF5JuzaJQKgI/TwOOvIILPfzRbeE/Dn0Yky8dVBfMyjSpkXLojBaGqhoAq6acX9c2qaAeYHID2Pp13ScS9q5++V3wScRVnBi1S5/0U385R6+3Z6zZuryJMgysk0MUZm6k+4QK/3maMnhF994vgJ4ukTOHP6NM6fPYesjEyRDOM8Cyvn0JV59BfxN7uDPemEO3i+rdLSyzhH0StvY3lx23j78/e9NsCV25kfGxslL4CFt3GHyg3j6XE851y8srTvZkkpDkTHkqVlIC+/AAW5+SjKK+weGZJH9y8VX0Ip8TYPXPC0iufl0WXAu+nkBYDzvXFaoKioCIV0/ZYW8q9JXgz4i/WlAa68+PNUWfGNGzfg6OiIVeQjb9iwAX5+fli2bJkIjlhEHoSPp0bfOZCKcxTGZ6XuRzYBm8MDF7nZyM/l+SsMfDEBzkCXPgM0qzxC1DOclztMkdbtwd9s3ZwEYxePrZsnIPGysg290f8IwK9du0YBykSMIM/jyy+/xEjys8eOHUs+erLYLx/b2dmBW1u34vx3o5C/YyeKKFosLihAEVk6u3ps9RfOX8AFohROv2bQMs8EyKe3gEN5Bl3OpcsRpWzZMuByh9k9LKcCnIOYs2fP4tatW79oQ2/0tQPOr+r169eF9XAjIyMjkZ2dLaY6cAPla7E0UyeauX8fjqxdgxzi68NHj2I7+e/hoSFYv24dgtatRXhYKCJIQ0M2IioqAlu3bEZcbIyY0M8JLc6t/JSSgnTyNnKyL4ppc9X0ADii5Pp5whBbtww40wmH6Ex7p6l/4Owji7INvdHXDjiXbOHbtm0TvnJ4eDgOHTqEn376CXv37u2+Fks9eQvnCKw0F1eEr3SHw4oVWBvoi+joKNJI8uEjRXp27ZoAEc6vWeMvvpIIWrdG6Mbg9fQwOH0bQsdtEmncOM6vbN+BVPLPeYiPPREZZC5ZmdL4IZw5c6bbB1e2oTf62gFn4UZERUUhMzNTrPNrzI3jzB4LH8tylzyVxOVOONT/YxxxWoajF84jKSEBq7y8MNd6jsiZcy5FDu85AcahPS9zAGRhborpluawtZmHlfx1xCovejPWIppcyegIelih0gM4eOCAGEdlC2cq4ftkKuFBC7Z8lj8CNutrA5xV3s8BDwc63333HaZNmyY6pp7XYLlReRuRri7IXrgEpXv2YNX6tdDS0sDECWNEzlxnqrZIWHG0yWBz2K+nqw1d2q6nw0kxCpJov6YqjcvHiVz6dEus5EApJJhoZ7MYheI3bQ/VwffC9fMgNgPOxsDylwNcWTHztY2NDezt7eHp6YmQkJDuffJxXF67cR1niXtvUocYRLSirjEeJsb6IjNoTFbMltydwCIgjUk5n8KJMKG0zvkZPdrGqQBWXXoAU7U0hRrp6WKx/QJh8ftSKDqNjRYfdGUT17M7WEIuJnO58r56q8p290Z+FXDlhV+kSiC5I7pAERxz5ZYtW+Ds7Cy4k0V5g/fq63CKOr2cqTrwH/klNHQnw9hYDwYEMoNuZkqUQrTC6VnOlRvRvmm0bGJoCF16MPrGujAhsA3J0vXJug30tOnh0Dpt49ElHW2yfo2JInHGdHM6/SSSEhOJ68OFxReQR8Rvo/L+e6vK9vRG+gxwFrYa7jgZ+K3k9nGHycIBCHsxklCARPFybupBpI/9EWcWLsACpxWYOG6slFFUWbYYxOBMoQFbux70jA1hReCuHTMGrhpa4mEY0zZTHtTgN0LF96x8LlOMDtHNmB9GYfVqLxTk55N7uheurq5k5QXSnSjuv7f6HwE4d0izZ88mIIxhZ2cn6MXIyAju7u5iPwsfz9Le2ICCtMNIiYlFakoqljs4YMKEH6E+YazgbwE6UYMhcbYh8fdkQyM4TVTH2U+GI+yHMWTlhmT5PDqkGqhQDFyIUSN+U4wMoUeg69MDSE8/heycHKwjt5PnxLD8UbBZ/yMA54FdW1tb0WEy8CYmJjA1NRWuIkv38bT8hNyz+/HxuODrg/0E/K6EXQRGAObPsxaAaxElTJmsRZ3jVDE4oUsWO3/SRHiPGY151LGKHDttY+uXrV1+O3idgWfen0BvEWcdeRLS6dNncPDgQRHus/ylAWdlt5A/N+HOs6KiQgy/9eRwLllaKytxyW4Bim3twNMob5Hnkk5BUCIBvz5oLRwdHWA7fz4szadBa/IkTKHO0ImsP4AAn64xCepatI09mimamDJlEiZP1hDH8DZ51gCD7+riLIKjkyeOY9euXcI/Z+l5771V+dzeSp9aOL+qo0aNwqBBg/DVV1+JnIos8nGipPUOopS7R9JQtf8AuuiPhfc3NzWJD6wyyXXjgYy46Gj4Ew2sXOmMpAnqODricywzJoueboFZM2ZgzqwZsJzOfrkZ5syeCfsFtnAjkAP9/bB5cxz1I/uEW3jkyBExE1eu57fa9VuqbHdvpE8tnDtHtmoOnXOILznYYFEeIy8/6exCfcV1PMjKRldbKz0EnjwpWb8svN7S3IKqO3dRXnEFt4mHy6njO5WWhmR6GNu2bhGgbo6LE6E/j+gnUgCVRrHAWaIPfttKL5eK6JLrZVHew59R+Rq9lW7AlRfprcrnMcAczo8ePRoGBgYCdBbldXmZpb2xCRVBQSiaZoiOOukrBE7hsnBkyFx7/Phxsc7S/qgW1QR2DYHOzaRLdV+Ts35cN7uj/O0oe0S8XSly3fI5f1bla/VW/jTgyop5WoK/vz9CKbRmDQsLEyCwyMeJktY7aXvV7gRcdVyGzrpaqSOlfSx8HKd0udPdk7JHbGu4XI5C85m4tXa9WGfhvoJz22zBzxPl/fW1KtvdG+kzwFn5o6jNFFIzEMzn7J3ISaLu41Qljxd2NjxG/Y1bOEH8evjQAXGcUk6np2MWhetLHJbgUMpelCTtxu2M86igSHVb/DZYmJvD18dHPGgWvvavzenuS31tgLPyeSzskbCF/+1vfxMdJ3sFLPIx3SVtY35+dHA/Kuda40hMHKZbzUJSUmL38Ty0xcLzw7cTuHPZxZwwHubkd8+gztLJyQGnyPtQvkFyHSzKOl+GKuvqjfQph7PwjFrOf3MuXBbldcUybWO9Tw/k0rgJaCWv5DyF22bTTBAZGU48LIGolKr4rThLPvllehuaxDij9EBYuGp5HjcL/8hlW2ur6BOU99eXqmxzb6RPAGd93g0otyuVxzZbCZT2mzfQcPoU2sX0M6C4uAjzrK2xiEf2LxWLbSx0FprJS2nKvIin9fJk+efXybTm7uaC2Nho0fmy/Jl2vUifV/fvkT4D/LdUeYPM736BgTiWkIQHqWmoLS0V21l4WIwn8k8j6nBzdUFuYYFIAzxMScH9/YfElIWe0t7RgcKiQvj5+VKUaQQ/il55Mj6Lsu6+1P94wFn5+iytxLtJ5Efbfz0SZ0eORANxMYv47RKxxJZ6HZs2BsPK2go2syzh+O8vEGxigONH03AhMxNHyRePj4+HP4HM6QCe2hwY6I+yslLRebKIOuX6+7htfwnAWWXQ2zo7UHIgFbsna+HIpo0ivGdRcjELz3jNyswQv1bhs9oLLs5OcFnuDOfly+Ht5SmG5c6f53HUn11DPptaIv7Euqpe5X38Wf3LAM4q6uE6W9uQuTcFs/V14Ormhspbqs/2SORjWZpLL+N+SBhacnLF+otEeQ5LEwVXaUfSxLehctuUbfyjoP0ZeQ0WzqVk5Q1XKnBlkQOK/fywKToCJmYmYmSef+NKKdX7f0KGjg7uEXiSSCBJ13vWHWRh+uAZWzbzeCLpTOSqIl75eGX5quW1WLjMsQ3XrqJk8UJUh0eI9fz8Qix3coSFhTk2rF+P4pJitFOA1HH/Lh5Tp9iu8jpeJDwJf++ePbCztYG5qakY15RTsVyvsn1vHOAMeUd7G5oqb6LlLv+KppRH4bxIMYXrPD2CJ+BbzZkDTytrbHVegYyTJ1BOPvsNcv14JgBb7qHUA9gUvBFLFi+CpbkZHBwW4yAFVM9wOtXZs21vFOCiHqqzo64Wd7ZtRlVcrPjCQDRfgUFjSwvOpZ/CGiMDOHzzNRbb2cCaIlNrikr5s8MFtM6fG0ZEhOHIkcOoqqoW15eluy5F3bK+MYALN43qYWmvrML12XNRMXO2+IaGhW2foZeheNrVieYbFWi+WiHOa25vRX2jNLGe77eniDp+RzveGMCFcj1UZ0djI2qOHcd9sk7xn2bwfTDcdIy4F1pvLbuMW+sC8SBd8tWVQoeJ4zgd29t7f6MA53o6CM524uuWiquoz8tDW0eb4HXB7wowGk8cQ4WuLu7v3C1Yvkt1DQZZzoFzySrnweU65OXn6RsHODf1SVMjbq4NRI6ZGZprpOEvlvbmFtQXlaAhLwf1pUV4lHkRbQ9UP5VE5/L5PK+EZ8NyqRTudHnbW8CVyqBRnZ1trbi9cwfyHJ3QVCP9aiZD0EkBy+3ANcjvPxAlP4zBpRmWqLC3Q9WaADSWXxbHsBQXF2Pnzp04evSomIDEWcrY2FhcvHixu64XtemNApzrYa+EP1ZqffQQDTdvif9QiVmcKYPl0enTKBn5NS79n/+H4n79kP9ff0OZuSUaVUkpllOnTuHbb7/F3//+d/Tv3x/vvfcehg4dKob5WOS6etav3P6qRQDe82ZetnJjBV/TctXhQ8hftEikX1k4EmVprqrEFZ5P8o//RlG/d1EycRLqsqRZuXweC39zz5adlpYmBjs4NXvs2DGcP39eUAvLW8BZRWPZBQRuJycie8oUPBb/WYb0w43cObKbeGfLZhT9sx8KhwzD3b17BJXwGyA+51Mkufh7TJ6Soa+vD3Nz82c+AHgLOFEJ++IMHP+ycWNVFe6cv4A2Vf5EUI3KymuJi/O0tHHVzZM8GqlzFKM4BFZPwNLT0/HDDz/AyclJTNdgeRHYrG+UhXNjBeBUd0tlJR4lJaP1stQZ8kPoVEWdDeXluBYZgdrsi1InKz5W5Q+heA1izndiYqKglJSUFPGlBc9Plz+YYnkR6G8U4IJSmBKo7tpT6Sj5cQwexsfzraCDAGcrZ3m4NwllM81Rd1HibgZc/N43XYOFJxyNHz8eAwYMwPDhw8X06KVLl4qBiZ7TM3rqGwY4NVg1utN8uQRV3p5oIErgdQlQicfvRkTjmr4xmguLpX0U5jOlMCWx8EdcPEmTZwvw3BSeTMpfNvyeyPONApynSHDn2Ent7SBfvOV2JZrvPQDBSUBIP5XBhNBSeRtNhXnoJBDZ5sWPmymAYn973rx5YsKQpqYmPDw8uueovAVcodxY8cNdVHcL8W354sW4FRPHtyIeBsPQVluHyv1HcCf9vPDPpYckdbYMOgt/yeDm5iZoZBG5lrt37xbTNFjeAq5QCTzOpgBNV66gwNYGpevXi3X20LlsoU708jRzXPf2EfQiPBsBOJ1LlMHCU4/ZD+fcOLuCJ06cEKP+LG8B76HcYLZcppS6G7dQX1nFdtwNeHNFOSq93VGr+mycTuk+j0sWBpmnR3OkOWTIEDGXUfw+FclbwFUqTVugxlKDWVprHuBqXAyub98ueJv3s7Y2PEZDdSU6mprFA5A6Ut4nnccdJXM4eyo8LZln6vbmy4Y3BnBWiR6owVR3M1l2vvVcFM6ZQ7Yty1NU70tG9gI71JZIM7CE3646h4V/2W0KRajsCnJnqaurKxJZsry18G4l0qCS+ZgB5nni946fwoO0w7Rd6ki7OrtQuS4YBfoGaLhSLkDuon/4R2JYOJTnfAl/B8rhPH9XtHHjRtFp8sxdlreAq1RQCjVWTFcmePmXJZoqKlCXX4x2nkxP98P/T31dzkXcp4fQqfA6WFnYE2E6Wb58OaysrODr6wttbW3x0yFvAX+OcuJJBDgMOHF0VUAArhobouNhjbDmtvp6PCBA68rKhMWL81SA8zILA25oaIigoCAR8PCvV/Dc9LdeynNUdIzcYPrrohD8ztYdKF/qSB2oNHm/rqgYmeQSlvkEiHWGRQZIWXL4rsyZKEd65PJFKu9/1fJaABceB1MKNZrL1vv30Hj1GrmI0vfvDRTQXFpgj5u7EwTYfI4SQCVYPff9Xn1jABcczkpA8x+vPzx8CGXLlqHhWoUAuKu5CS1VlWitq+8GvK/1DbNwycXjQQZu8v2UvSgwM0NdIf+/l+SFnD6FWyGb0Eags/wRC/4tfT2AA/8Dx4z/70ZkRZ4AAAAASUVORK5CYII=;rotation=-90;" vertex="1" parent="28">
          <mxGeometry x="32" y="358" width="62" height="67.39" as="geometry" />
        </mxCell>
        <mxCell id="YGl9vfwFOa02jHmO-yQS-121" style="edgeStyle=orthogonalEdgeStyle;rounded=0;orthogonalLoop=1;jettySize=auto;html=1;strokeWidth=2;strokeColor=#4277bb;" parent="2" source="77" target="YGl9vfwFOa02jHmO-yQS-120" edge="1">
          <mxGeometry relative="1" as="geometry" />
        </mxCell>
        <mxCell id="YGl9vfwFOa02jHmO-yQS-125" style="edgeStyle=orthogonalEdgeStyle;rounded=0;orthogonalLoop=1;jettySize=auto;html=1;strokeWidth=2;strokeColor=#4277bb;" parent="2" source="77" target="YGl9vfwFOa02jHmO-yQS-122" edge="1">
          <mxGeometry relative="1" as="geometry">
            <Array as="points">
              <mxPoint x="654" y="340" />
              <mxPoint x="654" y="340" />
            </Array>
          </mxGeometry>
        </mxCell>
        <mxCell id="YGl9vfwFOa02jHmO-yQS-126" style="edgeStyle=orthogonalEdgeStyle;rounded=0;orthogonalLoop=1;jettySize=auto;html=1;strokeWidth=2;strokeColor=#4277bb;" parent="2" source="77" target="YGl9vfwFOa02jHmO-yQS-123" edge="1">
          <mxGeometry relative="1" as="geometry">
            <Array as="points">
              <mxPoint x="624" y="340" />
              <mxPoint x="624" y="482" />
            </Array>
          </mxGeometry>
        </mxCell>
        <mxCell id="77" value="" style="swimlane;shadow=0;strokeColor=#4277BB;fillColor=#ffffff;fontColor=#4277BB;align=right;startSize=0;collapsible=0;strokeWidth=3;" parent="2" vertex="1">
          <mxGeometry x="407" y="98" width="137" height="483" as="geometry" />
        </mxCell>
        <mxCell id="YGl9vfwFOa02jHmO-yQS-119" value="" style="edgeStyle=orthogonalEdgeStyle;rounded=0;orthogonalLoop=1;jettySize=auto;html=1;strokeColor=#4277bb;strokeWidth=2;" parent="77" source="87" target="YGl9vfwFOa02jHmO-yQS-118" edge="1">
          <mxGeometry relative="1" as="geometry" />
        </mxCell>
        <mxCell id="87" value="Realtime&lt;div&gt;database&lt;/div&gt;" style="aspect=fixed;perimeter=ellipsePerimeter;html=1;align=center;shadow=0;dashed=0;image;image=img/lib/ibm/data/data_services.svg;rounded=1;labelBackgroundColor=#ffffff;strokeColor=#666666;strokeWidth=3;fillColor=#C2952D;gradientColor=none;fontSize=14;fontColor=#000000;fontStyle=1" parent="77" vertex="1">
          <mxGeometry x="38.5" y="169" width="60" height="60" as="geometry" />
        </mxCell>
        <mxCell id="YGl9vfwFOa02jHmO-yQS-117" value="" style="edgeStyle=orthogonalEdgeStyle;rounded=0;orthogonalLoop=1;jettySize=auto;html=1;strokeColor=#4277bb;strokeWidth=2;" parent="77" source="YGl9vfwFOa02jHmO-yQS-116" target="87" edge="1">
          <mxGeometry relative="1" as="geometry" />
        </mxCell>
        <mxCell id="YGl9vfwFOa02jHmO-yQS-116" value="Host&lt;div style=&quot;font-size: 14px;&quot;&gt;Connection&lt;/div&gt;" style="sketch=0;pointerEvents=1;shadow=0;dashed=0;html=1;strokeColor=none;fillColor=#505050;labelPosition=center;verticalLabelPosition=top;verticalAlign=bottom;outlineConnect=0;align=center;shape=mxgraph.office.services.online_hosted_services;fontSize=14;fontStyle=1" parent="77" vertex="1">
          <mxGeometry x="40.5" y="44" width="56" height="52" as="geometry" />
        </mxCell>
        <mxCell id="YGl9vfwFOa02jHmO-yQS-118" value="Historical Database" style="shape=datastore;whiteSpace=wrap;html=1;labelPosition=center;verticalLabelPosition=bottom;align=center;verticalAlign=top;fontSize=14;fontStyle=1" parent="77" vertex="1">
          <mxGeometry x="47.5" y="339" width="41.5" height="51" as="geometry" />
        </mxCell>
        <mxCell id="79" value="" style="swimlane;shadow=0;strokeColor=#4277BB;fillColor=#ffffff;fontColor=#4277BB;align=right;startSize=0;collapsible=0;strokeWidth=3;" parent="2" vertex="1">
          <mxGeometry x="655" y="98" width="137" height="483" as="geometry" />
        </mxCell>
        <mxCell id="YGl9vfwFOa02jHmO-yQS-120" value="Mobile Web App" style="sketch=0;outlineConnect=0;fontColor=#232F3E;gradientColor=none;fillColor=#232F3D;strokeColor=none;dashed=0;verticalLabelPosition=top;verticalAlign=bottom;align=center;html=1;fontSize=14;fontStyle=1;aspect=fixed;pointerEvents=1;shape=mxgraph.aws4.mobile_client;labelPosition=center;" parent="79" vertex="1">
          <mxGeometry x="48" y="32" width="41" height="78" as="geometry" />
        </mxCell>
        <mxCell id="YGl9vfwFOa02jHmO-yQS-122" value="Dahsboards&lt;div&gt;Power Bi&lt;/div&gt;" style="sketch=0;pointerEvents=1;shadow=0;dashed=0;html=1;strokeColor=none;fillColor=#434445;aspect=fixed;labelPosition=center;verticalLabelPosition=bottom;verticalAlign=top;align=center;outlineConnect=0;shape=mxgraph.vvd.nsx_dashboard;fontSize=14;fontStyle=1" parent="79" vertex="1">
          <mxGeometry x="35.7" y="213" width="65.59" height="61" as="geometry" />
        </mxCell>
        <mxCell id="YGl9vfwFOa02jHmO-yQS-123" value="Notification&#xa;Service" style="strokeColor=#dddddd;shadow=1;strokeWidth=1;rounded=1;absoluteArcSize=1;arcSize=4;labelPosition=center;verticalLabelPosition=bottom;align=center;verticalAlign=top;fontSize=14;fontStyle=1" parent="79" vertex="1">
          <mxGeometry x="34.79" y="359" width="66.5" height="50" as="geometry" />
        </mxCell>
        <mxCell id="YGl9vfwFOa02jHmO-yQS-124" value="" style="sketch=0;dashed=0;connectable=0;html=1;fillColor=#757575;strokeColor=none;shape=mxgraph.gcp2.push_notification_service;part=1;labelPosition=right;verticalLabelPosition=middle;align=left;verticalAlign=middle;spacingLeft=5;fontSize=12;" parent="YGl9vfwFOa02jHmO-yQS-123" vertex="1">
          <mxGeometry y="0.5" width="50" height="52.5" relative="1" as="geometry">
            <mxPoint x="5" y="-36.5" as="offset" />
          </mxGeometry>
        </mxCell>
        <mxCell id="YGl9vfwFOa02jHmO-yQS-115" style="edgeStyle=orthogonalEdgeStyle;rounded=0;orthogonalLoop=1;jettySize=auto;html=1;fontColor=#4277bb;spacing=4;fillColor=#0050ef;strokeColor=#4277bb;strokeWidth=2;" parent="2" source="YGl9vfwFOa02jHmO-yQS-108" target="YGl9vfwFOa02jHmO-yQS-116" edge="1">
          <mxGeometry relative="1" as="geometry">
            <mxPoint x="346.52" y="143" as="targetPoint" />
            <mxPoint x="193" y="166" as="sourcePoint" />
            <Array as="points">
              <mxPoint x="316" y="168" />
            </Array>
          </mxGeometry>
        </mxCell>
        <mxCell id="YGl9vfwFOa02jHmO-yQS-108" value="ESP8266 SIM CARD" style="dashed=0;outlineConnect=0;html=1;align=center;labelPosition=center;verticalLabelPosition=top;verticalAlign=bottom;shape=mxgraph.weblogos.arduino;fillColor=#36868D;strokeColor=none;fontStyle=1;fontSize=14;" parent="2" vertex="1">
          <mxGeometry x="282" y="266" width="67.4" height="32" as="geometry" />
        </mxCell>
      </root>
    </mxGraphModel>
  </diagram>
</mxfile>
